<svg width="54" height="50" viewBox="0 0 54 50" fill="none" xmlns="http://www.w3.org/2000/svg">
<g filter="url(#filter0_d_19_513)">
<rect x="3" width="46" height="42" rx="7" fill="#47C5FB"/>
<path d="M17.7 8C16.9839 8 16.2972 8.28446 15.7908 8.79081C15.2845 9.29716 15 9.98392 15 10.7V32.3C15 33.0161 15.2845 33.7028 15.7908 34.2092C16.2972 34.7155 16.9839 35 17.7 35H33.9C34.6161 35 35.3028 34.7155 35.8092 34.2092C36.3155 33.7028 36.6 33.0161 36.6 32.3V16.1L28.5 8H17.7ZM27.15 10.025L34.575 17.45H27.15V10.025ZM23.1675 20.447L26.988 24.2675L29.85 21.4055V30.95H20.3055L23.1675 28.088L19.347 24.2675" fill="white" fill-opacity="0.32"/>
</g>
<defs>
<filter id="filter0_d_19_513" x="0" y="0" width="54" height="50" filterUnits="userSpaceOnUse" color-interpolation-filters="sRGB">
<feFlood flood-opacity="0" result="BackgroundImageFix"/>
<feColorMatrix in="SourceAlpha" type="matrix" values="0 0 0 0 0 0 0 0 0 0 0 0 0 0 0 0 0 0 127 0" result="hardAlpha"/>
<feOffset dx="1" dy="4"/>
<feGaussianBlur stdDeviation="2"/>
<feComposite in2="hardAlpha" operator="out"/>
<feColorMatrix type="matrix" values="0 0 0 0 0 0 0 0 0 0 0 0 0 0 0 0 0 0 0.07 0"/>
<feBlend mode="normal" in2="BackgroundImageFix" result="effect1_dropShadow_19_513"/>
<feBlend mode="normal" in="SourceGraphic" in2="effect1_dropShadow_19_513" result="shape"/>
</filter>
</defs>
</svg>
