<svg width="87" height="122" viewBox="0 0 87 122" fill="none" xmlns="http://www.w3.org/2000/svg">
<path d="M25.8897 16.0059C25.5452 15.4122 25.0517 14.9187 24.4579 14.5744C23.8641 14.23 23.1907 14.0467 22.5044 14.0425C21.8059 14.0535 21.1182 14.2159 20.4885 14.5184C19.8589 14.8209 19.3024 15.2563 18.8573 15.7947C17.0426 17.9484 16.8552 21.1493 18.0005 23.6689C18.5605 24.9427 19.5636 25.9701 20.8236 26.5604C20.9954 26.6538 21.1963 26.6781 21.3854 26.6283C21.5744 26.5786 21.7374 26.4585 21.841 26.2927C21.9389 26.1219 21.9656 25.9195 21.9155 25.7292C21.8655 25.5388 21.7425 25.3758 21.5732 25.2753C19.7884 24.49 18.8602 22.598 18.774 20.7239C18.6788 18.6118 19.6396 16.0802 21.9213 15.5834C22.4342 15.4703 22.9697 15.5228 23.4509 15.7334C23.932 15.944 24.3339 16.3019 24.5986 16.7555C25.0597 17.5974 26.3448 16.8477 25.8837 16.0059H25.8897Z" fill="#263238"/>
<path d="M19.6604 23.6868C19.4386 23.7614 19.226 23.8612 19.0268 23.9843C18.7145 24.2044 18.6074 24.5138 18.5628 24.5019C18.5181 24.49 18.5449 24.4097 18.5984 24.2788C18.6722 24.1111 18.7889 23.966 18.9367 23.8578C19.0845 23.7497 19.2582 23.6825 19.4403 23.663C19.5772 23.6422 19.6604 23.6689 19.6604 23.6868Z" fill="#455A64"/>
<path d="M18.7799 21.89C18.5531 21.8855 18.3271 21.9177 18.1105 21.9852C17.7595 22.125 17.6108 22.4165 17.5721 22.3987C17.5334 22.3808 17.5721 22.3035 17.6376 22.1845C17.7385 22.0324 17.8822 21.9134 18.0504 21.8425C18.2187 21.7716 18.4041 21.7519 18.5835 21.7859C18.7204 21.8305 18.7888 21.8721 18.7799 21.89Z" fill="#455A64"/>
<path d="M18.7769 19.7273C18.5744 19.6362 18.3644 19.5626 18.1493 19.5072C17.9277 19.4995 17.7059 19.5095 17.4859 19.5369C17.4859 19.5369 17.5364 19.4626 17.6614 19.409C17.8242 19.3464 18.0004 19.3269 18.1729 19.3524C18.3454 19.3779 18.5084 19.4477 18.646 19.5548C18.7502 19.6411 18.7888 19.7154 18.7769 19.7273Z" fill="#455A64"/>
<path d="M19.4135 17.3951C19.3778 17.4219 19.1785 17.1779 18.8186 17.0976C18.5983 17.0707 18.3755 17.0707 18.1552 17.0976C18.1552 17.0827 18.2087 17.0232 18.3337 16.9756C18.5017 16.9193 18.6823 16.9121 18.8543 16.9548C19.0269 16.9953 19.184 17.0853 19.3064 17.2136C19.4016 17.3029 19.4284 17.3832 19.4135 17.3951Z" fill="#455A64"/>
<path d="M21.1062 16.0207C21.0122 15.7995 20.8997 15.5865 20.7701 15.3841C20.5321 15.0866 20.2167 14.9498 20.2316 14.9081C20.2465 14.8665 20.6154 14.9349 20.892 15.2889C20.9845 15.3843 21.0523 15.5008 21.0896 15.6283C21.1269 15.7558 21.1326 15.8905 21.1062 16.0207Z" fill="#455A64"/>
<path d="M21.2133 37.469C21.2133 37.469 36.0873 79.2501 37.2058 81.1747C38.3243 83.0994 54.0075 78.3844 54.0075 78.3844C54.0075 78.3844 56.6074 61.074 57.6099 59.6104C58.6124 58.1468 64.1545 39.8518 64.1545 39.8518L21.2133 37.469Z" fill="#263238"/>
<path d="M62.2238 13.7182C62.7121 12.4555 62.9103 11.0992 62.8037 9.74963C62.6971 8.40003 62.2885 7.09165 61.6081 5.92128C60.2456 3.60688 57.7973 2.08974 55.1736 1.64054C53.6263 1.36895 52.0381 1.44517 50.524 1.86365C49.6047 2.12246 49.9944 3.55929 50.9196 3.30048C53.1779 2.65787 55.5989 2.93709 57.6516 4.0769C58.6277 4.63077 59.4632 5.4018 60.0936 6.33032C60.7239 7.25884 61.1322 8.31996 61.2868 9.43154C61.4603 10.7487 61.2892 12.0884 60.79 13.3196C60.7379 13.5101 60.7635 13.7135 60.8611 13.8852C60.9586 14.0569 61.1203 14.183 61.3106 14.2358C61.5005 14.2831 61.7014 14.2553 61.8714 14.1584C62.0415 14.0615 62.1677 13.9028 62.2238 13.7152V13.7182Z" fill="#263238"/>
<path d="M55.477 3.11902C55.4324 3.11902 55.5067 2.82154 55.4591 2.43779C55.4115 2.05405 55.2747 1.79821 55.3134 1.77442C55.3521 1.75062 55.5662 2.0124 55.6109 2.41995C55.6377 2.53942 55.6397 2.66314 55.6166 2.78341C55.5936 2.90368 55.5461 3.01792 55.477 3.11902Z" fill="#455A64"/>
<path d="M58.2049 2.87213C58.2466 2.87213 58.3269 3.18746 58.1454 3.53551C57.964 3.88356 57.6486 4.00256 57.6367 3.96388C57.6248 3.92521 57.8539 3.76457 58.0086 3.46412C58.1633 3.16366 58.1484 2.87808 58.2049 2.87213Z" fill="#455A64"/>
<path d="M60.7454 4.63915C60.7102 4.91712 60.587 5.17654 60.3938 5.37942C60.2005 5.5823 59.9474 5.71798 59.6715 5.7666C59.6536 5.72197 59.9868 5.58811 60.2813 5.27575C60.5758 4.9634 60.7007 4.62725 60.7454 4.63915Z" fill="#455A64"/>
<path d="M62.3488 7.94712C62.3815 7.9739 62.1673 8.21783 61.7925 8.28625C61.4177 8.35467 61.1291 8.20295 61.1499 8.16726C61.1707 8.13156 61.4474 8.19701 61.7627 8.13453C62.0781 8.07206 62.322 7.9144 62.3488 7.94712Z" fill="#455A64"/>
<path d="M63.0538 10.9338C62.9038 10.967 62.7484 10.9678 62.598 10.936C62.4477 10.9041 62.3059 10.8405 62.1822 10.7494C61.736 10.4846 61.5872 10.0711 61.617 10.0592C61.8165 10.263 62.0324 10.4501 62.2625 10.6185C62.5179 10.7435 62.7824 10.8489 63.0538 10.9338Z" fill="#455A64"/>
<path d="M22.4211 74.9395L36.7863 71.9142L36.4889 62.1687L51.6068 61.7314L51.2498 72.1432C51.2498 72.1432 68.2538 77.0279 67.9474 76.8196C67.6409 76.6114 56.5896 97.8247 56.5896 97.8247L38.4195 99.3329C38.4195 99.3329 23.9947 88.8616 23.9947 88.579C23.9947 88.2964 20.5737 79.4493 20.5737 79.4493L22.4211 74.9395Z" fill="#263238"/>
<g opacity="0.3">
<path opacity="0.3" d="M22.5787 74.9395L36.95 71.9142L36.6525 62.1687L51.7704 61.7314L51.4134 72.1432C51.4134 72.1432 68.4144 77.0279 68.111 76.8196C67.8075 76.6114 56.7532 97.8247 56.7532 97.8247L38.5831 99.3329C38.5831 99.3329 24.1375 88.8646 24.1375 88.582C24.1375 88.2994 20.7224 79.4493 20.7224 79.4493L22.5787 74.9395Z" fill="black"/>
</g>
<path d="M39.8415 62.1688H48.3078C48.7772 62.1688 49.2274 62.3552 49.5593 62.6872C49.8913 63.0191 50.0778 63.4693 50.0778 63.9388V71.0783C50.0778 72.601 49.4729 74.0613 48.3961 75.138C47.3194 76.2148 45.8591 76.8196 44.3364 76.8196H43.8128C43.0589 76.8196 42.3123 76.6711 41.6157 76.3826C40.9191 76.0941 40.2862 75.6712 39.7531 75.138C39.2199 74.6049 38.797 73.972 38.5085 73.2754C38.22 72.5788 38.0715 71.8322 38.0715 71.0783V63.9388C38.0715 63.4693 38.258 63.0191 38.5899 62.6872C38.9218 62.3552 39.372 62.1688 39.8415 62.1688Z" fill="#455A64"/>
<path d="M50.2324 70.0817C50.2278 70.1371 50.2178 70.1919 50.2027 70.2453C50.1693 70.4002 50.1276 70.5531 50.0777 70.7035C49.8937 71.2578 49.6291 71.782 49.2924 72.2593C48.7949 72.9708 48.1621 73.5773 47.4302 74.0441C46.5378 74.6375 45.5039 74.9835 44.4341 75.0467C43.3643 75.1099 42.2969 74.8882 41.3408 74.4041C40.5582 74.0244 39.8578 73.4948 39.2792 72.8453C38.888 72.4123 38.5641 71.9229 38.3184 71.3936C38.2503 71.2515 38.1907 71.1055 38.1399 70.9563C38.117 70.9051 38.101 70.8511 38.0923 70.7957C38.0923 70.7957 38.1875 71.0039 38.3719 71.3668C38.6365 71.8788 38.9698 72.3522 39.3625 72.7739C39.9414 73.3995 40.6339 73.9093 41.4032 74.2762C42.339 74.7438 43.3812 74.9573 44.4254 74.8952C45.4696 74.833 46.4792 74.4975 47.3528 73.9222C48.074 73.4679 48.702 72.8803 49.2032 72.1909C49.5429 71.7254 49.8181 71.216 50.0212 70.6767C50.1729 70.2989 50.2146 70.0788 50.2324 70.0817Z" fill="#263238"/>
<path d="M50.1105 68.8323C50.0993 68.8812 50.0812 68.9283 50.0569 68.9721C49.9995 69.1025 49.935 69.2296 49.8635 69.3529C49.6071 69.813 49.2921 70.238 48.9265 70.6172C48.3873 71.1864 47.7557 71.6601 47.0583 72.0183C46.2058 72.4688 45.2642 72.7253 44.301 72.7695C43.3378 72.8137 42.3767 72.6446 41.4865 72.2741C40.7597 71.9807 40.0878 71.5663 39.4993 71.0485C39.1021 70.7038 38.7502 70.3099 38.4522 69.8765C38.3694 69.7592 38.2939 69.637 38.2261 69.5106C38.1975 69.4702 38.1745 69.4262 38.1577 69.3797C38.5625 69.9637 39.037 70.4961 39.5707 70.9652C40.158 71.4627 40.8234 71.8598 41.5401 72.1403C42.4126 72.4965 43.3521 72.659 44.2936 72.6163C45.2351 72.5737 46.1561 72.327 46.9929 71.8934C47.6808 71.5469 48.3078 71.0908 48.8491 70.5428C49.3385 70.0268 49.7621 69.4523 50.1105 68.8323Z" fill="#263238"/>
<path d="M50.0183 67.0058C50.003 67.0533 49.9831 67.0991 49.9588 67.1426C49.9112 67.2259 49.8576 67.3598 49.7565 67.5145C49.4863 67.9598 49.1615 68.3695 48.7897 68.7342C47.8503 69.6993 46.64 70.3566 45.3189 70.619C43.9979 70.8814 42.6283 70.7366 41.3913 70.2037C40.6783 69.9027 40.0207 69.4844 39.4458 68.9662C39.057 68.619 38.7124 68.2254 38.4195 67.7941C38.3124 67.6454 38.25 67.5145 38.1994 67.4342C38.1724 67.3923 38.1505 67.3473 38.1339 67.3003C38.5299 67.8814 38.9943 68.4128 39.5172 68.8829C40.0926 69.3808 40.7445 69.7826 41.4479 70.0728C42.3068 70.431 43.2304 70.6083 44.1609 70.5934C45.0883 70.5601 45.9992 70.3384 46.8382 69.9419C47.5263 69.617 48.1579 69.1842 48.7093 68.6598C49.2106 68.1631 49.6501 67.6078 50.0183 67.0058Z" fill="#263238"/>
<path d="M50.1194 64.8431C50.1008 64.8869 50.0778 64.9288 50.051 64.9681C49.9974 65.0484 49.932 65.1703 49.8219 65.3131C49.5268 65.73 49.1855 66.1122 48.8045 66.4525C47.5437 67.5849 45.9326 68.2505 44.2402 68.3382C42.5477 68.4259 40.8764 67.9304 39.5053 66.9344C39.0919 66.6395 38.7127 66.2992 38.3749 65.92C38.2529 65.7891 38.1726 65.6731 38.1131 65.5987C38.0814 65.5626 38.0544 65.5226 38.0328 65.4797C38.1689 65.6054 38.298 65.7385 38.4195 65.8783C38.7704 66.2367 39.1549 66.5604 39.5678 66.8452C40.1791 67.2677 40.8484 67.5994 41.5549 67.8298C42.4174 68.1153 43.3248 68.2403 44.2323 68.1987C45.1394 68.1445 46.0293 67.9268 46.859 67.5561C47.9983 67.0449 48.9981 66.2675 49.7743 65.2893C49.8805 65.1339 49.9957 64.9849 50.1194 64.8431Z" fill="#263238"/>
<path d="M50.1194 62.6864C50.1008 62.7302 50.0778 62.772 50.051 62.8113C49.9974 62.8916 49.932 63.0136 49.8219 63.1564C49.5261 63.5691 49.1848 63.9473 48.8045 64.2838C47.5437 65.4162 45.9326 66.0819 44.2402 66.1696C42.5477 66.2573 40.8764 65.7618 39.5053 64.7658C39.0919 64.4708 38.7127 64.1306 38.3749 63.7514C38.2529 63.6205 38.1726 63.5044 38.1131 63.4301C38.0814 63.394 38.0544 63.354 38.0328 63.3111C38.1689 63.4368 38.298 63.5698 38.4195 63.7097C38.7704 64.068 39.1549 64.3918 39.5678 64.6765C40.1791 65.0991 40.8484 65.4308 41.5549 65.6612C42.4174 65.9466 43.3248 66.0716 44.2323 66.03C45.1394 65.9759 46.0293 65.7582 46.859 65.3875C47.9983 64.8762 48.9981 64.0988 49.7743 63.1207C49.8809 62.9694 49.9961 62.8244 50.1194 62.6864Z" fill="#263238"/>
<path d="M27.3235 38.8136C27.3414 41.7884 25.9016 44.5014 24.2149 46.8634C22.43 49.3652 20.2941 51.6231 18.7293 54.2826C16.0252 58.8905 14.9186 64.4653 16.3019 69.6831C17.1016 72.6189 18.6081 75.3142 20.6897 77.5336C21.3382 78.2356 22.3883 77.1825 21.7398 76.4805C20.0083 74.6447 18.7136 72.4417 17.9523 70.0357C17.191 67.6297 16.9828 65.0829 17.3431 62.5852C17.713 60.0249 18.5671 57.5585 19.8597 55.3178C21.362 52.6791 23.4295 50.4421 25.2144 48.0057C27.1748 45.3284 28.8198 42.2257 28.799 38.8285C28.799 37.8706 27.3116 37.8676 27.3116 38.8285L27.3235 38.8136Z" fill="#263238"/>
<path d="M18.4497 58.5455C18.321 58.6052 18.18 58.6334 18.0382 58.6277C17.8965 58.622 17.7581 58.5826 17.6346 58.5128C17.1914 58.3194 17.0218 57.9386 17.0605 57.9178C17.0992 57.897 17.3044 58.1915 17.6971 58.3581C17.9415 58.444 18.1935 58.5067 18.4497 58.5455Z" fill="#455A64"/>
<path d="M19.3778 56.4839C19.2351 56.5218 19.086 56.529 18.9404 56.5049C18.7947 56.4808 18.6558 56.426 18.533 56.3441C18.0927 56.1091 17.9202 55.7224 17.9589 55.7075C18.1623 55.8909 18.379 56.0589 18.6074 56.2102C18.8579 56.3182 19.1153 56.4096 19.3778 56.4839Z" fill="#455A64"/>
<path d="M20.425 54.4135C20.425 54.4343 20.3268 54.4492 20.1751 54.4135C19.9749 54.3698 19.7887 54.2767 19.6337 54.1428C19.4775 54.0117 19.3577 53.8427 19.2856 53.6519C19.2321 53.5062 19.2321 53.408 19.2499 53.405C19.2678 53.402 19.4016 53.7471 19.7348 54.0267C19.9496 54.1811 20.1812 54.3108 20.425 54.4135Z" fill="#455A64"/>
<path d="M22.2098 52.0455C22.2098 52.0634 22.1087 52.0723 21.951 52.0277C21.7489 51.9634 21.5659 51.85 21.4185 51.6975C21.2749 51.5441 21.1725 51.3568 21.1211 51.1531C21.0824 50.9984 21.0943 50.8972 21.1211 50.8943C21.2136 51.154 21.3604 51.391 21.5517 51.5895C21.743 51.7881 21.9745 51.9435 22.2307 52.0455H22.2098Z" fill="#455A64"/>
<path d="M24.075 49.7609C24.075 49.7817 23.965 49.7877 23.8014 49.743C23.5896 49.679 23.3959 49.5659 23.2361 49.4128C23.0755 49.2594 22.9541 49.0696 22.8821 48.8595C22.8286 48.6989 22.8316 48.5918 22.8494 48.5888C22.9865 48.8438 23.1521 49.0823 23.3432 49.2998C23.5676 49.4826 23.8133 49.6374 24.075 49.7609Z" fill="#455A64"/>
<path d="M17.5335 61.5322C17.5335 61.55 17.4591 61.6036 17.3074 61.6393C17.1103 61.6801 16.9062 61.673 16.7124 61.6185C16.5709 61.5917 16.4372 61.5335 16.3214 61.448C16.2055 61.3625 16.1104 61.252 16.0431 61.1246C16.2708 61.2571 16.5085 61.3715 16.7541 61.4667C17.0109 61.5155 17.2721 61.5375 17.5335 61.5322Z" fill="#455A64"/>
<path d="M17.1795 64.4742C16.9668 64.6322 16.702 64.7035 16.4387 64.6735C16.1737 64.6923 15.9115 64.6081 15.7069 64.4385C15.7248 64.3969 16.0401 64.5099 16.4417 64.5188C16.8433 64.5278 17.1527 64.4296 17.1795 64.4742Z" fill="#455A64"/>
<path d="M17.5602 68.1659C17.3408 68.3299 17.0796 68.4288 16.8066 68.4515C16.5336 68.4741 16.2598 68.4195 16.0163 68.2939C16.0163 68.2492 16.3703 68.3355 16.7927 68.2939C17.2152 68.2522 17.5394 68.1243 17.5602 68.1659Z" fill="#455A64"/>
<path d="M18.6401 71.8815C18.4707 72.0881 18.2295 72.223 17.9648 72.2593C17.7119 72.3446 17.4357 72.3286 17.1943 72.2146C17.1943 72.17 17.5364 72.2146 17.9291 72.1075C18.3218 72.0005 18.5984 71.8428 18.6401 71.8815Z" fill="#455A64"/>
<path d="M61.1529 42.8623C59.0706 47.6518 60.0314 53.0005 61.8609 57.7066C63.7826 62.6447 66.6057 67.2825 67.5755 72.5508C68.0842 75.3233 68.0128 78.2029 66.9597 80.8505C66.9093 81.0402 66.9352 81.2421 67.032 81.4129C67.1288 81.5836 67.2887 81.7096 67.4773 81.7638C67.6677 81.8119 67.8693 81.7845 68.04 81.6875C68.2108 81.5905 68.3374 81.4313 68.3936 81.2432C70.3391 76.3734 69.1075 70.9325 67.2036 66.2532C65.2433 61.4221 62.5124 56.8171 61.6705 51.6023C61.2451 48.9488 61.3492 46.1049 62.4321 43.612C62.5257 43.4406 62.5504 43.2399 62.5012 43.0509C62.452 42.8618 62.3326 42.6987 62.1673 42.5946C61.9965 42.4967 61.7941 42.47 61.6038 42.52C61.4134 42.5701 61.2504 42.6931 61.1499 42.8623H61.1529Z" fill="#263238"/>
<path d="M66.3826 64.0875C66.4005 64.0875 66.3826 64.2005 66.2785 64.3404C66.1451 64.5223 65.9593 64.6593 65.746 64.733C65.5316 64.8043 65.3 64.8043 65.0856 64.733C64.922 64.6795 64.8446 64.6021 64.8536 64.5873C65.13 64.6562 65.419 64.6562 65.6954 64.5873C65.9574 64.4714 66.1916 64.301 66.3826 64.0875Z" fill="#455A64"/>
<path d="M64.6096 60.3452C64.6275 60.3452 64.6096 60.4493 64.5055 60.5713C64.3757 60.7274 64.2055 60.8449 64.0136 60.911C63.8216 60.9771 63.6152 60.9892 63.4167 60.9461C63.265 60.9074 63.1877 60.848 63.1966 60.8301C63.4539 60.8719 63.7174 60.8495 63.9639 60.7649C64.2105 60.6803 64.4323 60.5361 64.6096 60.3452Z" fill="#455A64"/>
<path d="M62.8575 56.0407C62.8902 56.0615 62.6701 56.3858 62.2358 56.5642C62.1118 56.6305 61.9747 56.6686 61.8344 56.6758C61.694 56.683 61.5537 56.6591 61.4236 56.6059C61.6776 56.5576 61.9288 56.496 62.1763 56.4214C62.5689 56.2727 62.8218 56.0169 62.8575 56.0407Z" fill="#455A64"/>
<path d="M61.7747 52.0277C61.8133 52.0425 61.6676 52.3995 61.3017 52.6851C61.0993 52.8751 60.8325 52.9814 60.555 52.9826C60.5401 52.9409 60.8733 52.819 61.2065 52.5542C61.5396 52.2894 61.7479 52.0068 61.7747 52.0277Z" fill="#455A64"/>
<path d="M68.0902 68.8323C68.1199 68.8591 67.9027 69.1 67.5279 69.1982C67.4205 69.2414 67.3049 69.2606 67.1893 69.2544C67.0737 69.2483 66.9608 69.2169 66.8586 69.1625C66.8586 69.1179 67.1561 69.1417 67.4892 69.0495C67.8224 68.9572 68.0604 68.7847 68.0902 68.8323Z" fill="#455A64"/>
<path d="M69.3277 73.8329C69.1082 74.0069 68.8441 74.1154 68.5657 74.146C68.2873 74.1765 68.0059 74.1278 67.754 74.0055C67.754 73.9609 68.1199 74.0442 68.5483 74.0055C68.9766 73.9668 69.3068 73.7943 69.3277 73.8329Z" fill="#455A64"/>
<path d="M60.8971 9.43452C57.2649 3.50278 50.5507 0.129355 44.378 0.00441317C38.2053 -0.120528 31.8988 2.41102 27.1778 7.14393L31.2324 11.5437L57.5118 12.0137L60.8971 9.43452Z" fill="#263238"/>
<path d="M27.4544 6.8643C27.4544 6.8643 21.1776 11.7132 22.5876 21.2772C23.4801 27.325 33.3356 21.0719 33.3356 21.0719L36.3104 10.0652L27.4544 6.8643Z" fill="#263238"/>
<path d="M59.4811 7.7597C59.4811 7.7597 64.9339 13.2095 64.2408 19.287C63.5476 25.3646 53.3084 21.185 53.3084 21.185L50.3336 10.1782L59.4811 7.7597Z" fill="#263238"/>
<path d="M37.0838 60.1489C36.5275 64.1292 36.0605 68.1154 36.6971 72.1165C36.9414 73.8719 37.5125 75.5661 38.3808 77.1112C39.0003 78.1662 39.7249 79.1559 40.5435 80.0652C41.7908 81.3832 43.1192 82.6221 44.5208 83.7747C44.8837 84.0722 45.4133 83.5605 45.0474 83.2482C42.9323 81.4365 40.8053 79.61 39.309 77.2272C37.4527 74.2702 37.0362 70.6826 37.1046 67.2586C37.1948 64.9437 37.4223 62.6362 37.7859 60.3482C37.8513 59.8811 37.1344 59.6789 37.0689 60.1489H37.0838Z" fill="#263238"/>
<path d="M50.402 60.3482C50.9434 64.2154 51.4134 68.1451 50.7679 72.0421C50.5252 73.7402 49.9619 75.3766 49.108 76.8643C48.5137 77.8723 47.8158 78.8154 47.0256 79.6784C45.8065 80.9419 44.5152 82.1338 43.1584 83.2482C42.7954 83.5605 43.322 84.0841 43.6849 83.7747C45.8773 81.8976 48.046 80.0027 49.5839 77.5276C51.4789 74.4874 51.9132 70.7748 51.8478 67.2557C51.7521 64.8737 51.5146 62.4996 51.1368 60.1459C51.0713 59.6759 50.3544 59.8752 50.4199 60.3452L50.402 60.3482Z" fill="#263238"/>
<path d="M27.1451 84.6969C28.5962 83.6772 29.7246 82.2629 30.3965 80.6215C30.9648 79.1588 31.2845 77.6114 31.3425 76.0432C31.4258 74.6391 31.396 73.2201 31.3693 71.8131C31.3187 69.2845 31.0718 66.7559 31.3693 64.2184C31.6429 61.8653 32.4342 59.4825 34.121 57.7631C34.4541 57.421 33.9306 56.8945 33.5944 57.2366C30.3221 60.5654 30.3965 65.5065 30.5631 69.8408C30.6315 71.5394 30.6672 73.241 30.6404 74.9426C30.6495 76.4274 30.4563 77.9066 30.0663 79.3393C29.5341 81.2385 28.3731 82.9009 26.7732 84.0544C26.3835 84.3281 26.7554 84.9736 27.148 84.6969H27.1451Z" fill="#263238"/>
<path d="M61.3939 74.9872C61.2005 72.8691 61.0131 70.7391 60.6413 68.6449C60.3808 67.399 60.0023 66.1808 59.5108 65.0067C58.9159 63.4479 58.2555 61.9099 57.7498 60.3155C57.1756 58.4949 56.8127 56.6148 56.9882 54.702C57.0537 53.9881 55.9381 53.991 55.8727 54.702C55.5603 58.1141 56.8752 61.3418 58.1038 64.4504C58.6154 65.7504 59.1806 67.0742 59.4692 68.4486C59.6893 69.4927 59.8143 70.5547 59.9362 71.6137C60.0671 72.7352 60.1742 73.8627 60.2783 74.9872C60.3438 75.6952 61.4683 75.7041 61.3939 74.9872Z" fill="#263238"/>
<path d="M61.022 84.0544C58.2287 82.5015 57.3452 78.9764 56.9941 76.0224C56.8232 74.4754 56.7368 72.9203 56.7353 71.3639C56.7115 68.8948 56.7859 66.4019 56.3099 63.9655C55.8637 61.672 54.9058 59.4171 53.1775 57.7988C52.8294 57.4716 52.285 57.9951 52.6509 58.3224C56.1939 61.6452 55.947 66.9136 55.9916 71.3639C56.0214 74.4458 56.1612 77.7121 57.3273 80.6036C57.9996 82.2725 59.0467 83.7985 60.6472 84.688C61.0666 84.92 61.4415 84.2775 61.022 84.0454V84.0544Z" fill="#263238"/>
<path d="M55.7209 57.1176C55.7209 57.1176 54.302 63.6621 54.4269 66.5893C54.5518 69.5165 54.6887 72.7561 54.6887 72.7561L51.4164 72.8959C51.4164 72.8959 52.3505 66.857 52.8056 63.9536C53.1476 61.8818 53.6256 59.8346 54.2365 57.8256" fill="#455A64"/>
<path d="M31.045 56.6654C31.045 56.6654 32.7377 63.1386 32.7377 66.0747V72.2474H36.01C36.01 72.2474 34.82 66.2532 34.2459 63.3736C33.8124 61.3172 33.246 59.291 32.5503 57.308" fill="#455A64"/>
<path d="M36.8072 1.70897C36.8596 1.81951 36.9004 1.93514 36.9292 2.05404C37.0095 2.30988 37.1076 2.62818 37.2266 3.00598C37.4735 3.80918 37.8216 4.9158 38.241 6.12654C38.6605 7.33729 39.071 8.42606 39.3744 9.20843L39.7314 10.1366C39.7816 10.2484 39.8205 10.365 39.8474 10.4846C39.776 10.3845 39.718 10.2755 39.6749 10.1604C39.5738 9.94916 39.4369 9.6368 39.2733 9.25008C38.9431 8.47366 38.5147 7.39381 38.0834 6.17711C37.652 4.96042 37.3308 3.84785 37.1106 3.03573C37.0005 2.63116 36.9143 2.30095 36.8637 2.06892C36.8297 1.95181 36.8107 1.83086 36.8072 1.70897Z" fill="#455A64"/>
<path d="M50.0183 1.39068C50.0599 1.39068 49.4055 3.47304 48.5547 6.01351C47.7039 8.55399 46.9869 10.6007 46.9453 10.5888C46.9036 10.5769 47.5611 8.50639 48.4089 5.96592C49.2567 3.42544 49.9796 1.37878 50.0183 1.39068Z" fill="#455A64"/>
<path d="M67.6796 25.7989C68.8356 28.2665 69.234 31.0214 68.8248 33.7154C68.4155 36.4094 67.2168 38.9217 65.3801 40.9347L67.6796 25.7989Z" fill="#E0E0E0"/>
<path d="M61.3476 43.056L60.9516 43.0107C59.7978 42.8786 58.7437 42.2936 58.0212 41.3843C57.2987 40.475 56.967 39.316 57.0991 38.1622L58.5372 25.5984C58.6693 24.4445 59.2543 23.3904 60.1636 22.668C61.0729 21.9455 62.2319 21.6138 63.3857 21.7459L63.7817 21.7912C64.9348 21.9232 65.9882 22.5078 66.7102 23.4164C67.4322 24.3251 67.7636 25.4833 67.6316 26.6364L66.1932 39.2032C66.1278 39.7745 65.9505 40.3273 65.6714 40.8301C65.3924 41.3329 65.017 41.7758 64.5668 42.1336C64.1166 42.4913 63.6003 42.7569 63.0475 42.9151C62.4946 43.0733 61.916 43.1211 61.3447 43.0557L61.3476 43.056Z" fill="#C8FF82"/>
<path d="M67.8164 37.1329C67.7811 37.0261 67.7601 36.915 67.754 36.8027C67.7213 36.5855 67.6885 36.2732 67.6618 35.8835C67.5279 33.8548 67.7433 31.8183 68.2984 29.8625C68.4055 29.4876 68.5007 29.1872 68.578 28.97C68.6105 28.8663 68.6544 28.7666 68.7089 28.6725C68.7327 28.6725 68.5899 29.1396 68.4114 29.8892C67.9206 31.8478 67.7083 33.8657 67.7808 35.8835C67.7956 36.6539 67.8402 37.1329 67.8164 37.1329Z" fill="#263238"/>
<path d="M67.9147 33.218C67.8879 33.2537 67.6975 33.1526 67.4446 33.1139C67.1918 33.0752 66.9806 33.1139 66.9687 33.0604C66.9568 33.0068 67.1769 32.9116 67.4714 32.9622C67.7659 33.0128 67.9444 33.1883 67.9147 33.218Z" fill="#263238"/>
<path d="M19.1101 25.6561C17.9907 28.1409 17.6335 30.9019 18.0836 33.5897C18.5337 36.2776 19.7709 38.7716 21.6387 40.7562L19.1101 25.6561Z" fill="#E0E0E0"/>
<path d="M22.9493 21.5955L23.3446 21.5441C23.9145 21.4699 24.4934 21.5088 25.0482 21.6584C25.603 21.808 26.123 22.0654 26.5783 22.416C27.0337 22.7665 27.4155 23.2033 27.7021 23.7014C27.9886 24.1995 28.1743 24.7492 28.2484 25.3191L29.8793 37.8593C30.0291 39.011 29.7152 40.175 29.0068 41.0952C28.2984 42.0155 27.2534 42.6166 26.1017 42.7664L25.7064 42.8178C25.1366 42.8919 24.5577 42.8531 24.0028 42.7035C23.448 42.5539 22.9281 42.2965 22.4727 41.9459C22.0174 41.5954 21.6355 41.1586 21.349 40.6604C21.0624 40.1623 20.8768 39.6127 20.8027 39.0428L19.1714 26.4996C19.0216 25.3479 19.3354 24.1839 20.0439 23.2637C20.7523 22.3434 21.7973 21.7423 22.949 21.5925L22.9493 21.5955Z" fill="#C8FF82"/>
<path d="M27.5139 73.592C27.5556 72.4943 27.5942 71.3936 27.6567 70.2989C27.6906 69.1552 27.8099 68.0157 28.0137 66.8898C28.3451 65.5557 28.7808 64.2497 29.3166 62.9839C29.8139 61.7025 30.2117 60.3847 30.5066 59.0423C30.8732 57.4309 30.9578 55.7682 30.7564 54.1279C30.7168 53.9859 30.6227 53.8652 30.4945 53.7922C30.3664 53.7192 30.2146 53.6998 30.0722 53.7382C29.9317 53.7811 29.8129 53.8763 29.7404 54.0041C29.6679 54.132 29.6472 54.2827 29.6825 54.4254C30.0544 57.2068 29.2333 60.0477 28.2517 62.6239C27.7372 63.853 27.3088 65.1164 26.9695 66.4049C26.7386 67.5542 26.5993 68.72 26.553 69.8913C26.4757 71.1259 26.4341 72.3604 26.3865 73.5979C26.3627 74.3149 27.4782 74.3149 27.502 73.5979L27.5139 73.592Z" fill="#263238"/>
<path d="M27.9929 10.4608H39.6719C39.8535 10.4609 40.0329 10.4224 40.1985 10.3478L40.2996 10.3002C41.273 9.85512 42.3318 9.62798 43.4021 9.63466C44.4724 9.64134 45.5283 9.88168 46.4961 10.3389C46.6653 10.4191 46.8502 10.4608 47.0375 10.4608H58.9367C59.1787 10.4574 59.4161 10.5268 59.6182 10.6599C59.8203 10.793 59.9777 10.9838 60.0701 11.2075L64.2348 21.7413C64.2856 21.8701 64.3119 22.0073 64.3122 22.1458V30.1183C64.3122 30.1183 62.2804 44.6948 60.8465 49.4545C59.4127 54.2141 53.5523 60.964 50.0897 62.7845C46.627 64.6051 40.9422 64.4504 36.7417 62.1628C32.8329 60.0329 27.7549 55.9336 25.6041 48.7762C23.4533 41.6189 22.4151 30.1123 22.4151 30.1123L22.3705 22.0447C22.3689 21.8945 22.3982 21.7457 22.4568 21.6074L26.8833 11.1778C26.9786 10.9634 27.1343 10.7815 27.3313 10.6541C27.5284 10.5268 27.7583 10.4596 27.9929 10.4608Z" fill="#E0E0E0"/>
<path d="M64.3002 28.2947H64.0742H63.3959C62.7801 26.852 61.373 23.5648 59.4097 18.9777V18.9539C59.4097 18.6296 59.4097 18.2994 59.4097 17.9633C59.418 17.6216 59.404 17.2798 59.368 16.9399C59.2234 15.8028 58.7078 14.7452 57.9011 13.9309C57.0943 13.1167 56.0415 12.5912 54.9058 12.4361C54.491 12.3901 54.0735 12.3742 53.6564 12.3885H50.3841C50.165 12.3832 49.9458 12.3991 49.7297 12.4361C49.2921 12.5224 48.8881 12.7317 48.5651 13.0394C48.2422 13.3471 48.0136 13.7404 47.9061 14.1734C47.8509 14.394 47.8269 14.6213 47.8347 14.8486V17.0232L47.7931 17.0708L45.5828 18.3351H45.565H41.5639H41.549L39.1007 17.1452L39.0561 17.1244V14.8546C39.0651 14.618 39.039 14.3815 38.9788 14.1525C38.8598 13.7023 38.6091 13.2978 38.2588 12.9909C37.9084 12.684 37.4744 12.4888 37.0124 12.4301C36.783 12.4096 36.5525 12.4027 36.3223 12.4093H30.9528C30.7429 12.4031 30.5329 12.415 30.3251 12.445C29.9206 12.5107 29.5339 12.6585 29.1887 12.8793C28.8567 13.092 28.5703 13.3684 28.3461 13.6927C28.1219 14.017 27.9644 14.3826 27.8828 14.7683C27.8199 15.1426 27.7969 15.5226 27.8143 15.9017V17.0202C27.8143 17.752 27.8143 18.4571 27.8143 19.1353V19.1532L23.7508 28.3126H22.7483C22.5311 28.3126 22.43 28.3126 22.43 28.3126C22.43 28.3126 22.5311 28.3126 22.7483 28.3126H23.7508H23.7329L27.7281 19.1234V19.1443C27.7281 18.466 27.7281 17.761 27.7281 17.0292V15.8809C27.7078 15.4931 27.7287 15.1042 27.7905 14.7207C27.9194 14.1051 28.2321 13.5431 28.6874 13.1092C29.1426 12.6752 29.7189 12.3896 30.3399 12.2903C30.5544 12.2571 30.7715 12.2432 30.9885 12.2487H36.358C36.5952 12.2409 36.8326 12.2479 37.0689 12.2695C37.5588 12.3336 38.0185 12.5421 38.3893 12.8684C38.7602 13.1948 39.0255 13.6242 39.1513 14.102C39.214 14.3437 39.243 14.593 39.2376 14.8427V17.0708L39.1929 16.9994L41.6442 18.1893H41.6085H45.562H45.5233L47.7366 16.9251L47.6979 16.9905V14.8605C47.6909 14.6211 47.7169 14.3819 47.7752 14.1496C47.8899 13.6893 48.1331 13.2712 48.4766 12.9441C48.82 12.6169 49.2495 12.3943 49.7148 12.3022C49.9406 12.2629 50.1699 12.247 50.399 12.2546H53.6713C54.0945 12.2411 54.518 12.259 54.9385 12.3082C56.1028 12.4667 57.1816 13.0068 58.0062 13.8438C58.8308 14.6808 59.3547 15.7675 59.4959 16.934C59.5333 17.2787 59.5472 17.6256 59.5376 17.9722C59.5376 18.3083 59.5376 18.6385 59.5376 18.9628V18.942C61.4653 23.547 62.8456 26.843 63.4524 28.2888H63.4375H64.1158L64.3002 28.2947Z" fill="#263238"/>
<path d="M41.9476 15.753H44.5208C44.651 15.753 44.7759 15.8047 44.8679 15.8968C44.96 15.9888 45.0117 16.1137 45.0117 16.2438V18.2607H41.4419V16.2528C41.4407 16.1863 41.453 16.1202 41.478 16.0587C41.5031 15.9971 41.5404 15.9412 41.5877 15.8945C41.6349 15.8477 41.6912 15.8111 41.7531 15.7868C41.815 15.7625 41.8812 15.751 41.9476 15.753Z" fill="#263238"/>
<path d="M42.9412 34.1194C42.886 34.1404 42.8293 34.1573 42.7716 34.17L42.2778 34.2949C42.0607 34.3425 41.7959 34.4228 41.4895 34.5121C41.1831 34.6013 40.835 34.7173 40.4453 34.8452C39.5287 35.1701 38.6343 35.5547 37.768 35.9965C36.665 36.5506 35.6205 37.2143 34.6504 37.9777H34.6356C33.2387 38.3369 31.8056 38.5365 30.3638 38.5727C29.4357 38.6001 28.5155 38.3956 27.6864 37.9777C26.9216 37.5772 26.2661 36.9962 25.7766 36.285C25.7171 36.1988 25.6636 36.1125 25.61 36.0292C25.5565 35.9459 25.5148 35.8448 25.4702 35.7526C25.3988 35.5651 25.3215 35.3837 25.2649 35.1992C25.143 34.8333 25.0448 34.4734 24.9496 34.1224C24.7652 33.4263 24.6164 32.7688 24.4826 32.1709C24.2208 30.981 24.0334 29.9993 23.9084 29.324L23.7746 28.5446C23.7597 28.4643 23.7508 28.3959 23.7418 28.3423C23.7374 28.3187 23.7374 28.2945 23.7418 28.2709C23.7515 28.2928 23.7585 28.3158 23.7627 28.3394L23.8073 28.5387C23.846 28.7291 23.9025 28.9879 23.9709 29.3121C24.1137 29.9814 24.316 30.9542 24.5926 32.1471C24.7325 32.7421 24.8901 33.3965 25.0775 34.0896C25.1727 34.4377 25.2739 34.7947 25.3988 35.1546C25.4524 35.3391 25.5327 35.5146 25.6011 35.696C25.6427 35.7823 25.6874 35.8686 25.732 35.9548C25.7766 36.0411 25.8391 36.1214 25.8956 36.2017C26.3752 36.8913 27.0154 37.4538 27.7608 37.8409C28.5686 38.2441 29.4645 38.4384 30.3667 38.4061C31.7965 38.3663 33.2174 38.1667 34.6028 37.8111L34.5731 37.826C35.5547 37.0595 36.6124 36.3956 37.7293 35.8448C38.6034 35.4074 39.507 35.0317 40.4334 34.7203C40.8261 34.5954 41.1742 34.4793 41.4895 34.405C41.8048 34.3306 42.0636 34.2503 42.2838 34.2086L42.7835 34.1075C42.8363 34.1068 42.8891 34.1108 42.9412 34.1194Z" fill="white"/>
<path d="M42.9412 34.1194C43.0085 34.1122 43.0763 34.1122 43.1435 34.1194L43.7385 34.1432C44.4666 34.1927 45.1897 34.2991 45.9012 34.4615C48.3505 35.0592 50.6243 36.2262 52.5379 37.8677L52.5082 37.8498C53.6971 38.1486 54.911 38.3378 56.1345 38.415C56.6122 38.4449 57.0915 38.4389 57.5683 38.3972C58.235 38.3298 58.8813 38.1291 59.469 37.8072C60.0566 37.4853 60.5736 37.0486 60.9893 36.523C61.1208 36.3633 61.242 36.1954 61.3522 36.0203C61.4526 35.8488 61.5373 35.6686 61.6051 35.4819C61.7449 35.11 61.855 34.7382 61.9591 34.3752C62.1644 33.6524 62.328 32.9711 62.4767 32.3494C62.7742 31.1 62.9795 30.0856 63.1282 29.3746C63.1996 29.0325 63.2561 28.7796 63.3007 28.5655L63.3454 28.3572C63.3492 28.3323 63.3572 28.3081 63.3692 28.2858C63.3706 28.3106 63.3706 28.3354 63.3692 28.3602C63.3692 28.4167 63.3483 28.4881 63.3364 28.5714C63.3007 28.7707 63.2531 29.0414 63.1936 29.3865C63.0628 30.0915 62.8664 31.1089 62.5987 32.3613C62.4559 32.986 62.3012 33.6702 62.0989 34.399C61.9948 34.762 61.8877 35.1398 61.7449 35.5176C61.6745 35.7229 61.5848 35.9211 61.4772 36.1095C61.364 36.2879 61.2409 36.4597 61.1083 36.6242C60.5479 37.3339 59.8116 37.8846 58.9724 38.2217C58.5298 38.3968 58.0655 38.5109 57.5921 38.5608C57.1065 38.6049 56.6182 38.6119 56.1315 38.5816C54.8976 38.5046 53.6736 38.3124 52.4754 38.0075H52.4576H52.4427C51.8996 37.5284 51.3198 37.0927 50.7084 36.7045C50.1514 36.3431 49.5732 36.0153 48.9771 35.7228C47.9867 35.2401 46.9502 34.8584 45.8833 34.5835C45.1778 34.4126 44.4611 34.2924 43.7385 34.2235L43.1584 34.1759C43.0847 34.1624 43.0121 34.1435 42.9412 34.1194Z" fill="white"/>
<path d="M30.3518 57.2812C30.3909 57.2608 30.4317 57.2438 30.4738 57.2306L30.8338 57.1027L32.2022 56.6446L32.1695 56.6892C32.0594 55.7373 31.9136 54.4879 31.7441 53.0391C31.7024 52.6762 31.6608 52.2984 31.6161 51.9087C31.5715 51.519 31.512 51.1263 31.4287 50.7188C31.28 49.9126 31.0747 49.0737 30.8546 48.214C30.1139 45.3969 29.2988 42.8861 28.7068 41.0745L27.9988 38.9297C27.9185 38.6857 27.856 38.4924 27.8084 38.3347C27.7807 38.2678 27.7607 38.1979 27.7489 38.1265C27.7838 38.189 27.8127 38.2548 27.8352 38.3228C27.8917 38.4715 27.9631 38.6619 28.0553 38.8999C28.2397 39.3997 28.5015 40.1285 28.8109 41.0299C29.4297 42.8385 30.2626 45.3463 31.0033 48.1694C31.2264 49.0321 31.4287 49.871 31.5745 50.6861C31.6608 51.0906 31.7054 51.4952 31.7589 51.876C31.8125 52.2568 31.8422 52.6405 31.8809 53.0064C32.0326 54.4581 32.1605 55.7105 32.2587 56.6654V56.7011H32.223L30.8427 57.1176L30.4768 57.2217C30.4377 57.2466 30.3958 57.2666 30.3518 57.2812Z" fill="#263238"/>
<path d="M56.6758 57.5281C56.6322 57.5229 56.5893 57.5129 56.5479 57.4983L56.1791 57.3942L54.8017 56.9777H54.766V56.9331C54.8672 55.9633 55.001 54.6901 55.1527 53.2086C55.1944 52.8368 55.2331 52.4501 55.2777 52.0544C55.3223 51.6588 55.3848 51.2453 55.471 50.8348C55.6168 50.0018 55.8251 49.1451 56.0422 48.2616C56.777 45.3909 57.5861 42.8326 58.187 40.9882C58.4845 40.066 58.7433 39.3223 58.9218 38.8106L59.136 38.2157C59.1583 38.1471 59.1861 38.0804 59.2193 38.0164C59.2076 38.0882 59.1897 38.1589 59.1658 38.2276C59.1182 38.3763 59.0557 38.5756 58.9813 38.8225C58.8117 39.358 58.5797 40.1017 58.2912 41.015C57.717 42.8683 56.9257 45.4296 56.1939 48.2943C55.9768 49.1867 55.7685 50.0286 55.6168 50.8556C55.5305 51.2661 55.483 51.6707 55.4205 52.0634C55.358 52.456 55.3312 52.8457 55.2896 53.2176L54.8582 56.9331L54.8285 56.8885L56.1939 57.3466L56.5539 57.4745C56.5967 57.4871 56.6376 57.5051 56.6758 57.5281Z" fill="#263238"/>
<path d="M34.6029 37.9212C34.6522 38.0305 34.6882 38.1453 34.71 38.2633C34.7665 38.4894 34.8379 38.8166 34.9003 39.2271C34.9787 39.7108 35.0017 40.2018 34.9688 40.6907C34.9552 40.9937 34.8516 41.2857 34.6713 41.5296C34.4277 41.7373 34.1412 41.8887 33.8324 41.9729C33.2612 42.146 32.6773 42.2743 32.0862 42.3566C31.5418 42.4369 31.051 42.4875 30.6404 42.5262C30.2299 42.5648 29.8938 42.5886 29.6647 42.6035C29.5448 42.6109 29.4246 42.6109 29.3047 42.6035C29.7398 42.5008 30.1825 42.4341 30.6285 42.4042C31.0391 42.3506 31.521 42.2882 32.0624 42.1989C32.6442 42.1123 33.2189 41.9831 33.7818 41.8122C34.0672 41.7352 34.3329 41.5983 34.5612 41.4106C34.7175 41.1904 34.8082 40.9305 34.823 40.661C34.862 40.1831 34.85 39.7024 34.7873 39.2271C34.7427 38.8196 34.6862 38.4894 34.6505 38.2633C34.6255 38.1507 34.6096 38.0363 34.6029 37.9212Z" fill="white"/>
<path d="M52.6658 38.0104C52.6633 38.1248 52.6484 38.2385 52.6212 38.3496C52.5855 38.5637 52.5319 38.8761 52.4873 39.2658C52.4268 39.7173 52.4089 40.1734 52.4338 40.6283C52.441 40.8897 52.5017 41.1468 52.6123 41.3839C52.7726 41.6079 53.0045 41.7705 53.2697 41.845C53.7962 42.0292 54.3391 42.1627 54.8909 42.2436C55.3996 42.3269 55.8637 42.3834 56.2534 42.428C56.6774 42.4515 57.0984 42.5122 57.5118 42.6095C57.3979 42.6173 57.2835 42.6173 57.1696 42.6095C56.9525 42.6095 56.6342 42.5797 56.2415 42.547C55.8488 42.5143 55.3848 42.4697 54.8672 42.3923C54.3038 42.3189 53.7495 42.1873 53.2132 41.9996C53.0692 41.9455 52.9308 41.8778 52.7997 41.7974C52.6643 41.7175 52.5533 41.6023 52.4784 41.4642C52.3596 41.2075 52.2957 40.9289 52.291 40.6461C52.2731 40.1822 52.303 39.7176 52.3802 39.2599C52.4397 38.8702 52.5081 38.5578 52.5617 38.3436C52.5832 38.2289 52.6181 38.117 52.6658 38.0104Z" fill="white"/>
<path d="M54.8136 56.2549C54.8016 56.3331 54.7817 56.4098 54.7541 56.4839L54.5459 57.1503C53.7873 57.7274 52.4368 58.7418 50.6787 59.9912C50.2354 60.2887 49.7713 60.6278 49.2716 60.9551C49.0247 61.1157 48.7659 61.2793 48.4981 61.437C48.3583 61.5084 48.2185 61.5857 48.0757 61.6541C47.9329 61.7226 47.7782 61.785 47.6325 61.8416C46.3451 62.2983 44.9939 62.5493 43.6284 62.5853H43.4201V62.4306H43.4648C43.4648 62.2937 43.4648 62.618 43.4648 62.5853H43.2536H42.9977C42.8282 62.5853 42.6586 62.5674 42.492 62.5555C42.1559 62.5317 41.8227 62.496 41.4984 62.4425C40.8621 62.3479 40.2371 62.1884 39.6332 61.9665C39.0724 61.7457 38.5369 61.4654 38.0358 61.1306C37.5479 60.8331 37.0868 60.5207 36.6495 60.2381C34.9033 59.075 33.5408 58.1201 32.7317 57.5608L32.3241 56.8647C32.2884 56.7933 32.2557 56.7368 32.2319 56.6892L32.2022 56.6297C32.2022 56.6297 32.22 56.6297 32.2438 56.6833C32.2676 56.7368 32.3093 56.7814 32.3509 56.8498C32.4521 57.0075 32.5859 57.2247 32.7555 57.4983C33.5795 58.0487 34.9539 58.9857 36.706 60.134C37.1463 60.4216 37.6104 60.7191 38.0982 61.0265C38.5917 61.3553 39.1193 61.6295 39.6719 61.8445C40.2679 62.0588 40.8838 62.2132 41.5103 62.3056C41.8316 62.3562 42.1588 62.3949 42.492 62.4187C42.6556 62.4187 42.8252 62.4395 42.9918 62.4454H43.2446H43.4529C43.4529 62.4127 43.4529 62.7429 43.4529 62.6001H43.4082V62.4454H43.6105C44.9588 62.4134 46.2938 62.1704 47.567 61.7255C47.7157 61.672 47.8645 61.6036 48.0013 61.5441C48.1382 61.4846 48.278 61.4043 48.4148 61.3358C48.6796 61.1841 48.9354 61.0384 49.1853 60.8599C49.6821 60.5386 50.1491 60.2143 50.5954 59.9109C52.3654 58.6764 53.7278 57.6828 54.5042 57.1265V57.1414C54.6054 56.8617 54.6827 56.6446 54.7393 56.4839C54.7601 56.4064 54.7849 56.3299 54.8136 56.2549Z" fill="#263238"/>
<path d="M46.1034 43.3859C46.1034 43.4454 45.8059 43.4424 45.3538 43.609C45.1188 43.6893 44.8421 43.8113 44.503 43.9541C44.1021 44.138 43.6723 44.2507 43.2327 44.2873H43.0334C42.9561 44.2873 42.8906 44.2694 42.8282 44.2605C42.7032 44.2397 42.5783 44.2129 42.4533 44.1861C42.1876 44.1276 41.9254 44.0541 41.668 43.966C41.5952 43.9408 41.5237 43.912 41.4538 43.8797C41.4181 43.8648 41.3765 43.841 41.3318 43.8172C41.2787 43.7847 41.2297 43.7458 41.1861 43.7012C41.0442 43.5593 40.9417 43.383 40.8886 43.1896C40.8416 43.0122 40.8235 42.8283 40.8351 42.6452C40.8529 42.4518 40.8767 42.3298 40.8975 42.1722C41.0701 40.9823 41.2694 39.6644 41.4925 38.2871C41.9268 35.5324 42.3463 33.0425 42.6824 31.2457C43.0186 29.449 43.2506 28.3394 43.3547 28.3513C43.5808 28.381 43.1405 32.8938 42.263 38.4061C42.0488 39.7864 41.8286 41.0834 41.6174 42.2733C41.5494 42.5119 41.5301 42.7619 41.5609 43.0081C41.5783 43.0908 41.615 43.1683 41.668 43.2342C41.6859 43.2133 41.4925 43.4097 41.5817 43.3204L41.6323 43.2699L41.6531 43.2461L41.7126 43.2788L41.8703 43.3532C42.0964 43.4454 42.3403 43.5227 42.5723 43.5911C42.6884 43.6268 42.8014 43.6566 42.9085 43.6834L43.0572 43.7131H43.203C43.5866 43.7055 43.9668 43.6393 44.3304 43.5168C44.632 43.423 44.939 43.3475 45.2497 43.2907C45.8149 43.2282 46.1153 43.3413 46.1034 43.3859Z" fill="#263238"/>
<path d="M46.9185 51.3227C46.8757 51.4102 46.8195 51.4905 46.7519 51.5607C46.5798 51.7651 46.3863 51.9506 46.1748 52.114C45.4736 52.6673 44.6165 52.9867 43.7243 53.0273C42.832 53.0678 41.9494 52.8275 41.201 52.34C40.9764 52.196 40.7671 52.0296 40.5762 51.8433C40.4454 51.7094 40.3799 51.6261 40.3888 51.6172C40.6669 51.8427 40.9569 52.0533 41.2575 52.2478C41.9975 52.6944 42.8533 52.9119 43.7168 52.8727C44.5803 52.8335 45.4128 52.5395 46.1094 52.0277C46.6448 51.638 46.9007 51.3018 46.9185 51.3227Z" fill="#263238"/>
<path d="M63.9165 20.2033C63.7458 20.4838 63.5517 20.7495 63.3364 20.9975C62.9586 21.4735 62.4142 22.1131 61.7866 22.7824C61.1589 23.4518 60.555 24.0497 60.1088 24.4632C59.8779 24.6968 59.627 24.9098 59.3591 25.0998C59.5669 24.8451 59.7926 24.6055 60.0344 24.3829C60.4598 23.9515 61.0429 23.3536 61.6705 22.6783C62.2982 22.003 62.8605 21.3753 63.2531 20.9172C63.4569 20.6637 63.6786 20.4251 63.9165 20.2033Z" fill="#263238"/>
<path d="M44.2234 17.9633C44.2548 18.0968 44.2708 18.2336 44.271 18.3708C44.2918 18.6683 44.3156 19.0372 44.3423 19.4834C44.3959 20.4234 44.4613 21.7234 44.5208 23.1573C44.5803 24.5911 44.5208 25.9268 44.9819 26.7478C45.1493 27.0738 45.3996 27.3498 45.7078 27.5481C45.9279 27.6849 46.0737 27.7147 46.0677 27.7295C46.0618 27.7444 46.032 27.7295 45.9636 27.7147C45.8601 27.6881 45.7603 27.6491 45.6661 27.5986C45.3325 27.4128 45.0582 27.1364 44.8748 26.8014C44.6185 26.301 44.4743 25.7508 44.4524 25.1891C44.4078 24.5643 44.387 23.8831 44.3542 23.1632C44.2947 21.7294 44.2472 20.4294 44.2234 19.4893C44.2234 19.0402 44.2055 18.6653 44.1996 18.3738C44.1967 18.2365 44.2046 18.0993 44.2234 17.9633Z" fill="#263238"/>
<path d="M42.141 17.9633C42.1556 18.0997 42.1556 18.2373 42.141 18.3738C42.141 18.6713 42.141 19.0402 42.1202 19.4893C42.0934 20.4294 42.0488 21.7294 41.9893 23.1632C41.9536 23.8831 41.9327 24.5643 41.8911 25.1891C41.8697 25.7513 41.7244 26.3018 41.4657 26.8014C41.2833 27.1361 41.01 27.4125 40.6774 27.5986C40.583 27.6486 40.4832 27.6875 40.3799 27.7147C40.3115 27.7295 40.2758 27.7355 40.2728 27.7295C40.2698 27.7236 40.4156 27.6849 40.6357 27.5481C40.9421 27.3486 41.1912 27.0728 41.3586 26.7478C41.8286 25.9268 41.7394 24.5822 41.8227 23.1573C41.906 21.7323 41.9446 20.4234 41.9982 19.4834C42.0279 19.0372 42.0517 18.6623 42.0696 18.3708C42.0794 18.2329 42.1033 18.0963 42.141 17.9633Z" fill="#263238"/>
<g opacity="0.1">
<path opacity="0.1" d="M39.6898 48.8446C40.1062 48.4639 40.6506 47.8749 41.1296 47.619C41.6085 47.3632 42.2421 47.4286 42.7627 47.5506C43.0638 47.6679 43.3788 47.7459 43.6998 47.7826C43.9734 47.7474 44.2402 47.6712 44.4911 47.5566C45.4014 47.2591 46.0737 47.5566 46.8233 48.2229C47.4004 48.7405 48.1531 49.4128 48.5368 50.1238C47.8748 50.0338 47.2282 49.8536 46.6151 49.5883C45.9815 49.3682 45.3032 49.2076 44.6636 49.4069C44.1817 49.5586 43.7444 49.9067 43.2476 49.9483C42.4623 50.0137 41.7602 49.2968 40.9808 49.2581C40.6269 49.2639 40.2789 49.3504 39.9634 49.511C39.6957 49.627 38.8062 50.1774 38.5326 50.1238C38.5326 49.9245 39.4637 49.044 39.6898 48.8446Z" fill="black"/>
</g>
<path d="M22.8375 20.5959C23.0418 20.8372 23.2287 21.0927 23.3968 21.3605C23.73 21.8424 24.1911 22.5058 24.7176 23.2257C25.2441 23.9456 25.729 24.5911 26.086 25.0552C26.2899 25.2974 26.4749 25.555 26.6393 25.8256C26.4067 25.6101 26.1927 25.3753 25.9997 25.1236C25.6219 24.6774 25.1073 24.0408 24.5927 23.3179C24.078 22.595 23.6169 21.9197 23.3046 21.4229C23.1236 21.1624 22.9672 20.8855 22.8375 20.5959Z" fill="#263238"/>
<path d="M34.109 39.2331C34.109 39.3115 34.0858 39.3881 34.0422 39.4532C33.9985 39.5183 33.9366 39.569 33.8641 39.5989C33.7916 39.6288 33.7119 39.6364 33.6351 39.6209C33.5583 39.6054 33.4878 39.5674 33.4326 39.5118C33.3774 39.4562 33.3399 39.3854 33.325 39.3084C33.3101 39.2315 33.3183 39.1519 33.3487 39.0796C33.3791 39.0074 33.4303 38.9458 33.4958 38.9027C33.5612 38.8596 33.638 38.8369 33.7164 38.8374C33.8208 38.8382 33.9207 38.8803 33.9942 38.9544C34.0678 39.0285 34.109 39.1287 34.109 39.2331Z" fill="white"/>
<path d="M53.9599 39.2331C53.9599 39.3115 53.9366 39.3881 53.893 39.4532C53.8494 39.5183 53.7874 39.569 53.7149 39.5989C53.6425 39.6288 53.5628 39.6364 53.4859 39.6209C53.4091 39.6054 53.3386 39.5674 53.2834 39.5118C53.2282 39.4562 53.1908 39.3854 53.1758 39.3084C53.1609 39.2315 53.1692 39.1519 53.1996 39.0796C53.23 39.0074 53.2811 38.9458 53.3466 38.9027C53.412 38.8596 53.4888 38.8369 53.5672 38.8374C53.6716 38.8382 53.7715 38.8803 53.845 38.9544C53.9186 39.0285 53.9599 39.1287 53.9599 39.2331Z" fill="white"/>
<path d="M49.7357 50.5908C49.7527 50.6068 49.7677 50.6247 49.7803 50.6444C49.8071 50.6801 49.8487 50.7336 49.8993 50.811C50.0173 51.0449 50.089 51.2995 50.1105 51.5606C50.1878 52.2418 50.0361 53.2265 49.7416 54.3986C49.5988 54.9935 49.4233 55.6212 49.2419 56.3084C49.1615 56.6689 49.0571 57.0237 48.9295 57.3704C48.7938 57.7479 48.5924 58.0984 48.3345 58.4056C48.0112 58.6757 47.6165 58.8462 47.1982 58.8965C46.7876 58.9798 46.3652 59.0512 45.9309 59.1047C45.0369 59.2139 44.1358 59.2537 43.2357 59.2237C42.3368 59.1959 41.4415 59.0965 40.5584 58.9262C40.1357 58.8506 39.7176 58.7513 39.306 58.6287C38.8954 58.5088 38.5383 58.2515 38.2946 57.8999C38.0912 57.5582 37.9454 57.1853 37.8633 56.7963C37.774 56.4274 37.6907 56.0704 37.6074 55.7253C37.4438 55.0352 37.2951 54.3926 37.1553 53.8006C37.0102 53.2747 36.9106 52.7373 36.8578 52.1943C36.8221 51.7795 36.9156 51.3638 37.1255 51.0043C37.2581 50.7739 37.4586 50.59 37.6996 50.4778C37.7846 50.4289 37.8788 50.3985 37.9763 50.3885C37.8902 50.4151 37.8057 50.4469 37.7234 50.4837C37.4977 50.605 37.3117 50.7888 37.188 51.0133C36.9934 51.3692 36.9125 51.7761 36.9559 52.1794C37.0171 52.7167 37.1226 53.248 37.2713 53.7679C37.4141 54.3629 37.5707 55.0025 37.7413 55.6867C37.8246 56.0288 37.9138 56.3857 38.0031 56.7516C38.0834 57.1254 38.2251 57.4833 38.4225 57.8107C38.6485 58.1363 38.9809 58.373 39.3626 58.48C39.7681 58.6025 40.1803 58.7018 40.5971 58.7775C41.4734 58.9464 42.3616 59.0459 43.2536 59.075C44.1477 59.1063 45.0429 59.0675 45.9309 58.9589C46.3593 58.9084 46.7787 58.837 47.1863 58.7596C47.5807 58.7156 47.9543 58.5597 48.2631 58.3104C48.5039 58.0162 48.693 57.6833 48.8224 57.3258C48.9492 56.9847 49.0545 56.6359 49.1377 56.2816L49.6524 54.3778C49.9499 53.2116 50.1254 52.2418 50.0688 51.5725C50.0541 51.3166 49.9926 51.0656 49.8874 50.8318C49.8313 50.7551 49.7806 50.6746 49.7357 50.5908Z" fill="white"/>
<path d="M38.595 58.123C38.1964 58.4639 37.7637 58.763 37.304 59.0155C36.8741 59.3165 36.4146 59.5727 35.9326 59.78C36.3321 59.4403 36.7646 59.1413 37.2236 58.8876C37.6552 58.5893 38.1144 58.3333 38.595 58.123Z" fill="white"/>
<path d="M50.7947 59.6967C50.3845 59.483 49.9872 59.2456 49.6047 58.9857C49.1935 58.7674 48.7961 58.524 48.4148 58.2569C48.863 58.3876 49.2877 58.5884 49.6732 58.8519C50.0908 59.07 50.4697 59.3554 50.7947 59.6967Z" fill="white"/>
<path d="M41.0849 52.2151C41.1468 51.185 41.5826 50.2128 42.3106 49.4813C42.3462 49.508 41.9268 50.0405 41.5906 50.7991C41.2545 51.5577 41.1296 52.224 41.0849 52.2151Z" fill="white"/>
<path d="M45.7911 52.0336C45.7498 51.6121 45.6862 51.1931 45.6007 50.7783C45.4659 50.3782 45.309 49.9859 45.1306 49.6032C45.4451 49.9126 45.6614 50.3079 45.7524 50.7396C45.8903 51.1581 45.9037 51.6076 45.7911 52.0336Z" fill="white"/>
<path d="M49.691 50.5908C49.691 50.6206 49.5066 50.6176 49.1913 50.5581C48.7548 50.4616 48.3246 50.3384 47.9032 50.1892C47.2968 49.9713 46.6683 49.8207 46.029 49.7401C45.663 49.6975 45.2931 49.7025 44.9284 49.7549C44.5186 49.8639 44.1035 49.9522 43.6849 50.0197C43.2427 50.0138 42.8049 49.9312 42.3909 49.7757C42.0347 49.6899 41.6673 49.6608 41.3021 49.6895C40.6614 49.7457 40.0294 49.8764 39.419 50.0792C38.9925 50.2158 38.5572 50.3231 38.1161 50.4005C37.7978 50.4451 37.6193 50.4362 37.6163 50.4005C37.6133 50.3648 37.777 50.3142 38.0744 50.216C38.3719 50.1178 38.7884 49.9632 39.3149 49.7609C39.9404 49.5043 40.5979 49.3341 41.2694 49.2552C41.6812 49.2127 42.0972 49.2378 42.5009 49.3295C42.8717 49.463 43.2612 49.5373 43.6552 49.5497C44.03 49.5288 44.4227 49.3623 44.86 49.2998C45.2655 49.2431 45.677 49.2431 46.0826 49.2998C46.749 49.4033 47.399 49.5934 48.0162 49.865C48.5368 50.0851 48.9503 50.2577 49.2418 50.3707C49.5334 50.4838 49.697 50.5581 49.691 50.5908Z" fill="#263238"/>
<path d="M59.7339 10.7583C59.7339 10.7583 59.7101 10.8089 59.6477 10.8981L59.3799 11.2819L58.3655 12.6741L54.9772 17.2285L52.7015 20.242V20.1973C52.8086 21.4467 52.8979 22.4998 52.9633 23.2644C52.9901 23.6184 53.0109 23.9069 53.0258 24.127C53.0361 24.2259 53.0361 24.3256 53.0258 24.4245C53.0017 24.3269 52.9858 24.2274 52.9782 24.127C52.9514 23.9069 52.9187 23.6184 52.877 23.2644C52.7967 22.5028 52.6896 21.4497 52.5617 20.2033V20.1765L52.5766 20.1557L54.8374 17.1273L58.2793 12.6086L59.3323 11.2491C59.4484 11.1004 59.5465 10.9784 59.6298 10.8832C59.6599 10.8379 59.6948 10.796 59.7339 10.7583Z" fill="white"/>
<path d="M27.3622 10.5501C27.3622 10.5501 27.4038 10.5887 27.4722 10.672L27.7697 11.0379L28.8198 12.4004L32.2468 16.9251L34.5076 19.9534L34.5255 19.9742V20.001C34.3946 21.2474 34.2875 22.3005 34.2072 23.0621C34.1655 23.419 34.1328 23.7046 34.109 23.9248C34.0998 24.0251 34.0829 24.1245 34.0585 24.2222C34.0482 24.1233 34.0482 24.0236 34.0585 23.9248C34.0763 23.7076 34.0971 23.419 34.1209 23.0621C34.1864 22.2975 34.2756 21.2445 34.3827 19.995L34.3976 20.0426L32.1219 17.0262L28.7306 12.4718L27.7162 11.0796L27.4484 10.6958C27.4151 10.6501 27.3863 10.6013 27.3622 10.5501Z" fill="white"/>
<path d="M54.888 35.2349C54.3919 35.2355 53.9067 35.0889 53.4939 34.8137C53.0812 34.5385 52.7593 34.1471 52.569 33.6889C52.3787 33.2307 52.3287 32.7264 52.4251 32.2398C52.5215 31.7531 52.7601 31.306 53.1107 30.955C53.4613 30.604 53.9081 30.3648 54.3947 30.2678C54.8812 30.1708 55.3856 30.2203 55.844 30.41C56.3024 30.5997 56.6942 30.9212 56.9699 31.3336C57.2456 31.7461 57.3928 32.2311 57.3928 32.7272C57.392 33.3915 57.1279 34.0285 56.6584 34.4985C56.189 34.9685 55.5523 35.2334 54.888 35.2349ZM54.888 30.5199C54.4506 30.5193 54.0228 30.6485 53.6589 30.8911C53.295 31.1338 53.0112 31.4789 52.8436 31.8829C52.6759 32.2869 52.6319 32.7316 52.7171 33.1606C52.8023 33.5897 53.0128 33.9838 53.3221 34.293C53.6314 34.6023 54.0255 34.8129 54.4545 34.8981C54.8836 34.9833 55.3282 34.9393 55.7322 34.7716C56.1362 34.6039 56.4814 34.3202 56.724 33.9563C56.9667 33.5923 57.0959 33.1646 57.0953 32.7272C57.0945 32.142 56.8617 31.581 56.4479 31.1672C56.0341 30.7535 55.4732 30.5207 54.888 30.5199Z" fill="#263238"/>
<path d="M53.1477 32.6023C53.1648 33.071 53.3638 33.5147 53.7026 33.839C54.0414 34.1634 54.4933 34.343 54.9624 34.3396C55.1923 34.3479 55.4215 34.3101 55.6366 34.2284C55.8516 34.1467 56.0481 34.0228 56.2145 33.8639C56.3809 33.705 56.5137 33.5144 56.6052 33.3034C56.6967 33.0923 56.745 32.865 56.7472 32.635C56.7302 32.1663 56.5312 31.7226 56.1924 31.3982C55.8536 31.0739 55.4017 30.8943 54.9326 30.8977C54.7027 30.8894 54.4735 30.9271 54.2584 31.0088C54.0434 31.0905 53.8469 31.2145 53.6805 31.3734C53.5141 31.5322 53.3813 31.7228 53.2898 31.9339C53.1983 32.145 53.15 32.3722 53.1477 32.6023Z" fill="#C8FF82"/>
<g opacity="0.3">
<path opacity="0.3" d="M49.7476 33.926C48.7094 33.1793 47.6652 32.394 46.9602 31.3171C46.2551 30.2402 46.0082 28.8004 46.6032 27.676C47.1119 26.7419 48.1174 26.1886 49.0991 25.787C51.8885 24.6269 54.9133 24.1447 57.9253 24.3799C58.7195 24.4424 59.5614 24.5762 60.1445 25.1176C60.9804 25.8911 60.9893 27.2297 60.6502 28.3185C60.3111 29.4073 59.6893 30.4009 59.4603 31.5194C58.2882 29.8238 55.7983 29.4638 53.8795 30.2164C51.9608 30.9691 50.9672 32.2661 49.7476 33.926Z" fill="black"/>
</g>
<path d="M59.8975 31.5343C59.8142 31.6235 59.2817 31.1565 58.2792 30.74C57.6982 30.4965 57.085 30.3382 56.4587 30.27C54.9295 30.083 53.3886 30.511 52.175 31.4599C51.6733 31.8422 51.2285 32.2939 50.8541 32.8016C50.2086 33.6732 49.9944 34.3484 49.8754 34.3127C49.7564 34.2771 49.813 33.5452 50.396 32.5011C50.996 31.4372 51.9096 30.5844 53.0122 30.0589C54.1147 29.5334 55.3526 29.3609 56.5568 29.565C57.2465 29.6757 57.9111 29.9073 58.5202 30.2492C59.5554 30.8412 59.963 31.4778 59.8975 31.5343Z" fill="#263238"/>
<path d="M60.1504 25.1177C60.0731 25.2188 59.3859 24.728 58.068 24.5227C56.3515 24.2752 54.6046 24.3366 52.9097 24.7042C51.9698 24.8925 51.0443 25.147 50.1402 25.4657C49.4125 25.7229 48.7215 26.0739 48.0846 26.5099C47.5373 26.8847 47.1119 27.2387 46.7995 27.4618C46.4871 27.6849 46.2997 27.795 46.264 27.7593C46.2283 27.7236 46.3473 27.5391 46.5942 27.2446C46.9476 26.8251 47.3346 26.4351 47.7514 26.0785C48.3873 25.544 49.1043 25.1142 49.8754 24.8053C50.8046 24.4311 51.7667 24.1443 52.7491 23.9486C54.8493 23.5202 56.8216 23.6065 58.187 23.9902C58.7316 24.1294 59.2479 24.3619 59.7131 24.6774C60.0433 24.9005 60.1772 25.082 60.1504 25.1177Z" fill="#263238"/>
<path d="M18.0243 28.857C18.0856 28.936 18.1356 29.0231 18.173 29.1158C18.2593 29.2853 18.3694 29.5412 18.4913 29.8595C19.1212 31.5376 19.3256 33.3455 19.0863 35.1219C19.051 35.3891 19.0014 35.6543 18.9376 35.9162C18.9235 36.019 18.8945 36.1192 18.8513 36.2136C18.8245 36.2136 18.9108 35.7942 18.9762 35.1219C19.156 33.3621 18.9582 31.5843 18.3961 29.9071C18.173 29.2675 18.0005 28.8689 18.0243 28.857Z" fill="#263238"/>
<path d="M19.9222 32.0787C19.9222 32.1233 19.7378 32.1322 19.5236 32.1441C19.3094 32.156 19.1339 32.1649 19.122 32.1203C19.1101 32.0757 19.2856 32.0013 19.5176 31.9894C19.7497 31.9775 19.9282 32.037 19.9222 32.0787Z" fill="#263238"/>
<path d="M33.3386 35.6693C33.2404 35.6693 33.1452 35.6693 33.0411 35.6544C32.551 35.5988 32.0885 35.3991 31.712 35.0805C31.3355 34.7619 31.0619 34.3389 30.9259 33.8648C30.7899 33.3907 30.7976 32.887 30.948 32.4172C31.0984 31.9475 31.3847 31.533 31.7708 31.2261C32.1568 30.9191 32.6252 30.7336 33.1167 30.693C33.6083 30.6524 34.1008 30.7584 34.532 30.9978C34.9632 31.2372 35.3138 31.5991 35.5392 32.0377C35.7647 32.4763 35.855 32.972 35.7987 33.462C35.7288 34.0684 35.4388 34.628 34.9837 35.0349C34.5286 35.4417 33.9401 35.6674 33.3296 35.6693H33.3386ZM33.3386 30.9839C32.9238 30.9819 32.517 31.0976 32.1654 31.3175C31.8138 31.5374 31.5317 31.8525 31.352 32.2263C31.1723 32.6 31.1022 33.0171 31.1501 33.4291C31.1979 33.8411 31.3616 34.231 31.6221 34.5537C31.9863 35.0064 32.515 35.2966 33.0925 35.3607C33.67 35.4248 34.2494 35.2576 34.704 34.8958C34.9298 34.7165 35.1181 34.4944 35.2579 34.2422C35.3978 33.9901 35.4865 33.7128 35.5191 33.4263C35.5844 32.8481 35.4179 32.2677 35.056 31.8121C34.6941 31.3566 34.1664 31.063 33.5884 30.9958C33.5024 30.9873 33.4161 30.9833 33.3296 30.9839H33.3386Z" fill="#263238"/>
<path d="M35.1264 33.099C35.1265 33.5668 34.9429 34.0159 34.6152 34.3497C34.2876 34.6835 33.8419 34.8753 33.3743 34.8839C33.1453 34.9 32.9154 34.8701 32.6981 34.7959C32.4809 34.7218 32.2807 34.6049 32.1093 34.4521C31.938 34.2993 31.7989 34.1138 31.7005 33.9065C31.602 33.6991 31.546 33.4741 31.5358 33.2448C31.5403 32.7784 31.7253 32.3319 32.052 31.9991C32.3787 31.6662 32.8218 31.473 33.288 31.4599C33.5169 31.4442 33.7466 31.4744 33.9637 31.5487C34.1808 31.623 34.3808 31.74 34.5521 31.8927C34.7233 32.0454 34.8623 32.2307 34.961 32.4379C35.0596 32.645 35.1158 32.8698 35.1264 33.099Z" fill="#C8FF82"/>
<path d="M40.5108 27.6254C40.4067 27.6998 39.9159 27.0304 38.7259 26.4057C37.1731 25.6328 35.4948 25.1432 33.7699 24.96C32.8178 24.8424 31.8584 24.7937 30.8992 24.8142C30.128 24.8307 29.3621 24.9467 28.6205 25.1593C27.9839 25.3467 27.4693 25.546 27.1034 25.662C26.7375 25.7781 26.5233 25.8227 26.5084 25.7721C26.4936 25.7215 26.6572 25.5906 26.9844 25.3884C27.4525 25.1007 27.9429 24.851 28.451 24.6417C29.2239 24.3359 30.04 24.1532 30.8695 24.1003C31.8687 24.0395 32.8713 24.0694 33.8651 24.1895C35.9951 24.4424 37.8424 25.1444 39.0175 25.9357C39.4914 26.2381 39.9092 26.6206 40.252 27.0661C40.4781 27.3874 40.5495 27.6016 40.5108 27.6254Z" fill="#263238"/>
<g opacity="0.3">
<path opacity="0.3" d="M27.862 32.7302C27.1093 31.692 26.3537 30.6181 26.0325 29.3776C25.7112 28.1371 25.9045 26.6824 26.8416 25.8078C27.618 25.082 28.7425 24.8797 29.8164 24.7994C32.8302 24.5732 35.8547 25.0635 38.6426 26.2302C39.3744 26.5277 40.13 26.9323 40.5168 27.6254C41.0701 28.6249 40.6566 29.8982 39.9932 30.8263C39.3298 31.7544 38.4255 32.5041 37.8513 33.5036C37.2712 31.5254 35.0223 30.4039 32.9637 30.5288C30.9052 30.6538 29.5546 31.5581 27.8768 32.754" fill="black"/>
</g>
<path d="M28.1356 33.3341C28.091 33.3132 28.1148 33.1199 28.2457 32.7926C28.4494 32.3328 28.7427 31.9182 29.1084 31.573C29.6532 31.0556 30.3052 30.6646 31.0182 30.4277C31.4355 30.2785 31.8688 30.1787 32.3093 30.1302C32.7849 30.0724 33.2661 30.0784 33.7402 30.1481C34.5684 30.2653 35.3599 30.5666 36.0565 31.0299C36.753 31.4932 37.3368 32.1068 37.7651 32.8254C38.0221 33.2493 38.2109 33.7111 38.3243 34.1938C38.3987 34.5329 38.3898 34.7292 38.3422 34.7411C38.2202 34.7798 38.003 34.054 37.3099 33.1288C36.9051 32.5976 36.4168 32.1354 35.8642 31.7604C35.1905 31.3145 34.4266 31.0229 33.6271 30.9066C33.2155 30.8448 32.7977 30.8348 32.3836 30.8769C31.9945 30.9081 31.6096 30.9799 31.2354 31.0911C30.596 31.2761 29.9968 31.5788 29.4683 31.9835C28.561 32.6856 28.2546 33.3906 28.1356 33.3341Z" fill="#263238"/>
<path d="M43.8456 10.4846H42.6348V14.569H43.8456V10.4846Z" fill="#C8FF82"/>
<path d="M44.3215 60.2917H43.1108V61.3358H44.3215V60.2917Z" fill="#C8FF82"/>
<path d="M44.2531 53.9048H43.0424V56.9658H44.2531V53.9048Z" fill="#C8FF82"/>
<path d="M55.9649 32.6201C55.9649 32.8338 55.9015 33.0427 55.7827 33.2203C55.6639 33.398 55.4951 33.5364 55.2976 33.618C55.1001 33.6997 54.8828 33.7209 54.6733 33.679C54.4637 33.6371 54.2713 33.5339 54.1204 33.3826C53.9695 33.2313 53.8669 33.0386 53.8256 32.8289C53.7842 32.6193 53.806 32.4021 53.8882 32.2048C53.9704 32.0075 54.1093 31.8391 54.2873 31.7208C54.4652 31.6025 54.6743 31.5397 54.888 31.5403C55.0297 31.5403 55.17 31.5682 55.3008 31.6225C55.4316 31.6768 55.5505 31.7564 55.6505 31.8567C55.7506 31.957 55.8298 32.0761 55.8838 32.2071C55.9377 32.3381 55.9653 32.4784 55.9649 32.6201Z" fill="white"/>
<path d="M62.2655 32.7272C62.2621 32.6876 62.2621 32.6478 62.2655 32.6082C62.2655 32.5219 62.2506 32.4029 62.2387 32.2542C62.2387 32.1768 62.2387 32.0876 62.2209 31.9954C62.203 31.9032 62.1911 31.7961 62.1733 31.6979C62.1392 31.4386 62.0866 31.1821 62.0156 30.9304C61.8415 30.2348 61.5627 29.5698 61.1886 28.9581C60.3057 27.4833 58.9364 26.3622 57.3163 25.7878C55.6962 25.2134 53.9266 25.2215 52.3118 25.8108C51.9827 25.9305 51.6617 26.0716 51.3509 26.2332C51.0399 26.4104 50.7417 26.6092 50.4585 26.8281C50.1639 27.0469 49.8837 27.2844 49.6196 27.5391C49.3607 27.8082 49.1202 28.0944 48.8997 28.3959C48.44 29.0115 48.0834 29.6977 47.8437 30.4276C47.336 31.937 47.336 33.5709 47.8437 35.0802C48.0835 35.8105 48.4391 36.4975 48.8967 37.115C49.1191 37.4148 49.3606 37.7 49.6196 37.9688C49.8837 38.2245 50.1639 38.4629 50.4585 38.6827C50.7421 38.8966 51.0403 39.0904 51.3509 39.2628C51.6605 39.4268 51.9817 39.568 52.3118 39.6852C53.9286 40.2674 55.6976 40.2691 57.3155 39.69C58.9334 39.1109 60.2995 37.987 61.1797 36.5111C61.5537 35.8994 61.8326 35.2344 62.0067 34.5388C62.0779 34.2872 62.1306 34.0307 62.1643 33.7713C62.1822 33.6613 62.203 33.5571 62.2119 33.4738C62.2209 33.3905 62.2119 33.2924 62.2298 33.215C62.2298 33.0633 62.2506 32.9473 62.2566 32.861C62.2534 32.8204 62.2534 32.7797 62.2566 32.7391C62.2598 32.7797 62.2598 32.8204 62.2566 32.861C62.2566 32.9473 62.2566 33.0663 62.2566 33.215C62.2566 33.2954 62.2566 33.3816 62.2566 33.4768C62.2566 33.572 62.2298 33.6791 62.2149 33.7921C62.1881 34.0534 62.1403 34.312 62.0721 34.5656C61.9056 35.2706 61.6317 35.9458 61.26 36.5676C60.7177 37.4852 59.9862 38.2767 59.1142 38.8897C58.2423 39.5026 57.2498 39.9229 56.2028 40.1225C54.8814 40.3676 53.5184 40.2546 52.2553 39.7953C51.9185 39.6744 51.5905 39.5303 51.2736 39.3639C50.9506 39.1893 50.6413 38.9904 50.3484 38.769C50.0476 38.5479 49.7623 38.3064 49.4947 38.0461C49.2281 37.7728 48.9807 37.4816 48.754 37.1745C48.2853 36.5428 47.9216 35.8397 47.6771 35.0921C47.1557 33.5484 47.1557 31.8762 47.6771 30.3325C47.9229 29.5854 48.2864 28.8825 48.754 28.2501C48.9814 27.9436 49.2289 27.6524 49.4947 27.3785C49.7631 27.1191 50.0483 26.8776 50.3484 26.6556C50.6432 26.4369 50.9523 26.2382 51.2736 26.0606C51.5905 25.8953 51.9186 25.7522 52.2553 25.6323C53.5201 25.1754 54.8842 25.0655 56.2058 25.314C57.2543 25.5148 58.2478 25.9371 59.1199 26.5527C59.992 27.1683 60.7227 27.9631 61.263 28.8837C61.6346 29.5045 61.9085 30.1787 62.0751 30.8828C62.1433 31.1374 62.1911 31.397 62.2179 31.6592C62.2328 31.7723 62.2536 31.8764 62.2595 31.9716C62.2655 32.0668 62.2595 32.156 62.2595 32.2334C62.2595 32.3851 62.2595 32.5011 62.2595 32.5903C62.2659 32.6356 62.2679 32.6815 62.2655 32.7272Z" fill="#C8FF82"/>
<path d="M61.5099 32.7272C61.5067 32.7005 61.5067 32.6735 61.5099 32.6469C61.5099 32.5844 61.5099 32.5071 61.4891 32.4089C61.4682 32.3107 61.4712 32.1709 61.4623 32.0222C61.4534 31.8734 61.4058 31.6949 61.373 31.5016C61.3403 31.3082 61.2719 31.094 61.2154 30.859C61.1589 30.624 61.0458 30.386 60.9477 30.1213C60.685 29.5404 60.3491 28.9956 59.9481 28.5C59.4488 27.9088 58.8534 27.406 58.187 27.0126C57.3817 26.5422 56.4865 26.2461 55.5595 26.1437C54.6325 26.0412 53.6943 26.1345 52.8056 26.4176C51.8032 26.7385 50.8918 27.2941 50.1472 28.0381C49.4027 28.7821 48.8465 29.6932 48.5249 30.6954C48.2417 31.5845 48.1483 32.5232 48.2508 33.4507C48.3533 34.3783 48.6494 35.2739 49.1199 36.0798C49.5132 36.7462 50.0161 37.3415 50.6073 37.8409C51.1038 38.2419 51.6497 38.5778 52.2315 38.8404C52.4933 38.9386 52.7342 39.0427 52.9692 39.1081C53.2043 39.1736 53.4125 39.239 53.6088 39.2658L54.1294 39.355L54.5161 39.3818L54.7541 39.4026H54.8344C54.8078 39.4059 54.7808 39.4059 54.7541 39.4026H54.5132C54.409 39.4026 54.2782 39.4026 54.1264 39.4026L53.5969 39.3283C53.3976 39.3045 53.1864 39.236 52.9484 39.1825C52.7104 39.129 52.4635 39.0189 52.1958 38.9237C51.6026 38.6648 51.0456 38.3298 50.5388 37.9271C49.9321 37.4243 49.4169 36.8205 49.0157 36.1423C48.5501 35.3653 48.2466 34.5021 48.1233 33.6048C47.9912 32.6123 48.0785 31.6029 48.3791 30.6478C48.7093 29.6275 49.2776 28.7004 50.0369 27.9431C50.7963 27.1858 51.7249 26.6201 52.7461 26.2927C53.7012 25.9921 54.7106 25.9048 55.7031 26.0369C56.6005 26.1601 57.4636 26.4637 58.2406 26.9293C58.9188 27.3304 59.5226 27.8457 60.0255 28.4524C60.4281 28.9592 60.7631 29.5162 61.022 30.1094C61.1172 30.3771 61.2184 30.624 61.2808 30.862C61.3433 31.1 61.4028 31.3112 61.4266 31.5105C61.4504 31.7098 61.4801 31.8823 61.501 32.037C61.5218 32.1917 61.501 32.3345 61.5158 32.4267C61.5307 32.519 61.5158 32.6052 61.5158 32.6677C61.5157 32.6877 61.5137 32.7076 61.5099 32.7272Z" fill="#C8FF82"/>
<path d="M56.5331 35.7079H55.9173V36.3981H56.5331V35.7079Z" fill="#C8FF82"/>
<path d="M55.599 35.7079H54.9832V36.3981H55.599V35.7079Z" fill="#C8FF82"/>
<path d="M60.433 35.7079H56.7502V36.3981H60.433V35.7079Z" fill="#C8FF82"/>
<path d="M61.6854 36.9633H58.0026V37.6535H61.6854V36.9633Z" fill="#C8FF82"/>
<path d="M57.8122 36.9633H56.8395V37.6535H57.8122V36.9633Z" fill="#C8FF82"/>
<path d="M11.2209 93.3982L25.2679 121.802H61.617L76.2173 87.9752L11.2209 93.3982Z" fill="#263238"/>
<path d="M86.168 82.9239C86.168 82.9239 74.9738 73.4046 60.1653 73.2767C60.1653 73.2767 66.7485 77.0755 64.2735 81.4782C61.7984 85.8809 51.2647 92.2678 51.0654 92.4492C50.866 92.6307 46.4366 95.6442 43.5153 96.2481V117.652C43.5153 117.652 49.3489 118.378 53.9836 115.424C58.6184 112.47 66.8705 111.5 66.8705 111.5C66.8705 111.5 80.2154 95.2753 82.7023 90.938C85.8437 85.4912 86.168 82.9239 86.168 82.9239Z" fill="#E0E0E0"/>
<path d="M0 82.9239C0 82.9239 11.1942 73.4046 26.0027 73.2767C26.0027 73.2767 19.4225 77.0755 21.8975 81.4782C24.3725 85.8809 34.9093 92.2678 35.0996 92.4492C35.29 92.6307 39.7314 95.6442 42.6497 96.2481V117.652C42.6497 117.652 36.8161 118.378 32.1843 115.424C27.5526 112.47 19.2945 111.5 19.2945 111.5C19.2945 111.5 5.9496 95.2753 3.46862 90.938C0.330204 85.4912 0 82.9239 0 82.9239Z" fill="#E0E0E0"/>
<path d="M40.3293 117.435C40.3248 117.356 40.3248 117.278 40.3293 117.2C40.3293 117.03 40.3293 116.807 40.3144 116.527C40.3144 115.932 40.3144 115.084 40.2906 114.046C40.2906 111.94 40.2906 109.049 40.2668 105.842L40.2936 105.901L40.1241 105.747L35.8552 101.879L35.8314 101.856V101.826C35.9504 100.041 36.0456 98.5238 36.1289 97.4499C36.1676 96.9352 36.1973 96.5217 36.2181 96.2242C36.2181 96.0933 36.2419 95.9863 36.2479 95.9C36.2503 95.8628 36.2562 95.8259 36.2657 95.7899C36.271 95.8274 36.271 95.8655 36.2657 95.903C36.2657 95.9863 36.2657 96.0933 36.2657 96.2272C36.2657 96.5247 36.236 96.9382 36.2122 97.4558C36.1587 98.5297 36.0783 100.035 35.9861 101.832L35.9623 101.778C37.2147 102.909 38.6843 104.232 40.246 105.645L40.4156 105.797L40.4424 105.821V105.854C40.4424 109.06 40.4245 111.952 40.4186 114.058C40.4186 115.096 40.3977 115.938 40.3948 116.539C40.3948 116.819 40.3948 117.042 40.3799 117.211C40.3702 117.287 40.3533 117.362 40.3293 117.435Z" fill="#263238"/>
<path d="M46.859 117.435C46.8457 117.357 46.8407 117.278 46.8441 117.2C46.8441 117.03 46.8441 116.807 46.8293 116.527C46.8293 115.932 46.8144 115.084 46.8055 114.046C46.8055 111.94 46.7906 109.049 46.7817 105.842V105.809L46.8055 105.785L46.975 105.634C48.5368 104.22 50.0064 102.897 51.2587 101.766L51.2379 101.82C51.1427 100.035 51.0654 98.5178 51.0089 97.4439C50.9851 96.9263 50.9672 96.5128 50.9553 96.2153C50.9553 96.0814 50.9553 95.9744 50.9553 95.8911C50.9521 95.8534 50.9521 95.8156 50.9553 95.778C50.9553 95.778 50.9553 95.8167 50.9732 95.8881C50.991 95.9595 50.991 96.0815 51.0029 96.2123C51.0237 96.5098 51.0565 96.9233 51.0922 97.438C51.1636 98.5119 51.2617 100.017 51.3896 101.814V101.844L51.3658 101.867L47.094 105.735L46.9245 105.889L46.9512 105.83C46.9512 109.037 46.9334 111.928 46.9274 114.034C46.9274 115.073 46.9096 115.914 46.9036 116.515C46.9036 116.795 46.9036 117.018 46.9036 117.188C46.896 117.271 46.8811 117.354 46.859 117.435Z" fill="#263238"/>
<path d="M79.6413 78.6313C79.6278 78.66 79.6108 78.687 79.5907 78.7116L79.4242 78.9407C79.2665 79.1459 79.0493 79.4375 78.7697 79.8063C78.1926 80.5619 77.3656 81.6448 76.3452 82.9745C74.2837 85.6518 71.4398 89.3287 68.3133 93.3863L66.9508 95.1444L66.9657 95.0968C66.9657 99.7167 66.9479 103.81 66.9419 106.764C66.9419 108.228 66.9241 109.406 66.9181 110.233C66.9181 110.631 66.9181 110.944 66.9032 111.167V111.411C66.9071 111.437 66.9071 111.464 66.9032 111.491C66.9032 111.491 66.9032 111.464 66.9032 111.411C66.9032 111.357 66.9032 111.268 66.9032 111.167C66.9032 110.944 66.9032 110.631 66.8884 110.233C66.8884 109.406 66.8735 108.228 66.8646 106.764C66.8646 103.81 66.8497 99.7167 66.8408 95.0968V95.07V95.0492C67.2751 94.487 67.7332 93.895 68.2002 93.2911L76.2798 82.9001L78.731 79.7677L79.4063 78.9198L79.5878 78.7027C79.6026 78.6767 79.6206 78.6528 79.6413 78.6313Z" fill="#263238"/>
<path d="M49.0812 107.57H48.1233V114.686H49.0812V107.57Z" fill="#C8FF82"/>
<path d="M34.6742 98.6041H33.407V101.394H34.6742V98.6041Z" fill="#C8FF82"/>
<path d="M73.9951 76.2693C73.9951 76.2693 73.9565 76.3139 73.8732 76.3853L73.5043 76.6828L72.1329 77.7537L72.1091 77.7746H72.0794L68.2984 76.6858C66.6236 76.1949 65.1094 75.7428 64.0177 75.4096L62.7236 75.005C62.5631 74.9629 62.4067 74.9062 62.2566 74.8354C62.4208 74.8599 62.5828 74.8967 62.7415 74.9455L64.0474 75.3025C65.1481 75.6 66.6682 76.0462 68.343 76.537L72.1151 77.6585H72.0615L73.4627 76.6293L73.8524 76.3526C73.897 76.32 73.9448 76.2921 73.9951 76.2693Z" fill="#263238"/>
<path d="M68.9171 95.0671L69.6608 95.6115L75.5866 87.8264L74.8667 87.1928L68.9171 95.0671Z" fill="white"/>
<path d="M76.9105 86.3033C76.9164 86.4086 76.8906 86.5133 76.8363 86.6038C76.7821 86.6943 76.7019 86.7663 76.6062 86.8107C76.5105 86.8551 76.4037 86.8697 76.2995 86.8526C76.1954 86.8355 76.0989 86.7876 76.0223 86.715C75.9458 86.6424 75.8928 86.5484 75.8703 86.4454C75.8478 86.3423 75.8568 86.2348 75.8961 86.1369C75.9354 86.039 76.0032 85.9552 76.0907 85.8962C76.1782 85.8373 76.2814 85.8061 76.3869 85.8065C76.5221 85.8033 76.6531 85.8537 76.7512 85.9468C76.8493 86.0399 76.9066 86.1681 76.9105 86.3033Z" fill="white"/>
<path d="M6.96697 78.7146C6.96697 78.7146 6.99077 78.7384 7.03241 78.786L7.2109 79.0031L7.88618 79.8539L10.3493 82.9923C12.4317 85.6696 15.2786 89.3286 18.4289 93.3833L19.7913 95.1414V95.1622V95.189C19.7913 99.8089 19.7735 103.902 19.7645 106.856C19.7645 108.32 19.7467 109.498 19.7437 110.325C19.7437 110.723 19.7437 111.036 19.7437 111.259V111.503C19.7474 111.53 19.7474 111.558 19.7437 111.586C19.7394 111.558 19.7394 111.53 19.7437 111.503C19.7437 111.44 19.7437 111.36 19.7437 111.259C19.7437 111.036 19.7437 110.723 19.7437 110.325C19.7437 109.498 19.7437 108.32 19.7199 106.856C19.7199 103.902 19.7051 99.8089 19.6932 95.189L19.711 95.2366L18.3485 93.4785L10.3166 83.0667L7.89213 79.8985L7.24065 79.0329L7.07406 78.8038C7.00068 78.7483 6.96498 78.7185 6.96697 78.7146Z" fill="#263238"/>
<path d="M12.6131 76.3526C12.6648 76.3758 12.7137 76.4048 12.7589 76.4388C12.863 76.5162 12.9939 76.6054 13.1486 76.7155L14.5497 77.7448H14.4962L18.2682 76.6233C19.943 76.1324 21.4602 75.6981 22.5638 75.3887L23.8698 75.0318C24.0284 74.9829 24.1905 74.9462 24.3547 74.9217C24.2036 74.9927 24.0463 75.0495 23.8847 75.0913L22.5936 75.4958C21.4989 75.829 19.9847 76.2812 18.3099 76.772L14.5289 77.8608H14.4992L14.4754 77.84L13.107 76.769C12.9582 76.65 12.8363 76.5519 12.7381 76.4716C12.6399 76.3912 12.6102 76.3585 12.6131 76.3526Z" fill="#263238"/>
<path d="M17.6941 95.1503L16.9504 95.6947L11.0246 87.9097L11.7415 87.276L17.6941 95.1503Z" fill="white"/>
<path d="M10.2244 86.8864C10.5135 86.8864 10.7479 86.6626 10.7479 86.3866C10.7479 86.1106 10.5135 85.8868 10.2244 85.8868C9.93522 85.8868 9.70081 86.1106 9.70081 86.3866C9.70081 86.6626 9.93522 86.8864 10.2244 86.8864Z" fill="white"/>
<path d="M37.2058 81.1747C37.2058 81.1747 41.1325 83.6617 44.0151 83.5546C46.8977 83.4475 50.6073 80.913 50.6073 80.913L47.811 90.3818L40.1657 90.1795L37.2058 81.1747Z" fill="#455A64"/>
<path d="M35.8463 91.1225C35.8463 91.1225 33.9871 94.7577 36.6257 95.6352C37.0166 95.7556 37.428 95.7941 37.8345 95.7483C38.2409 95.7025 38.6335 95.5734 38.9877 95.3691C39.342 95.1647 39.6503 94.8895 39.8934 94.5606C40.1365 94.2318 40.3092 93.8563 40.4007 93.4577C40.6744 92.363 40.8856 91.1611 40.6774 90.6376C40.246 89.5607 36.8994 77.3908 36.587 75.3709C36.5037 74.8533 35.763 71.9945 35.6738 71.587C35.2484 69.6801 32.3598 70.2126 32.3569 72.1671C32.3569 72.7442 32.4223 74.77 32.4669 75.1419C33.0827 80.1693 33.8324 82.799 34.4601 85.4287C35.2573 88.7605 35.8463 91.1255 35.8463 91.1255" fill="#455A64"/>
<path d="M35.8463 91.1225C35.8463 91.1225 35.8314 91.0749 35.8047 90.9797C35.7779 90.8845 35.7422 90.7417 35.6946 90.5632C35.5994 90.1884 35.4626 89.647 35.29 88.9568C34.942 87.5497 34.4392 85.5299 33.8234 83.034C33.526 81.7816 33.2285 80.4043 32.9578 78.9109C32.8249 78.1653 32.702 77.3918 32.5889 76.5906C32.4541 75.7696 32.3707 74.941 32.339 74.1096C32.3242 73.6842 32.3093 73.2529 32.2944 72.8185C32.2944 72.5984 32.2944 72.3812 32.2944 72.1581L32.3242 71.8071C32.3509 71.6941 32.3866 71.584 32.4193 71.471C32.6125 71.0339 32.9611 70.6842 33.3975 70.4896C33.834 70.295 34.3271 70.2694 34.7813 70.4179C35.0118 70.5043 35.2179 70.6453 35.3821 70.8286C35.5463 71.012 35.6637 71.2324 35.7243 71.471C35.8493 71.9291 35.9564 72.3872 36.0754 72.8513C36.3015 73.7824 36.5603 74.7194 36.7328 75.6892C37.1404 77.605 37.6431 79.4613 38.1101 81.2521C38.5772 83.0429 39.0531 84.7683 39.5083 86.4074L40.1865 88.7873C40.3035 89.1839 40.4166 89.5647 40.5257 89.9296C40.5822 90.117 40.6387 90.3014 40.7042 90.4799C40.7392 90.5771 40.768 90.6765 40.7904 90.7774C40.8128 90.875 40.8247 90.9747 40.8261 91.0749C40.8179 91.8113 40.718 92.5437 40.5286 93.2554C40.3977 93.933 40.0537 94.551 39.547 95.0195C39.3096 95.2347 39.042 95.4141 38.7527 95.552C38.4747 95.6742 38.1815 95.7582 37.8811 95.8018C37.3241 95.8645 36.7611 95.761 36.2628 95.5044C36.0449 95.3964 35.8506 95.2465 35.6908 95.0632C35.531 94.8799 35.409 94.6669 35.3317 94.4364C35.2094 94.0524 35.1688 93.6471 35.2127 93.2465C35.2727 92.6936 35.4098 92.1519 35.6202 91.6371C35.6916 91.4616 35.7511 91.3396 35.7957 91.2415C35.8162 91.1976 35.8391 91.1549 35.8642 91.1136L35.8106 91.2474C35.7719 91.3367 35.7154 91.4705 35.65 91.649C35.4545 92.1637 35.3275 92.7017 35.2722 93.2495C35.2332 93.6438 35.2767 94.042 35.4001 94.4186C35.4749 94.638 35.5922 94.8405 35.7453 95.0146C35.8985 95.1886 36.0844 95.3308 36.2925 95.433C36.777 95.6725 37.321 95.7645 37.8573 95.6977C38.1471 95.6553 38.4296 95.5722 38.6962 95.4508C38.9746 95.316 39.2321 95.1417 39.4607 94.9332C39.9471 94.4768 40.2762 93.8779 40.4007 93.2227C40.5884 92.5218 40.6883 91.8004 40.6982 91.0749C40.692 90.8909 40.6527 90.7095 40.5822 90.5394C40.5138 90.355 40.4572 90.1676 40.4007 89.9802L40.0586 88.8468C39.8385 88.0733 39.6094 87.2731 39.3744 86.4669C38.9133 84.8278 38.4433 83.1024 37.9673 81.3116C37.4914 79.5208 36.9946 77.6675 36.5841 75.7398C36.4145 74.776 36.1527 73.8389 35.9296 72.9108C35.8106 72.4497 35.7005 71.9826 35.5786 71.5334C35.5258 71.3175 35.421 71.1179 35.2732 70.9519C35.1254 70.786 34.9391 70.6588 34.7308 70.5815C34.3132 70.4478 33.8611 70.4725 33.4606 70.6508C33.0601 70.8291 32.7392 71.1486 32.5592 71.5483C32.437 71.962 32.3996 72.396 32.4491 72.8245C32.464 73.2618 32.4759 73.6902 32.4907 74.1156C32.5192 74.942 32.6007 75.7657 32.7347 76.5817C32.8457 77.3749 32.9647 78.1474 33.0917 78.899C33.3445 80.3864 33.642 81.7697 33.9365 83.0221L35.3555 88.9539C35.5191 89.65 35.653 90.1914 35.7333 90.5662C35.7749 90.7477 35.8076 90.8875 35.8285 90.9886C35.8493 91.0898 35.8463 91.1225 35.8463 91.1225Z" fill="#263238"/>
<path d="M35.2573 72.5121C35.2579 72.7276 35.1946 72.9384 35.0753 73.1178C34.956 73.2973 34.7862 73.4373 34.5873 73.5201C34.3884 73.603 34.1694 73.625 33.958 73.5833C33.7466 73.5417 33.5523 73.4382 33.3997 73.286C33.2472 73.1339 33.1432 72.9399 33.1009 72.7286C33.0587 72.5173 33.08 72.2983 33.1624 72.0991C33.2447 71.9 33.3842 71.7298 33.5633 71.61C33.7425 71.4903 33.9531 71.4263 34.1685 71.4263C34.3114 71.4259 34.4529 71.4537 34.585 71.5081C34.7171 71.5625 34.8371 71.6424 34.9382 71.7433C35.0394 71.8442 35.1196 71.964 35.1744 72.0959C35.2291 72.2279 35.2573 72.3693 35.2573 72.5121Z" fill="#263238"/>
<path d="M37.6431 94.484C38.2428 94.484 38.7289 93.9978 38.7289 93.3982C38.7289 92.7985 38.2428 92.3124 37.6431 92.3124C37.0434 92.3124 36.5573 92.7985 36.5573 93.3982C36.5573 93.9978 37.0434 94.484 37.6431 94.484Z" fill="#263238"/>
<path d="M39.7403 92.354C39.1456 92.2569 38.5604 92.1086 37.9912 91.9108C37.4059 91.7619 36.8346 91.5629 36.2836 91.3158C36.8789 91.4148 37.465 91.5631 38.0358 91.7591C38.62 91.9082 39.1902 92.1073 39.7403 92.354Z" fill="#263238"/>
<path d="M36.3461 83.8074C36.6402 83.8074 36.8786 83.569 36.8786 83.2749C36.8786 82.9809 36.6402 82.7425 36.3461 82.7425C36.052 82.7425 35.8136 82.9809 35.8136 83.2749C35.8136 83.569 36.052 83.8074 36.3461 83.8074Z" fill="#263238"/>
<path d="M38.5712 89.3257C38.5706 89.4309 38.5389 89.5335 38.48 89.6207C38.4212 89.7079 38.3378 89.7757 38.2405 89.8155C38.1431 89.8554 38.0361 89.8655 37.933 89.8446C37.8299 89.8237 37.7353 89.7728 37.6612 89.6982C37.587 89.6236 37.5366 89.5287 37.5163 89.4255C37.496 89.3223 37.5067 89.2154 37.5471 89.1183C37.5875 89.0211 37.6557 88.9381 37.7432 88.8798C37.8307 88.8214 37.9335 88.7902 38.0387 88.7902C38.1089 88.7902 38.1784 88.8041 38.2432 88.831C38.308 88.858 38.3668 88.8975 38.4163 88.9472C38.4658 88.997 38.505 89.0561 38.5315 89.121C38.5581 89.1859 38.5716 89.2555 38.5712 89.3257Z" fill="#263238"/>
<path d="M52.0352 91.7531C52.0352 91.7531 54.0491 95.3051 51.4402 96.2957C49.8368 96.9055 48.0638 95.9268 47.573 94.2817C47.2547 93.1989 46.978 92.009 47.1773 91.4735C47.564 90.3788 50.3901 78.0869 50.6162 76.0492C50.6757 75.5256 51.2944 72.6401 51.3688 72.2296C51.7139 70.3078 54.6203 70.7154 54.7065 72.6669C54.7303 73.244 54.7512 75.2698 54.7214 75.6416C54.3198 80.6988 53.6832 83.3493 53.1686 86.0029C52.5141 89.3674 52.0233 91.7531 52.0233 91.7531" fill="#455A64"/>
<path d="M52.0352 91.7531C52.0352 91.7531 52.0352 91.7026 52.056 91.6074L52.1333 91.182L52.4308 89.5548L53.5969 83.5665C53.8379 82.3022 54.0759 80.913 54.2663 79.4018C54.3644 78.6521 54.4507 77.8727 54.5251 77.0725C54.6248 76.2514 54.6715 75.4246 54.6649 74.5975C54.6649 74.1721 54.6649 73.7407 54.65 73.3064C54.6812 72.8753 54.6256 72.4424 54.4864 72.0332C54.2897 71.6414 53.9557 71.3358 53.548 71.1745C53.1404 71.0132 52.6877 71.0075 52.2761 71.1586C52.0717 71.2459 51.8914 71.3813 51.7505 71.5532C51.6096 71.7252 51.5124 71.9286 51.467 72.1462C51.3658 72.6014 51.2766 73.0714 51.1695 73.5384C50.9851 74.4755 50.7649 75.4215 50.634 76.3913C50.3068 78.3368 49.8814 80.2079 49.4887 82.0196C49.0961 83.8312 48.6915 85.5715 48.2988 87.2285C48.0995 88.0555 47.9062 88.8646 47.7039 89.647C47.6057 90.0396 47.5075 90.4234 47.4064 90.8042C47.3558 90.9946 47.3082 91.182 47.2487 91.3664C47.1852 91.5409 47.153 91.7251 47.1535 91.9108C47.1945 92.6342 47.3255 93.3497 47.5432 94.0408C47.6948 94.6911 48.049 95.2765 48.5547 95.7126C48.792 95.9109 49.0564 96.0742 49.34 96.1975C49.6124 96.3065 49.8988 96.3767 50.1908 96.4057C50.7284 96.452 51.2677 96.3381 51.7407 96.0785C52.1561 95.8552 52.4662 95.4766 52.6034 95.0254C52.7085 94.644 52.7348 94.2452 52.6807 93.8533C52.6022 93.3075 52.4522 92.7744 52.2345 92.2678C52.1601 92.0923 52.1006 91.9703 52.059 91.8751L51.9965 91.7412C51.9965 91.7412 52.0262 91.7829 52.0738 91.8662C52.1214 91.9495 52.1839 92.0804 52.2642 92.2559C52.4945 92.7612 52.6547 93.2957 52.7402 93.8444C52.8001 94.2415 52.7768 94.6467 52.6718 95.0343C52.6035 95.2686 52.4895 95.487 52.3363 95.6769C52.1831 95.8669 51.9938 96.0246 51.7793 96.141C51.2912 96.4135 50.7333 96.5357 50.1759 96.492C49.8699 96.4645 49.5694 96.3934 49.2835 96.2808C48.817 96.0867 48.4036 95.7841 48.0777 95.3981C47.7517 95.0121 47.5226 94.5539 47.4094 94.0616C47.1852 93.3594 47.0503 92.6318 47.0078 91.8959C47.0069 91.7963 47.0148 91.6967 47.0316 91.5984C47.0502 91.4979 47.0751 91.3985 47.1059 91.301C47.1625 91.1195 47.21 90.9321 47.2606 90.7447C47.3558 90.3639 47.454 89.9802 47.5581 89.5875C47.7425 88.8051 47.9359 87.996 48.1322 87.169C48.519 85.512 48.9146 83.7688 49.3222 81.9601C49.7297 80.1514 50.1373 78.2743 50.4645 76.3437C50.5924 75.365 50.8155 74.419 50.9999 73.4789C51.1011 73.0119 51.1874 72.5478 51.2974 72.0838C51.3486 71.8439 51.4562 71.6197 51.6114 71.4298C51.7667 71.2399 51.965 71.0898 52.1899 70.992C52.6473 70.8148 53.1552 70.819 53.6096 71.0036C54.0641 71.1883 54.4309 71.5396 54.6351 71.9856C54.6738 72.0957 54.7125 72.2028 54.7452 72.3128L54.7928 72.6549C54.7928 72.878 54.7928 73.0952 54.8107 73.3153C54.8107 73.7497 54.8107 74.181 54.8107 74.6094C54.814 75.4406 54.7653 76.2712 54.6649 77.0963C54.5846 77.8995 54.4983 78.6789 54.3972 79.4285C54.2008 80.9338 53.9539 82.323 53.707 83.5933L52.4933 89.5726C52.3475 90.2717 52.2345 90.8161 52.1542 91.1939C52.1155 91.3753 52.0857 91.5152 52.0619 91.6163C52.0381 91.7174 52.0352 91.7531 52.0352 91.7531Z" fill="#263238"/>
<path d="M51.8359 73.1339C51.8449 73.3485 51.9174 73.5556 52.0441 73.729C52.1709 73.9024 52.3462 74.0343 52.5479 74.1081C52.7497 74.1818 52.9688 74.194 53.1775 74.1433C53.3862 74.0925 53.5751 73.9809 53.7204 73.8227C53.8657 73.6645 53.9608 73.4668 53.9937 73.2545C54.0266 73.0422 53.9958 72.825 53.9052 72.6303C53.8146 72.4355 53.6683 72.272 53.4847 72.1604C53.3012 72.0488 53.0887 71.9942 52.8741 72.0034C52.5868 72.0166 52.3164 72.1428 52.1219 72.3546C51.9274 72.5664 51.8246 72.8465 51.8359 73.1339Z" fill="#263238"/>
<path d="M49.2537 94.1508C49.2633 94.3653 49.3363 94.5721 49.4634 94.7451C49.5904 94.9181 49.766 95.0495 49.9677 95.1228C50.1695 95.1961 50.3884 95.2079 50.5969 95.1568C50.8054 95.1057 50.9941 94.9939 51.1391 94.8356C51.2841 94.6773 51.3789 94.4796 51.4116 94.2675C51.4442 94.0553 51.4133 93.8382 51.3226 93.6436C51.232 93.4491 51.0857 93.2857 50.9022 93.1743C50.7188 93.0628 50.5064 93.0082 50.2919 93.0174C50.1493 93.0235 50.0093 93.0577 49.8798 93.118C49.7504 93.1783 49.6342 93.2635 49.5378 93.3688C49.4413 93.4741 49.3666 93.5973 49.3179 93.7315C49.2691 93.8657 49.2473 94.0082 49.2537 94.1508Z" fill="#263238"/>
<path d="M48.1977 93.1513C48.7375 92.8815 49.2999 92.6595 49.8785 92.4879C50.4383 92.2649 51.0166 92.0917 51.6068 91.9703C51.0669 92.2374 50.5057 92.4593 49.929 92.6337C49.367 92.8531 48.788 93.0262 48.1977 93.1513Z" fill="#263238"/>
<path d="M51.8269 84.2447C52.121 84.2447 52.3594 84.0063 52.3594 83.7122C52.3594 83.4181 52.121 83.1797 51.8269 83.1797C51.5328 83.1797 51.2944 83.4181 51.2944 83.7122C51.2944 84.0063 51.5328 84.2447 51.8269 84.2447Z" fill="#263238"/>
<path d="M50.64 89.8582C50.6406 89.9642 50.6097 90.068 50.5512 90.1565C50.4927 90.2449 50.4093 90.314 50.3115 90.355C50.2137 90.396 50.106 90.407 50.0019 90.3867C49.8979 90.3664 49.8022 90.3156 49.727 90.2408C49.6518 90.1661 49.6005 90.0707 49.5796 89.9667C49.5587 89.8628 49.5691 89.7549 49.6096 89.6569C49.65 89.5589 49.7186 89.4751 49.8068 89.4161C49.8949 89.3572 49.9985 89.3257 50.1045 89.3257C50.246 89.3257 50.3818 89.3817 50.4821 89.4815C50.5825 89.5812 50.6392 89.7167 50.64 89.8582Z" fill="#263238"/>
</svg>
