<svg width="121" height="100" viewBox="0 0 121 100" fill="none" xmlns="http://www.w3.org/2000/svg">
<path d="M11.25 47.9458H9.61045C7.85105 47.9458 6.16371 48.6417 4.91963 49.8805C3.67554 51.1192 2.97662 52.7993 2.97662 54.5512V90.7982C2.97662 92.5501 3.67554 94.2302 4.91963 95.4689C6.16371 96.7077 7.85105 97.4036 9.61045 97.4036H32.1043C33.8637 97.4036 35.5511 96.7077 36.7952 95.4689C38.0393 94.2302 38.7382 92.5501 38.7382 90.7982" stroke="#263238" stroke-width="1.10311" stroke-linecap="round" stroke-linejoin="round" stroke-dasharray="4.41 4.41"/>
<path d="M36.905 13.744V6.58433C36.905 5.51305 37.3318 4.48551 38.0917 3.72715C38.8516 2.96879 39.8826 2.54155 40.9585 2.53915H70.2103C71.2877 2.53915 72.3211 2.96534 73.083 3.72396C73.8448 4.48258 74.2729 5.51149 74.2729 6.58433" stroke="#263238" stroke-width="1.10311" stroke-linecap="round" stroke-linejoin="round" stroke-dasharray="4.41 4.41"/>
<path d="M117.836 23.3494V77.5843C117.836 79.3572 117.129 81.0576 115.87 82.3115C114.611 83.5654 112.904 84.2703 111.123 84.2711H15.3216C13.5411 84.2703 11.8338 83.5654 10.575 82.3115C9.31627 81.0576 8.60916 79.3572 8.60916 77.5843V23.3494C8.60916 23.1898 8.60916 23.0482 8.63034 22.8795C8.74826 21.1924 9.50442 19.6126 10.7462 18.4588C11.9881 17.305 13.6232 16.6631 15.3216 16.6627H111.123C112.824 16.6634 114.461 17.3069 115.703 18.4632C116.945 19.6195 117.7 21.2023 117.815 22.8916C117.83 23.0361 117.836 23.1928 117.836 23.3494Z" fill="white" stroke="#263238" stroke-width="1.10311" stroke-linecap="round" stroke-linejoin="round"/>
<path d="M11.8762 25.3855H114.911V75.4849C114.911 77.1465 114.248 78.7401 113.068 79.915C111.888 81.0899 110.287 81.75 108.619 81.75H18.1712C16.5024 81.75 14.902 81.0899 13.7221 79.915C12.5421 78.7401 11.8792 77.1465 11.8792 75.4849V25.3855H11.8762Z" fill="#263238"/>
<path opacity="0.2" d="M114.914 25.3855V75.4849C114.923 77.1372 114.272 78.7254 113.105 79.9003C111.938 81.0751 110.351 81.7404 108.691 81.75H18.0986C16.4392 81.7404 14.8515 81.0751 13.6847 79.9003C12.5178 78.7254 11.8673 77.1372 11.8762 75.4849V25.3855H114.914Z" fill="white"/>
<path d="M117.815 22.8917H8.63052C8.74845 21.2046 9.5046 19.6248 10.7464 18.471C11.9883 17.3172 13.6233 16.6753 15.3218 16.6748H111.124C112.822 16.6753 114.457 17.3172 115.699 18.471C116.941 19.6248 117.697 21.2046 117.815 22.8917Z" fill="#FE6250" stroke="#263238" stroke-width="1.10311" stroke-miterlimit="10"/>
<path d="M22.0462 19.7711C22.0462 20.0052 21.9765 20.2341 21.8458 20.4287C21.7152 20.6234 21.5295 20.7751 21.3123 20.8647C21.0951 20.9543 20.8561 20.9777 20.6254 20.9321C20.3948 20.8864 20.183 20.7737 20.0167 20.6081C19.8505 20.4426 19.7373 20.2316 19.6914 20.002C19.6455 19.7724 19.6691 19.5344 19.759 19.3181C19.849 19.1018 20.0014 18.9169 20.1969 18.7868C20.3924 18.6568 20.6222 18.5873 20.8574 18.5873C21.1727 18.5873 21.4751 18.7121 21.698 18.9341C21.9209 19.1561 22.0462 19.4571 22.0462 19.7711Z" fill="#263238"/>
<path d="M27.0738 19.7711C27.0738 20.0052 27.004 20.2341 26.8734 20.4287C26.7428 20.6234 26.5571 20.7751 26.3399 20.8647C26.1226 20.9543 25.8836 20.9777 25.653 20.9321C25.4224 20.8864 25.2106 20.7737 25.0443 20.6081C24.878 20.4426 24.7648 20.2316 24.7189 20.002C24.6731 19.7724 24.6966 19.5344 24.7866 19.3181C24.8766 19.1018 25.029 18.9169 25.2245 18.7868C25.42 18.6568 25.6498 18.5873 25.8849 18.5873C26.2002 18.5873 26.5026 18.7121 26.7256 18.9341C26.9485 19.1561 27.0738 19.4571 27.0738 19.7711Z" fill="#263238"/>
<path d="M30.9125 20.9548C31.5691 20.9548 32.1013 20.4248 32.1013 19.7711C32.1013 19.1173 31.5691 18.5873 30.9125 18.5873C30.2559 18.5873 29.7237 19.1173 29.7237 19.7711C29.7237 20.4248 30.2559 20.9548 30.9125 20.9548Z" fill="#263238"/>
<path d="M114.911 25.3855V75.4849C114.911 77.1465 114.248 78.7401 113.068 79.915C111.888 81.0899 110.287 81.75 108.619 81.75H18.1712C16.7147 81.7497 15.3035 81.2464 14.1782 80.3258C13.0528 79.4052 12.2831 78.1244 12.0002 76.7018V76.6837C11.9233 76.2867 11.8848 75.8833 11.8852 75.4789V25.3855H114.911Z" stroke="#263238" stroke-width="1.10311" stroke-miterlimit="10"/>
<path d="M114.814 33.1325C114.373 32.8859 113.904 32.6927 113.416 32.5572L112.851 30.0422H110.449L109.889 32.5572C109.399 32.6903 108.928 32.8836 108.486 33.1325L106.317 31.75L104.62 33.4337L105.984 35.5934C105.734 36.0337 105.54 36.5031 105.406 36.991L102.88 37.5482V39.9398L105.406 40.503C105.539 40.9933 105.733 41.4649 105.984 41.9066L104.595 44.0813L106.295 45.7711L108.476 44.3886C108.918 44.6379 109.388 44.8322 109.877 44.9669L110.44 47.4789H112.832L113.395 44.9669C113.883 44.8308 114.352 44.6367 114.793 44.3886L114.905 44.4608V33.0723L114.814 33.1325ZM111.656 41.8675C111.042 41.8675 110.442 41.6861 109.931 41.3464C109.421 41.0067 109.023 40.5239 108.788 39.959C108.553 39.3942 108.492 38.7727 108.612 38.1731C108.732 37.5735 109.028 37.0229 109.462 36.5908C109.897 36.1588 110.45 35.8647 111.052 35.7458C111.654 35.6269 112.279 35.6885 112.846 35.9229C113.413 36.1572 113.897 36.5538 114.238 37.0624C114.579 37.571 114.76 38.1688 114.759 38.7801C114.759 39.1858 114.679 39.5875 114.523 39.9623C114.367 40.3371 114.138 40.6775 113.85 40.9643C113.562 41.251 113.22 41.4783 112.843 41.6333C112.467 41.7883 112.063 41.8679 111.656 41.8675Z" fill="#263238"/>
<path d="M71.5261 35.5572V30.5151L66.2021 29.3373C65.9148 28.313 65.5088 27.3254 64.9921 26.3946L65.6365 25.3855H40.4987L41.1188 26.3675C40.5959 27.2942 40.1895 28.2816 39.9088 29.3072L34.5818 30.488V35.5422L39.9088 36.7259C40.1895 37.7592 40.5958 38.7545 41.1188 39.6898L38.1937 44.2711L41.7783 47.8374L46.3763 44.9217C47.3091 45.4442 48.3013 45.8537 49.3317 46.1416L50.5175 51.4277H55.5693L56.7611 46.1295C57.7882 45.8403 58.7772 45.4308 59.7075 44.9096L64.3085 47.8253L67.8901 44.259L64.9831 39.6777C65.4984 38.7483 65.9044 37.7629 66.1931 36.741L71.5261 35.5572ZM53.0736 39.5512C51.7795 39.5512 50.5145 39.1691 49.4385 38.4532C48.3625 37.7373 47.5239 36.7198 47.0286 35.5294C46.5334 34.3389 46.4038 33.0289 46.6563 31.7651C46.9088 30.5013 47.5319 29.3405 48.447 28.4293C49.3621 27.5182 50.5279 26.8977 51.7971 26.6463C53.0664 26.3949 54.382 26.5239 55.5776 27.017C56.7732 27.5101 57.795 28.3452 58.514 29.4166C59.233 30.488 59.6167 31.7476 59.6167 33.0361C59.6171 33.8918 59.4481 34.7392 59.1195 35.5298C58.7908 36.3204 58.3088 37.0388 57.7012 37.6439C57.0935 38.2489 56.3721 38.7288 55.578 39.0561C54.784 39.3834 53.933 39.5516 53.0736 39.5512Z" fill="#263238"/>
<path d="M37.9275 70.1807L38.1422 66.1777L33.9768 65.009C33.7834 64.1864 33.4973 63.3881 33.1238 62.6295L35.6406 59.1114L32.9423 56.1325L29.1731 58.241C28.4527 57.7896 27.6822 57.4227 26.8771 57.1476L26.1572 52.8946L22.14 52.7108L20.9784 56.8705C20.1507 57.0553 19.3484 57.3384 18.5886 57.7139L15.0585 55.2108L12.0607 57.8946L14.1963 61.6506C13.7385 62.3648 13.3688 63.1314 13.0952 63.9337L11.8852 64.1325V69.5542L12.7685 69.8012C12.9518 70.6265 13.2352 71.4266 13.6125 72.1837L11.8762 74.6084L11.9911 76.6837V76.7018L13.7849 78.6807L17.5601 76.5572C18.2793 77.0178 19.0524 77.389 19.8622 77.6627L20.57 81.747L20.6033 81.9187L24.6205 82.1295L24.7264 81.747L25.7821 77.9729C26.6134 77.7875 27.4197 77.5044 28.1839 77.1295L31.7081 79.6295L34.7028 76.9488L32.5853 73.1898C33.0389 72.4764 33.4036 71.7108 33.6713 70.9096L37.9275 70.1807ZM27.2583 63.9307C26.5702 63.1686 25.6705 62.6268 24.6731 62.3739C23.6756 62.121 22.6253 62.1683 21.6549 62.5099C20.6845 62.8515 19.8376 63.472 19.2215 64.2929C18.6053 65.1138 18.2475 66.0982 18.1933 67.1217C18.1391 68.1451 18.391 69.1615 18.9171 70.0424C19.4431 70.9233 20.2198 71.629 21.1487 72.0703C22.0777 72.5115 23.1172 72.6686 24.1358 72.5215C25.1544 72.3744 26.1063 71.9298 26.8711 71.244C27.8922 70.3254 28.5063 69.0414 28.5788 67.673C28.6514 66.3046 28.1766 64.9634 27.2583 63.9428V63.9307Z" fill="#263238"/>
<path d="M70.059 64.2139C70.2145 63.594 70.2967 62.9581 70.304 62.3193L73.1929 60.8133L72.3943 57.8946L69.1334 58.0452C68.8031 57.4997 68.4102 56.9943 67.9627 56.5392L68.9276 53.4337L66.2959 51.9277L64.0937 54.3193C63.4723 54.1699 62.8362 54.0891 62.197 54.0783L60.6845 51.2018L57.7563 51.994L57.9106 55.244C57.3627 55.5728 56.8551 55.9639 56.3981 56.4096L53.2763 55.4488L51.7638 58.0663L54.1838 60.256C54.0273 60.8735 53.9471 61.5077 53.9448 62.1446L51.0499 63.6506L51.8485 66.5663L55.1155 66.4127C55.4393 66.9609 55.8305 67.4668 56.2801 67.9187L55.3091 71.009L57.9439 72.5151L60.134 70.1416C60.7562 70.2975 61.3951 70.3774 62.0367 70.3795L63.5492 73.259L66.4774 72.4669L66.3473 69.6898L66.3262 69.2139C66.8817 68.8882 67.3957 68.4968 67.8568 68.0482L70.9756 69.0121L72.2642 66.7711L72.482 66.3916L70.059 64.2139ZM63.1408 65.9849C62.3899 66.1912 61.5944 66.1707 60.8552 65.9261C60.116 65.6815 59.4664 65.2238 58.9888 64.6111C58.5112 63.9984 58.2271 63.2582 58.1725 62.4845C58.1179 61.7108 58.2954 60.9384 58.6823 60.2652C59.0692 59.592 59.6482 59.0484 60.3458 58.7034C61.0434 58.3583 61.8283 58.2273 62.6008 58.327C63.3733 58.4267 64.0986 58.7526 64.6848 59.2633C65.2711 59.7741 65.6918 60.4467 65.8936 61.1958C66.1625 62.1942 66.0241 63.258 65.5084 64.1552C64.9927 65.0524 64.1416 65.7101 63.1408 65.9849Z" fill="#263238"/>
<path d="M103.552 69.3464L104.217 65.3404L100.146 63.7108C100.053 62.8571 99.8572 62.0176 99.5618 61.2108L102.493 57.9608L100.121 54.6476L96.0801 56.3554C95.4091 55.8199 94.6758 55.3668 93.896 55.006L93.6601 50.6416L89.6368 49.9789L87.9882 54.0151C87.1345 54.1149 86.2951 54.312 85.4865 54.6024L82.2135 51.6837L78.9011 54.0452L80.6193 58.0663C80.1464 58.654 79.7358 59.2889 79.3942 59.9608C79.3488 60.0542 79.3004 60.1476 79.258 60.241L74.8778 60.4819L74.2093 64.4819L74.8688 64.747L78.281 66.1175C78.3741 66.9672 78.5701 67.8026 78.8648 68.6054L75.9275 71.8765L78.3021 75.1898L82.3405 73.4729C83.0093 74.0132 83.7417 74.4704 84.5215 74.8343L84.7484 79.1777L88.7686 79.8404L90.4142 75.8343C91.2698 75.7413 92.1109 75.5451 92.9189 75.25L96.1859 78.1687L99.5134 75.8042L97.7952 71.7801C98.3426 71.1114 98.8049 70.3779 99.1716 69.5964L103.552 69.3464ZM92.2686 69.1657C91.4222 69.7703 90.4147 70.1115 89.3736 70.146C88.3325 70.1805 87.3045 69.9068 86.4196 69.3595C85.5347 68.8122 84.8327 68.0159 84.4023 67.0713C83.972 66.1267 83.8326 65.0763 84.0019 64.0528C84.1711 63.0294 84.6414 62.0789 85.3532 61.3216C86.0651 60.5643 86.9864 60.0342 88.0008 59.7983C89.0153 59.5625 90.0771 59.6314 91.0522 59.9965C92.0272 60.3616 92.8716 61.0064 93.4786 61.8494C94.2916 62.9802 94.6203 64.3862 94.3922 65.7583C94.1642 67.1303 93.3981 68.356 92.2625 69.1657H92.2686Z" fill="#263238"/>
<path d="M49.0292 39.6898H17.3938C15.2035 39.6898 13.428 41.4577 13.428 43.6386V87.25C13.428 89.4309 15.2035 91.1988 17.3938 91.1988H49.0292C51.2194 91.1988 52.995 89.4309 52.995 87.25V43.6386C52.995 41.4577 51.2194 39.6898 49.0292 39.6898Z" fill="#FE6250" stroke="#263238" stroke-width="1.10311" stroke-miterlimit="10"/>
<path opacity="0.2" d="M49.0292 39.6898H17.3938C15.2035 39.6898 13.428 41.4577 13.428 43.6386V87.25C13.428 89.4309 15.2035 91.1988 17.3938 91.1988H49.0292C51.2194 91.1988 52.995 89.4309 52.995 87.25V43.6386C52.995 41.4577 51.2194 39.6898 49.0292 39.6898Z" fill="black"/>
<path d="M56.6764 47.5301V91.1416C56.6768 91.6604 56.5745 92.1742 56.3754 92.6536C56.1763 93.1331 55.8842 93.5687 55.5159 93.9357C55.1476 94.3027 54.7103 94.5939 54.229 94.7925C53.7476 94.9911 53.2317 95.0934 52.7106 95.0934H21.0752C20.5544 95.093 20.0388 94.9904 19.5578 94.7916C19.0768 94.5928 18.6398 94.3016 18.2718 93.9347C17.9039 93.5677 17.6121 93.1322 17.4131 92.6529C17.2142 92.1737 17.112 91.6601 17.1124 91.1416V47.5301C17.1124 46.4834 17.5298 45.4794 18.2729 44.739C19.016 43.9985 20.0239 43.5821 21.0752 43.5813H52.7106C53.7624 43.5813 54.7711 43.9974 55.5149 44.7379C56.2586 45.4784 56.6764 46.4828 56.6764 47.5301Z" fill="white" stroke="#263238" stroke-width="1.10311" stroke-linecap="round" stroke-linejoin="round"/>
<path d="M56.6764 47.5301V49.8645H17.1124V47.5301C17.1124 46.4834 17.5298 45.4794 18.2729 44.739C19.016 43.9985 20.0239 43.5821 21.0752 43.5813H52.7106C53.7624 43.5813 54.7711 43.9974 55.5149 44.7379C56.2586 45.4784 56.6764 46.4828 56.6764 47.5301Z" fill="#FE6250" stroke="#263238" stroke-width="1.10311" stroke-miterlimit="10"/>
<path d="M30.5676 52.5693H20.8332V54.1958H30.5676V52.5693Z" fill="#FE6250"/>
<path d="M30.5676 67.1446H20.8332V68.7711H30.5676V67.1446Z" fill="#FE6250"/>
<path d="M30.5676 80.3615H20.8332V81.988H30.5676V80.3615Z" fill="#FE6250"/>
<path d="M48.4787 56.5964H20.8332V57.7892H48.4787V56.5964Z" fill="#263238"/>
<path d="M43.4935 58.8765H20.8332V60.0392H43.4935V58.8765Z" fill="#263238"/>
<path d="M46.461 61.1205H20.8332V62.2831H46.461V61.1205Z" fill="#263238"/>
<path d="M46.461 63.3614H20.8332V64.5241H46.461V63.3614Z" fill="#263238"/>
<path d="M48.4787 69.8133H20.8332V71.006H48.4787V69.8133Z" fill="#263238"/>
<path d="M43.4935 72.0934H20.8332V73.256H43.4935V72.0934Z" fill="#263238"/>
<path d="M46.461 74.3373H20.8332V75.5H46.461V74.3373Z" fill="#263238"/>
<path d="M48.4787 84.3253H20.8332V85.5181H48.4787V84.3253Z" fill="#263238"/>
<path d="M43.4935 86.6084H20.8332V87.7711H43.4935V86.6084Z" fill="#263238"/>
<path d="M46.461 88.8524H20.8332V90.0151H46.461V88.8524Z" fill="#263238"/>
<path d="M101.268 13.3404V30.9669C101.268 31.5854 101.146 32.1978 100.908 32.7692C100.67 33.3405 100.321 33.8597 99.882 34.2969C99.4427 34.7341 98.9211 35.0808 98.3471 35.3172C97.7731 35.5536 97.158 35.6751 96.5368 35.6747H55.7659C55.1447 35.6751 54.5296 35.5536 53.9556 35.3172C53.3816 35.0808 52.86 34.7341 52.4207 34.2969C51.9813 33.8597 51.6328 33.3405 51.395 32.7692C51.1572 32.1978 51.0348 31.5854 51.0348 30.9669V13.3404C51.0356 12.0912 51.5343 10.8935 52.4214 10.0102C53.3085 9.12689 54.5114 8.63031 55.7659 8.62952H96.5368C97.7916 8.62952 98.995 9.12584 99.8822 10.0093C100.769 10.8927 101.268 12.091 101.268 13.3404Z" fill="white" stroke="#222221" stroke-width="1.10311" stroke-miterlimit="10"/>
<path d="M101.268 13.3404V13.744H51.0348V13.3404C51.0356 12.0912 51.5343 10.8935 52.4214 10.0102C53.3085 9.12689 54.5114 8.63031 55.7659 8.62952H96.5368C97.7916 8.62952 98.995 9.12584 99.8822 10.0093C100.769 10.8927 101.268 12.091 101.268 13.3404Z" fill="#FE6250" stroke="#263238" stroke-width="1.10311" stroke-miterlimit="10"/>
<path d="M58.4158 12.0301C58.3143 12.1314 58.185 12.2004 58.0441 12.2284C57.9032 12.2565 57.7571 12.2423 57.6244 12.1876C57.4916 12.1329 57.3781 12.0403 57.2983 11.9214C57.2184 11.8025 57.1758 11.6626 57.1758 11.5196C57.1758 11.3765 57.2184 11.2367 57.2983 11.1178C57.3781 10.9989 57.4916 10.9062 57.6244 10.8515C57.7571 10.7969 57.9032 10.7827 58.0441 10.8107C58.185 10.8387 58.3143 10.9078 58.4158 11.009C58.5508 11.1449 58.6266 11.3284 58.6266 11.5196C58.6266 11.7108 58.5508 11.8942 58.4158 12.0301Z" fill="#263238"/>
<path d="M61.7796 12.0301C61.6781 12.1314 61.5488 12.2004 61.4079 12.2284C61.267 12.2565 61.1209 12.2423 60.9882 12.1876C60.8554 12.1329 60.7419 12.0403 60.6621 11.9214C60.5822 11.8025 60.5396 11.6626 60.5396 11.5196C60.5396 11.3765 60.5822 11.2367 60.6621 11.1178C60.7419 10.9989 60.8554 10.9062 60.9882 10.8515C61.1209 10.7969 61.267 10.7827 61.4079 10.8107C61.5488 10.8387 61.6781 10.9078 61.7796 11.009C61.9146 11.1449 61.9904 11.3284 61.9904 11.5196C61.9904 11.7108 61.9146 11.8942 61.7796 12.0301Z" fill="#263238"/>
<path d="M65.1434 12.0301C65.0419 12.1314 64.9125 12.2004 64.7717 12.2284C64.6308 12.2565 64.4847 12.2423 64.352 12.1876C64.2192 12.1329 64.1057 12.0403 64.0259 11.9214C63.946 11.8025 63.9034 11.6626 63.9034 11.5196C63.9034 11.3765 63.946 11.2367 64.0259 11.1178C64.1057 10.9989 64.2192 10.9062 64.352 10.8515C64.4847 10.7969 64.6308 10.7827 64.7717 10.8107C64.9125 10.8387 65.0419 10.9078 65.1434 11.009C65.2784 11.1449 65.3541 11.3284 65.3541 11.5196C65.3541 11.7108 65.2784 11.8942 65.1434 12.0301Z" fill="#263238"/>
<path d="M70.6579 16.9849H54.2383V31.1175H70.6579V16.9849Z" stroke="#263238" stroke-width="1.10311" stroke-linecap="round" stroke-linejoin="round" stroke-dasharray="4.41 4.41"/>
<path d="M92.0901 16.9849H73.1929V17.9789H92.0901V16.9849Z" fill="#263238"/>
<path d="M87.6887 19.0422H73.1929V20.0331H87.6887V19.0422Z" fill="#263238"/>
<path d="M94.7763 21.0904H73.1929V22.0934H94.7763V21.0904Z" fill="#263238"/>
<path d="M91.5728 23.0873H73.1929V24.0904H91.5728V23.0873Z" fill="#263238"/>
<path d="M102.641 57.0874H93.3999C92.309 57.0874 91.4246 57.968 91.4246 59.0542V64.4548C91.4246 65.5411 92.309 66.4217 93.3999 66.4217H102.641C103.732 66.4217 104.617 65.5411 104.617 64.4548V59.0542C104.617 57.968 103.732 57.0874 102.641 57.0874Z" fill="white" stroke="#263238" stroke-width="1.10311" stroke-linecap="round" stroke-linejoin="round"/>
<path d="M95.6808 59.8946L93.1428 61.4789L95.4993 63.5572" stroke="#263238" stroke-width="1.10311" stroke-linecap="round" stroke-linejoin="round"/>
<path d="M100.303 63.7078L102.584 61.7741L99.9521 60.0572" stroke="#263238" stroke-width="1.10311" stroke-linecap="round" stroke-linejoin="round"/>
<path d="M96.9149 64.9006L98.7874 59.0512" stroke="#263238" stroke-width="1.10311" stroke-linecap="round" stroke-linejoin="round"/>
</svg>
