<svg width="414" height="432" viewBox="0 0 414 432" fill="none" xmlns="http://www.w3.org/2000/svg">
<g filter="url(#filter0_d_19_478)">
<g clip-path="url(#clip0_19_478)">
<path d="M0 30C0 13.4315 13.4315 0 30 0H384C400.569 0 414 13.4315 414 30V374C414 401.614 391.614 424 364 424H50C22.3858 424 0 401.614 0 374V30Z" fill="#47C5FB"/>
<path d="M486.709 28.2183C495.255 -18.9986 464.75 -70.9343 417.151 -91.9203C369.552 -112.906 309.302 -101.776 275.248 -66.5932C271.491 -62.7107 267.973 -58.537 264.455 -54.3639C255.374 -43.5901 246.297 -32.8199 233.098 -27.0718C218.028 -20.5088 200.99 -21.8643 183.78 -23.2336C172.852 -24.1031 161.854 -24.9781 151.248 -23.8344C125.679 -21.0775 102.629 -5.57178 92.0874 15.9638C75.004 50.8622 92.1774 94.7713 122.38 122.799C152.582 150.826 193.219 166.339 232.897 180.293C248.076 185.631 258.14 199.44 264.355 213.367C266.761 218.759 268.762 224.299 270.761 229.834C273.925 238.597 277.086 247.35 281.847 255.491C302.01 289.963 350.914 306.662 389.962 294.681C429.009 282.7 455.308 245.149 454.918 206.545C454.851 199.896 454.087 193.255 453.323 186.613C452.592 180.255 451.86 173.896 451.74 167.53C451.483 153.924 454.02 140.513 456.791 127.256C460.095 111.45 463.753 95.6854 469.091 80.4329C470.948 75.127 473.01 69.8774 475.071 64.6288C479.754 52.7021 484.436 40.7808 486.709 28.2183Z" fill="white" fill-opacity="0.48"/>
<path d="M230.179 191.408C246.753 204.372 258.029 222.698 263.272 242.008C263.959 244.54 264.549 247.197 263.907 249.692C263.265 252.188 261.045 254.462 258.256 254.468C254.261 254.477 251.808 250.369 250.138 246.942C238.661 223.394 218.802 202.314 193.029 192.588C183.13 188.853 172.65 186.86 162.243 184.888L145.987 181.807C132.894 179.325 119.624 176.788 107.552 171.246C95.4809 165.703 84.5434 156.701 79.9885 144.98C78.5386 141.25 77.7814 137.081 79.2916 133.476C80.8393 129.781 84.592 127.229 88.667 126.017C92.742 124.804 97.149 124.764 101.478 124.884C104.648 124.972 107.865 125.148 110.905 126.086C115.876 127.621 119.906 131.025 123.827 134.337C124.088 134.558 124.349 134.778 124.609 134.998C131.466 140.77 138.71 146.172 146.514 150.765C157.895 157.463 170.367 162.392 182.809 167.308C199.57 173.932 216.275 180.533 230.179 191.408Z" fill="white" fill-opacity="0.48"/>
<path d="M187.639 -58.5202L187.65 -58.5181C188.415 -58.3646 189.18 -58.2112 189.944 -58.0666C202.04 -55.7785 214.518 -55.6439 226.491 -57.6726C231.056 -58.4461 235.78 -59.6507 238.97 -62.7062C242.918 -66.4868 247.368 -69.8149 252.196 -72.5981C254.069 -73.6779 256.061 -74.6956 258.277 -74.9461C260.493 -75.1966 262.995 -74.5269 264.333 -72.8097C265.959 -70.7235 265.408 -67.8419 264.219 -65.6091C262.271 -61.9501 258.926 -59.1553 255.635 -56.4703C244.835 -47.6593 233.601 -38.9539 220.267 -33.777C206.932 -28.6001 191.019 -27.3401 177.667 -33.4233C173.057 -35.5237 168.725 -38.5939 166.346 -42.8207C163.967 -47.0475 163.946 -52.5577 167.216 -56.0247C169.81 -58.7751 173.993 -59.8491 178.007 -59.8237C181.242 -59.8032 184.444 -59.161 187.639 -58.5202Z" fill="white" fill-opacity="0.48"/>
<path d="M472.334 180.941C468.872 181.284 465.572 179.08 463.325 176.515C458.887 171.449 457.142 164.767 457.153 158.361C457.165 151.955 458.78 145.712 460.387 139.538L474.192 86.488C475.2 82.6123 476.392 78.4603 479.731 76.0116C480.776 75.2453 482.094 74.6684 483.442 74.86C485.076 75.0922 486.333 76.3738 487.241 77.6775C492.209 84.8066 490.921 93.8567 489.747 102.106L489.704 102.405C487.982 114.514 487.087 126.753 487.027 139.025C487.011 142.476 487.064 145.966 487.946 149.35C490.71 159.961 486.654 171.62 477.839 178.401C476.245 179.627 474.423 180.733 472.334 180.941Z" fill="white" fill-opacity="0.48"/>
</g>
</g>
<defs>
<filter id="filter0_d_19_478" x="0" y="0" width="422" height="432" filterUnits="userSpaceOnUse" color-interpolation-filters="sRGB">
<feFlood flood-opacity="0" result="BackgroundImageFix"/>
<feColorMatrix in="SourceAlpha" type="matrix" values="0 0 0 0 0 0 0 0 0 0 0 0 0 0 0 0 0 0 127 0" result="hardAlpha"/>
<feOffset dx="4" dy="4"/>
<feGaussianBlur stdDeviation="2"/>
<feComposite in2="hardAlpha" operator="out"/>
<feColorMatrix type="matrix" values="0 0 0 0 0 0 0 0 0 0 0 0 0 0 0 0 0 0 0.1 0"/>
<feBlend mode="normal" in2="BackgroundImageFix" result="effect1_dropShadow_19_478"/>
<feBlend mode="normal" in="SourceGraphic" in2="effect1_dropShadow_19_478" result="shape"/>
</filter>
<clipPath id="clip0_19_478">
<path d="M0 30C0 13.4315 13.4315 0 30 0H384C400.569 0 414 13.4315 414 30V374C414 401.614 391.614 424 364 424H50C22.3858 424 0 401.614 0 374V30Z" fill="white"/>
</clipPath>
</defs>
</svg>
