<svg width="186" height="198" viewBox="0 0 186 198" fill="none" xmlns="http://www.w3.org/2000/svg">
<g filter="url(#filter0_d_19_439)">
<g clip-path="url(#clip0_19_439)">
<rect width="178" height="190" rx="18.3089" fill="#FFAB01"/>
<path fill-rule="evenodd" clip-rule="evenodd" d="M84.6405 16.6802C100.72 18.1516 114.465 25.8338 127.407 34.233C140.162 42.511 153.298 51.3891 158.317 64.4954C163.352 77.6431 160.866 92.2045 154.467 104.899C148.469 116.797 135.764 124.155 124.122 132.328C111.727 141.031 100.557 152.978 84.6405 153.924C68.39 154.889 53.2723 146.565 41.0182 137.266C29.5486 128.563 22.3529 116.636 18.6221 103.827C15.0851 91.6828 18.0655 79.5411 20.6149 67.2127C23.6217 52.6719 22.1629 35.7031 34.7664 25.7558C47.6402 15.5951 67.3233 15.0956 84.6405 16.6802Z" fill="white" fill-opacity="0.32"/>
</g>
</g>
<defs>
<filter id="filter0_d_19_439" x="0" y="0" width="186" height="198" filterUnits="userSpaceOnUse" color-interpolation-filters="sRGB">
<feFlood flood-opacity="0" result="BackgroundImageFix"/>
<feColorMatrix in="SourceAlpha" type="matrix" values="0 0 0 0 0 0 0 0 0 0 0 0 0 0 0 0 0 0 127 0" result="hardAlpha"/>
<feOffset dx="4" dy="4"/>
<feGaussianBlur stdDeviation="2"/>
<feComposite in2="hardAlpha" operator="out"/>
<feColorMatrix type="matrix" values="0 0 0 0 0 0 0 0 0 0 0 0 0 0 0 0 0 0 0.1 0"/>
<feBlend mode="normal" in2="BackgroundImageFix" result="effect1_dropShadow_19_439"/>
<feBlend mode="normal" in="SourceGraphic" in2="effect1_dropShadow_19_439" result="shape"/>
</filter>
<clipPath id="clip0_19_439">
<rect width="178" height="190" rx="18.31" fill="white"/>
</clipPath>
</defs>
</svg>
