<svg width="28" height="26" viewBox="0 0 28 26" fill="none" xmlns="http://www.w3.org/2000/svg">
<path d="M3.44589 3.14625C3.44589 2.31181 3.80894 1.51155 4.45517 0.921516C5.1014 0.331479 5.97788 0 6.89178 0L20.6754 0C21.5893 0 22.4657 0.331479 23.112 0.921516C23.7582 1.51155 24.1212 2.31181 24.1212 3.14625V24.3834C24.1212 24.5257 24.0788 24.6653 23.9987 24.7874C23.9186 24.9094 23.8038 25.0093 23.6664 25.0765C23.529 25.1436 23.3743 25.1755 23.2186 25.1687C23.063 25.1619 22.9122 25.1167 22.7825 25.0379L13.7836 20.6095L4.78462 25.0379C4.65489 25.1167 4.50418 25.1619 4.34853 25.1687C4.19288 25.1755 4.03813 25.1436 3.90075 25.0765C3.76337 25.0093 3.64852 24.9094 3.56842 24.7874C3.48832 24.6653 3.44597 24.5257 3.44589 24.3834V3.14625ZM6.89178 1.57313C6.43483 1.57313 5.99659 1.73886 5.67348 2.03388C5.35036 2.3289 5.16884 2.72903 5.16884 3.14625V22.9141L13.3063 19.0096C13.4477 18.9237 13.6137 18.8779 13.7836 18.8779C13.9534 18.8779 14.1194 18.9237 14.2608 19.0096L22.3983 22.9141V3.14625C22.3983 2.72903 22.2168 2.3289 21.8937 2.03388C21.5705 1.73886 21.1323 1.57313 20.6754 1.57313H6.89178Z" fill="white" fill-opacity="0.86"/>
</svg>
