<svg width="177" height="190" viewBox="0 0 177 190" fill="none" xmlns="http://www.w3.org/2000/svg">
<g clip-path="url(#clip0_19_447)">
<g filter="url(#filter0_d_19_447)">
<rect x="-1" width="178" height="190" rx="18.3089" fill="#B18CFE"/>
</g>
<path d="M135.719 117.428C134.957 132.634 123.051 146.414 108.456 149.378C93.8616 152.342 77.8885 144.458 70.777 131.084C69.9922 129.608 69.2933 128.06 68.5945 126.512C66.7904 122.516 64.987 118.521 61.7074 115.773C57.9629 112.634 53.1471 111.795 48.2828 110.947C45.1939 110.408 42.0855 109.867 39.2194 108.731C32.3102 105.992 26.9456 99.5039 25.4501 92.0779C23.0267 80.0441 30.7029 67.7578 40.9393 61.3359C51.1757 54.9141 63.4762 53.1255 75.4075 51.7474C79.9716 51.2202 83.6791 47.7006 86.327 43.8601C87.3521 42.3733 88.2745 40.811 89.1961 39.2499C90.6551 36.7785 92.1124 34.31 93.9732 32.1485C101.852 22.996 116.525 21.4516 126.561 28.0328C136.596 34.614 141.4 48.1468 138.731 60.0345C138.271 62.082 137.619 64.0756 136.966 66.0694C136.342 67.978 135.717 69.887 135.261 71.8432C134.287 76.0244 134.102 80.3512 133.991 84.648C133.859 89.7711 133.827 94.9075 134.296 100.01C134.459 101.785 134.683 103.557 134.906 105.33C135.414 109.357 135.922 113.383 135.719 117.428Z" fill="white" fill-opacity="0.48"/>
<path d="M75.3909 48.1155C80.848 45.3375 85.1913 40.5129 87.9264 34.9391C88.2851 34.2082 88.6249 33.4317 88.6124 32.6141C88.5998 31.7964 88.1349 30.9303 87.3619 30.7226C86.2542 30.425 85.3015 31.5118 84.6107 32.4466C79.8654 38.8681 72.9586 43.9092 65.1649 45.0086C62.1716 45.4308 59.1325 45.2723 56.1149 45.1128L51.4015 44.8638C47.6053 44.6633 43.7564 44.4667 40.0404 45.2864C36.3245 46.1061 32.6936 48.0775 30.6527 51.3592C30.0031 52.4037 29.5165 53.6347 29.6962 54.8591C29.8804 56.1138 30.752 57.1787 31.8019 57.8537C32.8517 58.5288 34.0714 58.8665 35.2802 59.149C36.1652 59.3559 37.0692 59.5392 37.9747 59.4739C39.4553 59.3673 40.7988 58.6139 42.1061 57.8809C42.1932 57.8321 42.2801 57.7833 42.3669 57.7349C44.6517 56.4594 47.0193 55.3266 49.4886 54.4849C53.0896 53.2575 56.876 52.6569 60.6531 52.0577C65.7415 51.2505 70.8129 50.446 75.3909 48.1155Z" fill="white" fill-opacity="0.48"/>
<path d="M47.0122 122.124L47.0154 122.124C47.2378 122.133 47.4601 122.143 47.6818 122.154C51.1884 122.341 54.6586 123.221 57.8448 124.731C59.0597 125.307 60.2901 126.027 60.9724 127.206C61.8166 128.664 62.83 130.02 63.9846 131.236C64.4325 131.707 64.9175 132.169 65.5155 132.41C66.1134 132.65 66.8518 132.628 67.337 132.197C67.9264 131.673 67.9647 130.743 67.783 129.966C67.4853 128.693 66.743 127.583 66.0082 126.511C63.5972 122.994 61.0588 119.478 57.7036 116.895C54.3483 114.313 50.0182 112.749 45.9113 113.641C44.4932 113.949 43.0878 114.577 42.1476 115.706C41.2075 116.835 40.8359 118.534 41.5131 119.846C42.0502 120.887 43.1392 121.527 44.2542 121.815C45.1528 122.048 46.0836 122.086 47.0122 122.124Z" fill="white" fill-opacity="0.48"/>
<path d="M141.863 69.224C140.926 68.8623 139.864 69.2991 139.071 69.925C137.504 71.1612 136.576 73.0951 136.155 75.0734C135.733 77.0516 135.767 79.098 135.803 81.1225L136.113 98.5172C136.135 99.7881 136.191 101.158 136.954 102.16C137.193 102.474 137.52 102.749 137.907 102.79C138.376 102.838 138.809 102.536 139.148 102.2C140.999 100.366 141.242 97.4777 141.463 94.8447L141.471 94.749C141.797 90.884 142.361 87.04 143.158 83.2475C143.382 82.181 143.629 81.1077 144.098 80.128C145.568 77.0568 145.217 73.1582 143.222 70.4145C142.861 69.9181 142.429 69.4422 141.863 69.224Z" fill="white" fill-opacity="0.48"/>
</g>
<defs>
<filter id="filter0_d_19_447" x="-1" y="0" width="186" height="198" filterUnits="userSpaceOnUse" color-interpolation-filters="sRGB">
<feFlood flood-opacity="0" result="BackgroundImageFix"/>
<feColorMatrix in="SourceAlpha" type="matrix" values="0 0 0 0 0 0 0 0 0 0 0 0 0 0 0 0 0 0 127 0" result="hardAlpha"/>
<feOffset dx="4" dy="4"/>
<feGaussianBlur stdDeviation="2"/>
<feComposite in2="hardAlpha" operator="out"/>
<feColorMatrix type="matrix" values="0 0 0 0 0 0 0 0 0 0 0 0 0 0 0 0 0 0 0.1 0"/>
<feBlend mode="normal" in2="BackgroundImageFix" result="effect1_dropShadow_19_447"/>
<feBlend mode="normal" in="SourceGraphic" in2="effect1_dropShadow_19_447" result="shape"/>
</filter>
<clipPath id="clip0_19_447">
<rect x="-1" width="178" height="190" rx="18.31" fill="white"/>
</clipPath>
</defs>
</svg>
