<svg width="128" height="77" viewBox="0 0 128 77" fill="none" xmlns="http://www.w3.org/2000/svg">
<path d="M14.9906 0.999992H113.035C114.363 0.999992 115.636 1.52735 116.575 2.46604C117.513 3.40472 118.041 4.67786 118.041 6.00537V71.1341H9.99707V6.00143C9.99811 4.67665 10.5243 3.40631 11.4603 2.46881C12.3963 1.53131 13.6659 1.00311 14.9906 0.999992Z" fill="#263238" stroke="#263238" stroke-linecap="round" stroke-linejoin="round"/>
<path d="M101.39 67.7592H27.1308V71.4169H101.39V67.7592Z" fill="#263238" stroke="#263238" stroke-linecap="round" stroke-linejoin="round"/>
<path d="M101.39 69.5193H27.1308V71.4169H101.39V69.5193Z" fill="white" stroke="#263238" stroke-linecap="round" stroke-linejoin="round"/>
<path d="M1.24756 73.5857C1.24756 73.5857 2.4655 75.0747 6.1272 76.2966H122.394C122.394 76.2966 125.101 75.6169 126.323 73.7192L1.24756 73.5857Z" fill="#263238" stroke="#263238" stroke-linecap="round" stroke-linejoin="round"/>
<path d="M125.16 73.7625H2.42618C2.23908 73.763 2.05371 73.7266 1.8807 73.6553C1.70769 73.5841 1.55044 73.4794 1.41796 73.3473C1.28547 73.2152 1.18035 73.0582 1.10863 72.8854C1.03691 72.7126 0.999999 72.5273 1 72.3402C1 71.962 1.15026 71.5992 1.41772 71.3317C1.68518 71.0643 2.04793 70.914 2.42618 70.914H125.16C125.538 70.9151 125.9 71.0657 126.167 71.3329C126.434 71.6001 126.585 71.9623 126.586 72.3402C126.585 72.7178 126.434 73.0795 126.167 73.3461C125.9 73.6127 125.537 73.7625 125.16 73.7625Z" fill="white" stroke="#263238" stroke-linecap="round" stroke-linejoin="round"/>
<path d="M64.9382 3.12157C64.939 2.93336 64.8839 2.74916 64.7799 2.59229C64.6759 2.43542 64.5277 2.31294 64.354 2.24037C64.1804 2.16781 63.9891 2.14841 63.8044 2.18465C63.6197 2.2209 63.4499 2.31114 63.3165 2.44395C63.1832 2.57676 63.0922 2.74618 63.0552 2.93072C63.0182 3.11526 63.0368 3.30662 63.1087 3.48059C63.1805 3.65455 63.3024 3.80327 63.4588 3.90792C63.6153 4.01257 63.7992 4.06843 63.9875 4.06843C64.2389 4.06843 64.4802 3.9688 64.6584 3.79134C64.8366 3.61388 64.9372 3.37305 64.9382 3.12157Z" fill="#949494"/>
<path d="M11.0029 20.7347C10.931 20.7347 10.862 20.7061 10.8112 20.6553C10.7604 20.6044 10.7318 20.5355 10.7318 20.4636V12.6058C10.7318 12.5339 10.7604 12.465 10.8112 12.4141C10.862 12.3633 10.931 12.3347 11.0029 12.3347C11.0748 12.3347 11.1438 12.3633 11.1946 12.4141C11.2454 12.465 11.274 12.5339 11.274 12.6058V20.4636C11.2745 20.4993 11.2679 20.5348 11.2544 20.5679C11.241 20.601 11.2211 20.6311 11.1958 20.6564C11.1705 20.6817 11.1404 20.7017 11.1073 20.7151C11.0741 20.7285 11.0387 20.7352 11.0029 20.7347Z" fill="#263238" stroke="white" stroke-width="0.691688" stroke-linejoin="round"/>
<path d="M113.656 6.47682H14.3699V62.5849H113.656V6.47682Z" fill="white" stroke="#263238" stroke-linecap="round" stroke-linejoin="round"/>
<path d="M36.179 49.1874H59.98" stroke="#263238" stroke-linecap="round" stroke-linejoin="round"/>
<path d="M36.179 52.4523H59.98" stroke="#263238" stroke-linecap="round" stroke-linejoin="round"/>
<path d="M36.179 55.7211H59.98" stroke="#263238" stroke-linecap="round" stroke-linejoin="round"/>
<path d="M36.179 58.986H59.98" stroke="#263238" stroke-linecap="round" stroke-linejoin="round"/>
<path d="M87.8788 48.4449H63.4728V59.7482H87.8788V48.4449Z" fill="white" stroke="#263238" stroke-linecap="round" stroke-linejoin="round"/>
<path d="M87.8788 54.9904L83.7653 51.6548L77.2159 55.894L74.1318 53.7096L63.4728 59.7482H87.8788V54.9904Z" fill="white" stroke="#263238" stroke-linecap="round" stroke-linejoin="round"/>
<path d="M67.2602 53.5838C68.1477 53.5838 68.8671 52.8644 68.8671 51.9769C68.8671 51.0895 68.1477 50.37 67.2602 50.37C66.3728 50.37 65.6533 51.0895 65.6533 51.9769C65.6533 52.8644 66.3728 53.5838 67.2602 53.5838Z" fill="white" stroke="#263238" stroke-linecap="round" stroke-linejoin="round"/>
<path d="M115.286 7H16V45.6246H115.286V7Z" fill="white" stroke="#263238" stroke-linecap="round" stroke-linejoin="round"/>
<path d="M113.656 6.47682H14.3699V10.72H113.656V6.47682Z" fill="#949494" stroke="#263238" stroke-linecap="round" stroke-linejoin="round"/>
<path d="M113.652 10.5746H110.458V62.5888H113.652V10.5746Z" fill="#949494" stroke="#263238" stroke-linecap="round" stroke-linejoin="round"/>
<path d="M113.652 19.5285H110.458V34.9925H113.652V19.5285Z" fill="#696969" stroke="#263238" stroke-linecap="round" stroke-linejoin="round"/>
<path d="M16.0829 43.8481L42.5555 27.6809L70.9415 43.3099L92.2753 25.74L110.379 41.3376" stroke="#263238" stroke-miterlimit="10"/>
<path d="M30.9811 34.7017L35.7233 33.3738L39.33 35.8372L43.5024 33.1852L46.9166 34.8903L49.1953 33.1852L52.7588 33.307" stroke="#263238" stroke-miterlimit="10"/>
<path d="M84.0992 32.6155L88.8414 34.7017L91.6859 31.6647L94.7189 34.1321L98.137 30.9065" stroke="#263238" stroke-miterlimit="10"/>
<path d="M24.7892 25.2018H42.9916C42.9916 25.2018 42.9916 24.0978 42.4376 23.6852C42.3246 23.6099 42.1977 23.5579 42.0644 23.532C41.5517 23.4305 41.0682 23.2156 40.6494 22.9028C40.2306 22.5901 39.8871 22.1875 39.6442 21.7247C39.4935 21.4064 39.2672 21.1297 38.9851 20.9188C38.7029 20.7079 38.3735 20.5691 38.0255 20.5146C35.8215 20.1021 36.0965 22.0312 34.8549 22.1687C33.6134 22.3062 32.7844 19.8114 30.7179 19.8114C28.6513 19.8114 27.9677 23.1234 27.9677 23.1234C27.9677 23.1234 26.5886 21.6069 25.3471 23.2609C24.1056 24.915 24.7892 25.2018 24.7892 25.2018Z" fill="white" stroke="#263238" stroke-miterlimit="10"/>
<path d="M63.6417 25.2018H72.1359C72.1359 25.2018 72.1359 24.6871 71.8766 24.4946C71.8243 24.4596 71.7655 24.4356 71.7037 24.4238C71.464 24.3766 71.2379 24.2762 71.0421 24.13C70.8462 23.9838 70.6857 23.7956 70.5722 23.5791C70.502 23.4306 70.3966 23.3014 70.2652 23.2028C70.1337 23.1042 69.9802 23.0392 69.8179 23.0134C68.7885 22.8209 68.9182 23.7206 68.3367 23.7992C67.7552 23.8777 67.3741 22.703 66.4076 22.703C65.4411 22.703 65.119 24.251 65.119 24.251C65.0447 24.157 64.949 24.0822 64.8399 24.0328C64.7308 23.9834 64.6114 23.9609 64.4918 23.967C64.3722 23.9732 64.2558 24.0079 64.1523 24.0682C64.0489 24.1286 63.9613 24.2128 63.8971 24.3138C63.3195 25.08 63.6417 25.2018 63.6417 25.2018Z" fill="white" stroke="#263238" stroke-miterlimit="10"/>
<path d="M18.0945 25.2018H26.5887C26.5887 25.2018 26.5887 24.6871 26.3294 24.4946C26.2771 24.4596 26.2183 24.4356 26.1565 24.4238C25.9167 24.3766 25.6906 24.2762 25.4948 24.13C25.299 23.9838 25.1384 23.7956 25.025 23.5791C24.9548 23.4306 24.8494 23.3014 24.7179 23.2028C24.5864 23.1042 24.4329 23.0392 24.2706 23.0134C23.2413 22.8209 23.3709 23.7206 22.7895 23.7992C22.208 23.8777 21.8269 22.703 20.8604 22.703C19.8939 22.703 19.5717 24.251 19.5717 24.251C19.4974 24.157 19.4017 24.0822 19.2926 24.0328C19.1835 23.9834 19.0642 23.9609 18.9446 23.967C18.8249 23.9732 18.7085 24.0079 18.6051 24.0682C18.5016 24.1286 18.4141 24.2128 18.3498 24.3138C17.7723 25.08 18.0945 25.2018 18.0945 25.2018Z" fill="white" stroke="#263238" stroke-miterlimit="10"/>
<path d="M86.9595 31.1972C86.9595 36.1043 85.6198 40.0843 83.9697 40.0843C82.3195 40.0843 80.9798 36.1043 80.9798 31.1972C80.9798 26.2901 82.3195 17.4933 83.9697 17.4933C85.6198 17.4933 86.9595 26.2901 86.9595 31.1972Z" fill="#FFAB01" stroke="#263238" stroke-miterlimit="10"/>
<path d="M83.4903 44.9207L83.8478 23.587L84.5668 45.1014L83.4903 44.9207Z" fill="#263238"/>
<path d="M58.6796 34.7646C58.6796 38.4145 57.6817 41.369 56.4559 41.369C55.23 41.369 54.2321 38.4145 54.2321 34.7646C54.2321 31.1147 55.23 24.5771 56.4559 24.5771C57.6817 24.5771 58.6796 31.1147 58.6796 34.7646Z" fill="#FFAB01" stroke="#263238" stroke-miterlimit="10"/>
<path d="M56.0983 44.9679L56.3655 29.1071L56.8998 45.1014L56.0983 44.9679Z" fill="#263238"/>
<path d="M107.429 34.7646C107.429 38.4145 106.435 41.369 105.209 41.369C103.983 41.369 102.985 38.4145 102.985 34.7646C102.985 31.1147 103.979 24.5771 105.209 24.5771C106.439 24.5771 107.429 31.1147 107.429 34.7646Z" fill="#FFAB01" stroke="#263238" stroke-miterlimit="10"/>
<path d="M104.852 44.9679L105.119 29.1071L105.649 45.1014L104.852 44.9679Z" fill="#263238"/>
<path d="M113.656 10.5746H14.3699V15.2618H113.656V10.5746Z" fill="#FFAB01" stroke="#263238" stroke-miterlimit="10"/>
<path d="M26.0975 15.36V10.5982" stroke="#263238" stroke-miterlimit="10"/>
<path d="M38.7053 15.36V10.5982" stroke="#263238" stroke-miterlimit="10"/>
<path d="M51.3169 15.36V10.5982" stroke="#263238" stroke-miterlimit="10"/>
<path d="M63.9246 15.36V10.5982" stroke="#263238" stroke-miterlimit="10"/>
<path d="M76.5363 15.36V10.5982" stroke="#263238" stroke-miterlimit="10"/>
<path d="M89.1479 15.36V10.5982" stroke="#263238" stroke-miterlimit="10"/>
<path d="M101.756 15.36V10.5982" stroke="#263238" stroke-miterlimit="10"/>
<path d="M57.9331 7.34117H21.7876V9.30167H57.9331V7.34117Z" fill="white" stroke="#263238" stroke-linecap="round" stroke-linejoin="round"/>
<path d="M104.938 8.31946C104.938 8.47487 104.892 8.6268 104.806 8.75602C104.719 8.88524 104.596 8.98594 104.453 9.04542C104.309 9.10489 104.151 9.12046 103.999 9.09014C103.846 9.05982 103.706 8.98498 103.597 8.87509C103.487 8.7652 103.412 8.62519 103.382 8.47277C103.351 8.32034 103.367 8.16235 103.426 8.01877C103.486 7.87519 103.586 7.75246 103.716 7.66612C103.845 7.57978 103.997 7.53369 104.152 7.53369C104.361 7.53369 104.56 7.61648 104.708 7.76384C104.855 7.9112 104.938 8.11106 104.938 8.31946Z" fill="white" stroke="#263238" stroke-linecap="round" stroke-linejoin="round"/>
<path d="M108.321 8.31946C108.321 8.47487 108.275 8.6268 108.188 8.75602C108.102 8.88524 107.979 8.98594 107.836 9.04542C107.692 9.10489 107.534 9.12046 107.382 9.09014C107.229 9.05982 107.089 8.98498 106.979 8.87509C106.869 8.7652 106.795 8.62519 106.764 8.47277C106.734 8.32034 106.749 8.16235 106.809 8.01877C106.868 7.87519 106.969 7.75246 107.098 7.66612C107.228 7.57978 107.38 7.53369 107.535 7.53369C107.743 7.53369 107.943 7.61648 108.091 7.76384C108.238 7.9112 108.321 8.11106 108.321 8.31946Z" fill="white" stroke="#263238" stroke-linecap="round" stroke-linejoin="round"/>
<path d="M111.703 8.31946C111.703 8.47487 111.657 8.6268 111.571 8.75602C111.485 8.88524 111.362 8.98594 111.218 9.04542C111.075 9.10489 110.917 9.12046 110.764 9.09014C110.612 9.05982 110.472 8.98498 110.362 8.87509C110.252 8.7652 110.177 8.62519 110.147 8.47277C110.117 8.32034 110.132 8.16235 110.192 8.01877C110.251 7.87519 110.352 7.75246 110.481 7.66612C110.61 7.57978 110.762 7.53369 110.918 7.53369C111.126 7.53369 111.326 7.61648 111.473 7.76384C111.621 7.9112 111.703 8.11106 111.703 8.31946Z" fill="white" stroke="#263238" stroke-linecap="round" stroke-linejoin="round"/>
</svg>
