<svg width="28" height="28" viewBox="0 0 28 28" fill="none" xmlns="http://www.w3.org/2000/svg">
<path d="M25.3669 14.3862L14.8669 2.7195C14.4247 2.22717 13.5754 2.22717 13.1332 2.7195L2.63319 14.3862C2.48205 14.5537 2.38285 14.7615 2.34764 14.9844C2.31243 15.2072 2.34273 15.4355 2.43486 15.6415C2.62152 16.0627 3.03919 16.3333 3.50002 16.3333H5.83336V24.5C5.83336 24.8094 5.95627 25.1062 6.17506 25.325C6.39386 25.5438 6.6906 25.6667 7.00002 25.6667H10.5C10.8094 25.6667 11.1062 25.5438 11.325 25.325C11.5438 25.1062 11.6667 24.8094 11.6667 24.5V19.8333H16.3334V24.5C16.3334 24.8094 16.4563 25.1062 16.6751 25.325C16.8939 25.5438 17.1906 25.6667 17.5 25.6667H21C21.3094 25.6667 21.6062 25.5438 21.825 25.325C22.0438 25.1062 22.1667 24.8094 22.1667 24.5V16.3333H24.5C24.726 16.3343 24.9473 16.2695 25.1371 16.1468C25.3268 16.0242 25.4768 15.849 25.5687 15.6425C25.6606 15.4361 25.6904 15.2074 25.6546 14.9843C25.6187 14.7613 25.5188 14.5534 25.3669 14.3862Z" fill="#667080"/>
</svg>
