<svg width="54" height="50" viewBox="0 0 54 50" fill="none" xmlns="http://www.w3.org/2000/svg">
<g filter="url(#filter0_d_19_497)">
<rect x="3" width="46" height="42" rx="7" fill="#47C5FB"/>
<path d="M25.5 8C27.2902 8 29.0071 8.71116 30.273 9.97703C31.5388 11.2429 32.25 12.9598 32.25 14.75C32.25 16.5402 31.5388 18.2571 30.273 19.523C29.0071 20.7888 27.2902 21.5 25.5 21.5C23.7098 21.5 21.9929 20.7888 20.727 19.523C19.4612 18.2571 18.75 16.5402 18.75 14.75C18.75 12.9598 19.4612 11.2429 20.727 9.97703C21.9929 8.71116 23.7098 8 25.5 8ZM25.5 24.875C32.9587 24.875 39 27.8956 39 31.625V35H12V31.625C12 27.8956 18.0412 24.875 25.5 24.875Z" fill="white" fill-opacity="0.32"/>
</g>
<defs>
<filter id="filter0_d_19_497" x="0" y="0" width="54" height="50" filterUnits="userSpaceOnUse" color-interpolation-filters="sRGB">
<feFlood flood-opacity="0" result="BackgroundImageFix"/>
<feColorMatrix in="SourceAlpha" type="matrix" values="0 0 0 0 0 0 0 0 0 0 0 0 0 0 0 0 0 0 127 0" result="hardAlpha"/>
<feOffset dx="1" dy="4"/>
<feGaussianBlur stdDeviation="2"/>
<feComposite in2="hardAlpha" operator="out"/>
<feColorMatrix type="matrix" values="0 0 0 0 0 0 0 0 0 0 0 0 0 0 0 0 0 0 0.07 0"/>
<feBlend mode="normal" in2="BackgroundImageFix" result="effect1_dropShadow_19_497"/>
<feBlend mode="normal" in="SourceGraphic" in2="effect1_dropShadow_19_497" result="shape"/>
</filter>
</defs>
</svg>
