<svg width="36" height="35" viewBox="0 0 36 35" fill="none" xmlns="http://www.w3.org/2000/svg">
<path d="M18.0001 0C8.0602 0 0 8.02298 0 17.9201C0 25.8377 5.15756 32.555 12.3096 34.9245C13.2092 35.0904 13.5395 34.5358 13.5395 34.0624C13.5395 33.6351 13.5226 32.2235 13.515 30.7262C8.50739 31.8101 7.45073 28.6118 7.45073 28.6118C6.63188 26.5405 5.45203 25.9896 5.45203 25.9896C3.81895 24.8774 5.57522 24.9004 5.57522 24.9004C7.38267 25.0267 8.33442 26.747 8.33442 26.747C9.93994 29.4865 12.5454 28.6945 13.5726 28.2366C13.7341 27.0785 14.2006 26.2878 14.7154 25.8404C10.7173 25.3873 6.51445 23.8507 6.51445 16.9842C6.51445 15.0277 7.21758 13.4291 8.36902 12.1741C8.18213 11.7228 7.56605 9.90024 8.54339 7.43176C8.54339 7.43176 10.055 6.95016 13.4948 9.2687C14.9306 8.87166 16.4704 8.67258 18.0001 8.66572C19.5299 8.67258 21.071 8.87152 22.5094 9.2687C25.945 6.9503 27.4545 7.4319 27.4545 7.4319C28.4342 9.9001 27.8179 11.7229 27.631 12.1741C28.7851 13.4291 29.4834 15.0277 29.4834 16.9842C29.4834 23.8671 25.2726 25.3826 21.2643 25.8262C21.9099 26.3823 22.4852 27.4729 22.4852 29.1448C22.4852 31.5424 22.4644 33.4722 22.4644 34.0624C22.4644 34.5394 22.7884 35.0981 23.7008 34.922C30.8489 32.55 36 25.8352 36 17.9203C36 8.02298 27.9409 0 18.0001 0ZM6.7417 25.5276C6.70205 25.6166 6.56128 25.6434 6.43317 25.5822C6.30253 25.5238 6.22927 25.4024 6.27145 25.3131C6.31027 25.2214 6.45131 25.1958 6.58153 25.2573C6.71231 25.3158 6.78684 25.4383 6.7417 25.5276ZM7.62708 26.3141C7.5413 26.3934 7.37339 26.3565 7.25948 26.2314C7.14178 26.1065 7.1197 25.9393 7.20675 25.859C7.29534 25.7797 7.45805 25.8168 7.57603 25.9417C7.69388 26.0681 7.71666 26.234 7.62708 26.3141ZM8.23458 27.3204C8.12419 27.3967 7.94391 27.3252 7.83239 27.1659C7.72214 27.0066 7.72214 26.8155 7.83478 26.7389C7.94658 26.6623 8.12419 26.7312 8.23711 26.8894C8.34708 27.0514 8.34708 27.2425 8.23444 27.3206L8.23458 27.3204ZM9.2617 28.4859C9.16313 28.5943 8.95289 28.5652 8.79905 28.4173C8.64169 28.2729 8.59795 28.0679 8.69695 27.9595C8.7968 27.8509 9.00816 27.8814 9.16313 28.0281C9.31922 28.1723 9.36703 28.3788 9.2617 28.4859ZM10.5895 28.8793C10.5459 29.0198 10.3434 29.0836 10.1396 29.024C9.936 28.9625 9.80283 28.7981 9.84389 28.6563C9.88622 28.5149 10.0896 28.4486 10.2949 28.5124C10.4982 28.5734 10.6318 28.7367 10.5895 28.8795V28.8793ZM12.1004 29.0464C12.1054 29.1941 11.9326 29.3166 11.7186 29.3194C11.5034 29.3241 11.3292 29.2046 11.3268 29.059C11.3268 28.9099 11.4958 28.7885 11.7111 28.7848C11.9251 28.7806 12.1004 28.8994 12.1004 29.0464ZM13.5847 28.9897C13.6102 29.1339 13.4616 29.282 13.249 29.3215C13.0402 29.3594 12.8467 29.2704 12.8201 29.1274C12.7942 28.9796 12.9457 28.8315 13.1542 28.7932C13.3671 28.7564 13.5575 28.8431 13.5847 28.9897Z" fill="#161614"/>
</svg>
