<svg width="30" height="30" viewBox="0 0 30 30" fill="none" xmlns="http://www.w3.org/2000/svg">
<path d="M5.625 5.625C5.625 4.63044 6.02009 3.67661 6.72335 2.97335C7.42661 2.27009 8.38044 1.875 9.375 1.875C10.3696 1.875 11.3234 2.27009 12.0267 2.97335C12.7299 3.67661 13.125 4.63044 13.125 5.625C13.125 6.61956 12.7299 7.57339 12.0267 8.27665C11.3234 8.97991 10.3696 9.375 9.375 9.375C8.38044 9.375 7.42661 8.97991 6.72335 8.27665C6.02009 7.57339 5.625 6.61956 5.625 5.625ZM18.3356 8.595L18.4144 8.655C19.2099 9.2447 20.2064 9.49578 21.1864 9.35346C22.1664 9.21113 23.0503 8.68695 23.6453 7.89532C24.2402 7.10368 24.4979 6.10885 24.362 5.12794C24.2262 4.14703 23.7078 3.25967 22.9201 2.65952C22.1324 2.05937 21.1393 1.79516 20.1575 1.92453C19.1758 2.05391 18.285 2.56637 17.6797 3.35009C17.0743 4.13381 16.8036 5.12515 16.9265 6.10777C17.0493 7.09039 17.5559 7.98451 18.3356 8.595ZM11.7525 11.25C11.988 10.8041 12.311 10.4102 12.7023 10.092C13.0935 9.77377 13.5449 9.53773 14.0295 9.398C14.514 9.25827 15.0218 9.21772 15.5224 9.27876C16.023 9.3398 16.5062 9.50119 16.9429 9.75327C17.3797 10.0054 17.7612 10.3429 18.0645 10.7459C18.3678 11.1488 18.5867 11.6087 18.7082 12.0982C18.8296 12.5876 18.8511 13.0966 18.7713 13.5945C18.6915 14.0925 18.5121 14.5692 18.2437 14.9963C17.7276 15.8177 16.9131 16.4072 15.9715 16.6408C15.0299 16.8745 14.0343 16.7341 13.1941 16.2491C12.3538 15.7642 11.7341 14.9724 11.4653 14.0402C11.1965 13.108 11.2994 12.1079 11.7525 11.25ZM4.6875 11.25H9.69375C9.36051 12.2017 9.28806 13.2252 9.4839 14.2143C9.67975 15.2034 10.1368 16.1221 10.8075 16.875H10.3125C9.34582 16.8749 8.40272 17.1735 7.61228 17.73C6.82185 18.2865 6.22271 19.0736 5.89687 19.9837C5.2675 19.7309 4.67822 19.388 4.1475 18.9656C2.7375 17.8312 1.875 16.155 1.875 14.0625C1.875 13.3166 2.17132 12.6012 2.69876 12.0738C3.22621 11.5463 3.94158 11.25 4.6875 11.25ZM19.6875 16.875C20.6539 16.875 21.5967 17.1737 22.3869 17.7302C23.177 18.2867 23.7758 19.0738 24.1012 19.9837C24.7388 19.7231 25.3294 19.3837 25.8525 18.9656C27.2625 17.8312 28.125 16.155 28.125 14.0625C28.125 13.3166 27.8287 12.6012 27.3012 12.0738C26.7738 11.5463 26.0584 11.25 25.3125 11.25H20.3062C20.5125 11.8369 20.625 12.4688 20.625 13.125C20.6267 14.509 20.1165 15.8447 19.1925 16.875H19.6875ZM22.2881 20.49C22.425 20.82 22.5 21.1838 22.5 21.5625C22.5 23.655 21.6394 25.3312 20.2275 26.4656C18.8381 27.5812 16.9744 28.125 15 28.125C13.0256 28.125 11.1619 27.5812 9.7725 26.4656C8.3625 25.3312 7.5 23.655 7.5 21.5625C7.49901 21.1929 7.57108 20.8267 7.71207 20.485C7.85306 20.1434 8.06019 19.8329 8.32156 19.5716C8.58292 19.3102 8.89336 19.1031 9.23503 18.9621C9.57671 18.8211 9.94288 18.749 10.3125 18.75H19.6875C20.2446 18.7499 20.7891 18.9152 21.2521 19.225C21.7151 19.5347 22.0757 19.975 22.2881 20.49Z" fill="#667080" fill-opacity="0.5"/>
</svg>
