<svg width="54" height="50" viewBox="0 0 54 50" fill="none" xmlns="http://www.w3.org/2000/svg">
<g filter="url(#filter0_d_19_521)">
<rect x="3" width="46" height="42" rx="7" fill="#47C5FB"/>
</g>
<path d="M27.7628 7H18.5C17.5717 7 16.6815 7.36875 16.0251 8.02513C15.3687 8.6815 15 9.57174 15 10.5V31.5C15 32.4283 15.3687 33.3185 16.0251 33.9749C16.6815 34.6313 17.5717 35 18.5 35H32.5C33.4283 35 34.3185 34.6313 34.9749 33.9749C35.6313 33.3185 36 32.4283 36 31.5V15.2372C35.9999 14.7732 35.8155 14.3281 35.4872 14L29 7.51275C28.6719 7.18454 28.2268 7.0001 27.7628 7ZM28.125 13.125V9.625L33.375 14.875H29.875C29.4109 14.875 28.9658 14.6906 28.6376 14.3624C28.3094 14.0342 28.125 13.5891 28.125 13.125ZM19.375 22.75C19.1429 22.75 18.9204 22.6578 18.7563 22.4937C18.5922 22.3296 18.5 22.1071 18.5 21.875C18.5 21.6429 18.5922 21.4204 18.7563 21.2563C18.9204 21.0922 19.1429 21 19.375 21H31.625C31.8571 21 32.0796 21.0922 32.2437 21.2563C32.4078 21.4204 32.5 21.6429 32.5 21.875C32.5 22.1071 32.4078 22.3296 32.2437 22.4937C32.0796 22.6578 31.8571 22.75 31.625 22.75H19.375ZM18.5 25.375C18.5 25.1429 18.5922 24.9204 18.7563 24.7563C18.9204 24.5922 19.1429 24.5 19.375 24.5H31.625C31.8571 24.5 32.0796 24.5922 32.2437 24.7563C32.4078 24.9204 32.5 25.1429 32.5 25.375C32.5 25.6071 32.4078 25.8296 32.2437 25.9937C32.0796 26.1578 31.8571 26.25 31.625 26.25H19.375C19.1429 26.25 18.9204 26.1578 18.7563 25.9937C18.5922 25.8296 18.5 25.6071 18.5 25.375ZM19.375 29.75C19.1429 29.75 18.9204 29.6578 18.7563 29.4937C18.5922 29.3296 18.5 29.1071 18.5 28.875C18.5 28.6429 18.5922 28.4204 18.7563 28.2563C18.9204 28.0922 19.1429 28 19.375 28H26.375C26.6071 28 26.8296 28.0922 26.9937 28.2563C27.1578 28.4204 27.25 28.6429 27.25 28.875C27.25 29.1071 27.1578 29.3296 26.9937 29.4937C26.8296 29.6578 26.6071 29.75 26.375 29.75H19.375Z" fill="white" fill-opacity="0.32"/>
<defs>
<filter id="filter0_d_19_521" x="0" y="0" width="54" height="50" filterUnits="userSpaceOnUse" color-interpolation-filters="sRGB">
<feFlood flood-opacity="0" result="BackgroundImageFix"/>
<feColorMatrix in="SourceAlpha" type="matrix" values="0 0 0 0 0 0 0 0 0 0 0 0 0 0 0 0 0 0 127 0" result="hardAlpha"/>
<feOffset dx="1" dy="4"/>
<feGaussianBlur stdDeviation="2"/>
<feComposite in2="hardAlpha" operator="out"/>
<feColorMatrix type="matrix" values="0 0 0 0 0 0 0 0 0 0 0 0 0 0 0 0 0 0 0.07 0"/>
<feBlend mode="normal" in2="BackgroundImageFix" result="effect1_dropShadow_19_521"/>
<feBlend mode="normal" in="SourceGraphic" in2="effect1_dropShadow_19_521" result="shape"/>
</filter>
</defs>
</svg>
