<svg width="22" height="22" viewBox="0 0 22 22" fill="none" xmlns="http://www.w3.org/2000/svg">
<path d="M9.97942 3.08612C11.3032 3.08491 12.5975 3.47634 13.6988 4.2109C14.8 4.94545 15.6587 5.99013 16.1661 7.21276C16.6735 8.4354 16.8069 9.78106 16.5494 11.0795C16.2919 12.378 15.655 13.5709 14.7194 14.5073C13.7838 15.4438 12.5915 16.0817 11.2933 16.3404C9.99504 16.5991 8.64925 16.467 7.42616 15.9607C6.20306 15.4544 5.1576 14.5967 4.42204 13.4961C3.68648 12.3955 3.29387 11.1015 3.29387 9.77779C3.30189 8.00658 4.00864 6.31011 5.26052 5.05709C6.5124 3.80407 8.20822 3.09576 9.97942 3.08612ZM9.97942 1.83334C8.40816 1.83334 6.87218 2.29928 5.56572 3.17222C4.25927 4.04517 3.24101 5.28592 2.63971 6.73758C2.03842 8.18924 1.88109 9.7866 2.18763 11.3277C2.49417 12.8687 3.2508 14.2843 4.36185 15.3954C5.4729 16.5064 6.88847 17.263 8.42954 17.5696C9.97061 17.8761 11.568 17.7188 13.0196 17.1175C14.4713 16.5162 15.712 15.4979 16.585 14.1915C17.4579 12.885 17.9239 11.3491 17.9239 9.77779C17.9239 7.67079 17.0869 5.65009 15.597 4.16022C14.1071 2.67035 12.0864 1.83334 9.97942 1.83334Z" fill="#777777"/>
<path d="M21.3889 20.3439L16.885 15.8094L16.0172 16.6711L20.5211 21.2056C20.5777 21.2625 20.6449 21.3078 20.719 21.3388C20.7931 21.3698 20.8725 21.3859 20.9528 21.3862C21.0331 21.3865 21.1127 21.3709 21.187 21.3405C21.2613 21.31 21.3288 21.2652 21.3858 21.2086C21.4428 21.152 21.4881 21.0848 21.5191 21.0107C21.5501 20.9366 21.5662 20.8572 21.5664 20.7769C21.5667 20.6966 21.5512 20.617 21.5207 20.5427C21.4903 20.4684 21.4455 20.4009 21.3889 20.3439Z" fill="#777777"/>
</svg>
