<svg width="26" height="25" viewBox="0 0 26 25" fill="none" xmlns="http://www.w3.org/2000/svg">
<path d="M16.0749 4.46911C16.0749 3.41184 16.4497 2.38879 17.1327 1.58177C17.8158 0.774757 18.7628 0.236055 19.8056 0.0614036C20.8483 -0.113248 21.9192 0.0874658 22.8279 0.627873C23.7367 1.16828 24.4243 2.01338 24.7688 3.01297C25.1132 4.01256 25.0921 5.1019 24.7092 6.08739C24.3262 7.07288 23.6063 7.89068 22.6773 8.39545C21.7483 8.90023 20.6704 9.05928 19.6353 8.84434C18.6001 8.62939 17.6746 8.05438 17.0234 7.2215L8.77871 11.3438C8.98217 12.1026 8.98217 12.9016 8.77871 13.6604L17.0269 17.7863C17.7105 16.9161 18.6929 16.3308 19.7835 16.1437C20.8741 15.9567 21.9954 16.1813 22.9298 16.774C23.8643 17.3666 24.5454 18.2852 24.8411 19.3515C25.1368 20.4178 25.0261 21.5559 24.5303 22.5452C24.0345 23.5345 23.1891 24.3045 22.1579 24.7059C21.1267 25.1073 19.9832 25.1115 18.9491 24.7176C17.915 24.3238 17.0639 23.5601 16.561 22.5744C16.058 21.5888 15.9389 20.4515 16.2268 19.3831L7.97854 15.2572C7.40522 15.988 6.61822 16.5219 5.72718 16.7844C4.83613 17.047 3.88539 17.025 3.00738 16.7218C2.12938 16.4185 1.36781 15.8489 0.828755 15.0924C0.289702 14.3359 0 13.4301 0 12.5012C0 11.5723 0.289702 10.6665 0.828755 9.91C1.36781 9.15349 2.12938 8.58393 3.00738 8.28065C3.88539 7.97737 4.83613 7.95546 5.72718 8.21798C6.61822 8.4805 7.40522 9.01438 7.97854 9.74526L16.225 5.62472C16.1248 5.24771 16.0744 4.85921 16.0749 4.46911ZM20.5438 1.78639C19.8325 1.78639 19.1504 2.06894 18.6474 2.57188C18.1445 3.07482 17.8619 3.75695 17.8619 4.46822C17.8619 5.17949 18.1445 5.86162 18.6474 6.36456C19.1504 6.8675 19.8325 7.15005 20.5438 7.15005C21.255 7.15005 21.9372 6.8675 22.4401 6.36456C22.943 5.86162 23.2256 5.17949 23.2256 4.46822C23.2256 3.75695 22.943 3.07482 22.4401 2.57188C21.9372 2.06894 21.255 1.78639 20.5438 1.78639ZM20.5402 17.8613C19.8296 17.8613 19.1482 18.1436 18.6457 18.646C18.1433 19.1484 17.861 19.8299 17.861 20.5404C17.861 21.251 18.1433 21.9325 18.6457 22.4349C19.1482 22.9373 19.8296 23.2196 20.5402 23.2196C21.2507 23.2196 21.9322 22.9373 22.4346 22.4349C22.9371 21.9325 23.2193 21.251 23.2193 20.5404C23.2193 19.8299 22.9371 19.1484 22.4346 18.646C21.9322 18.1436 21.2507 17.8613 20.5402 17.8613ZM1.78613 12.503C1.78613 12.8548 1.85543 13.2032 1.99007 13.5283C2.12471 13.8533 2.32205 14.1487 2.57083 14.3974C2.81962 14.6462 3.11496 14.8436 3.44001 14.9782C3.76506 15.1128 4.11345 15.1821 4.46528 15.1821C4.81711 15.1821 5.1655 15.1128 5.49055 14.9782C5.8156 14.8436 6.11094 14.6462 6.35973 14.3974C6.60851 14.1487 6.80585 13.8533 6.94049 13.5283C7.07513 13.2032 7.14443 12.8548 7.14443 12.503C7.14443 11.7924 6.86217 11.111 6.35973 10.6085C5.85729 10.1061 5.17584 9.82384 4.46528 9.82384C3.75473 9.82384 3.07327 10.1061 2.57083 10.6085C2.0684 11.111 1.78613 11.7924 1.78613 12.503Z" fill="white" fill-opacity="0.86"/>
</svg>
