<svg width="84" height="12" viewBox="0 0 84 12" fill="none" xmlns="http://www.w3.org/2000/svg">
<path d="M11.8071 4.25057C11.7699 4.14098 11.7014 4.04469 11.6101 3.97359C11.5188 3.90248 11.4086 3.85966 11.2933 3.85043L7.91874 3.58229L6.45847 0.349806C6.41197 0.245695 6.33632 0.157267 6.24067 0.0951959C6.14502 0.0331246 6.03345 6.26721e-05 5.91942 8.90123e-08C5.8054 -6.2494e-05 5.69379 0.032877 5.59807 0.0948432C5.50235 0.156809 5.42661 0.245154 5.37999 0.349215L3.91972 3.58229L0.545175 3.85043C0.431796 3.85941 0.323405 3.90087 0.232969 3.96984C0.142534 4.03881 0.0738832 4.13238 0.0352308 4.23934C-0.00342153 4.34631 -0.0104391 4.46214 0.0150178 4.57299C0.0404746 4.68384 0.0973279 4.78501 0.178776 4.86439L2.67254 7.29541L1.79058 11.1145C1.7638 11.2301 1.77238 11.3511 1.81521 11.4617C1.85805 11.5724 1.93315 11.6676 2.03078 11.7351C2.12841 11.8025 2.24406 11.8391 2.36272 11.84C2.48138 11.8409 2.59757 11.8061 2.69622 11.7402L5.91923 9.59148L9.14224 11.7402C9.24307 11.8071 9.36198 11.8416 9.48297 11.8389C9.60397 11.8363 9.72125 11.7966 9.81904 11.7253C9.91684 11.654 9.99045 11.5545 10.03 11.4401C10.0695 11.3257 10.0731 11.202 10.0402 11.0855L8.95756 7.29719L11.6425 4.88097C11.8183 4.72233 11.8828 4.47491 11.8071 4.25057Z" fill="#FBE367"/>
<path d="M29.6454 4.25057C29.6082 4.14098 29.5397 4.04469 29.4484 3.97359C29.3571 3.90248 29.247 3.85966 29.1316 3.85043L25.7571 3.58229L24.2968 0.349806C24.2503 0.245695 24.1747 0.157267 24.079 0.0951959C23.9834 0.0331246 23.8718 6.26721e-05 23.7578 8.90123e-08C23.6438 -6.2494e-05 23.5321 0.032877 23.4364 0.0948432C23.3407 0.156809 23.265 0.245154 23.2183 0.349215L21.7581 3.58229L18.3835 3.85043C18.2702 3.85941 18.1618 3.90087 18.0713 3.96984C17.9809 4.03881 17.9122 4.13238 17.8736 4.23934C17.8349 4.34631 17.8279 4.46214 17.8534 4.57299C17.8788 4.68384 17.9357 4.78501 18.0171 4.86439L20.5109 7.29541L19.6289 11.1145C19.6022 11.2301 19.6107 11.3511 19.6536 11.4617C19.6964 11.5724 19.7715 11.6676 19.8691 11.7351C19.9668 11.8025 20.0824 11.8391 20.2011 11.84C20.3197 11.8409 20.4359 11.8061 20.5346 11.7402L23.7576 9.59148L26.9806 11.7402C27.0814 11.8071 27.2003 11.8416 27.3213 11.8389C27.4423 11.8363 27.5596 11.7966 27.6574 11.7253C27.7552 11.654 27.8288 11.5545 27.8683 11.4401C27.9079 11.3257 27.9114 11.202 27.8785 11.0855L26.7959 7.29719L29.4809 4.88097C29.6567 4.72233 29.7212 4.47491 29.6454 4.25057Z" fill="#FBE367"/>
<path d="M47.4838 4.25057C47.4466 4.14098 47.3781 4.04469 47.2868 3.97359C47.1955 3.90248 47.0854 3.85966 46.97 3.85043L43.5955 3.58229L42.1352 0.349806C42.0887 0.245695 42.013 0.157267 41.9174 0.0951959C41.8217 0.0331246 41.7102 6.26721e-05 41.5961 8.90123e-08C41.4821 -6.2494e-05 41.3705 0.032877 41.2748 0.0948432C41.1791 0.156809 41.1033 0.245154 41.0567 0.349215L39.5964 3.58229L36.2219 3.85043C36.1085 3.85941 36.0001 3.90087 35.9097 3.96984C35.8193 4.03881 35.7506 4.13238 35.712 4.23934C35.6733 4.34631 35.6663 4.46214 35.6917 4.57299C35.7172 4.68384 35.774 4.78501 35.8555 4.86439L38.3493 7.29541L37.4673 11.1145C37.4405 11.2301 37.4491 11.3511 37.4919 11.4617C37.5348 11.5724 37.6099 11.6676 37.7075 11.7351C37.8051 11.8025 37.9208 11.8391 38.0394 11.84C38.1581 11.8409 38.2743 11.8061 38.3729 11.7402L41.596 9.59148L44.819 11.7402C44.9198 11.8071 45.0387 11.8416 45.1597 11.8389C45.2807 11.8363 45.398 11.7966 45.4958 11.7253C45.5936 11.654 45.6672 11.5545 45.7067 11.4401C45.7462 11.3257 45.7498 11.202 45.7169 11.0855L44.6343 7.29719L47.3192 4.88097C47.495 4.72233 47.5596 4.47491 47.4838 4.25057Z" fill="#FBE367"/>
<path d="M65.3222 4.25057C65.2849 4.14098 65.2165 4.04469 65.1252 3.97359C65.0339 3.90248 64.9237 3.85966 64.8084 3.85043L61.4338 3.58229L59.9736 0.349806C59.927 0.245695 59.8514 0.157267 59.7558 0.0951959C59.6601 0.0331246 59.5485 6.26721e-05 59.4345 8.90123e-08C59.3205 -6.2494e-05 59.2089 0.032877 59.1131 0.0948432C59.0174 0.156809 58.9417 0.245154 58.8951 0.349215L57.4348 3.58229L54.0603 3.85043C53.9469 3.85941 53.8385 3.90087 53.748 3.96984C53.6576 4.03881 53.589 4.13238 53.5503 4.23934C53.5117 4.34631 53.5046 4.46214 53.5301 4.57299C53.5556 4.68384 53.6124 4.78501 53.6939 4.86439L56.1876 7.29541L55.3057 11.1145C55.2789 11.2301 55.2875 11.3511 55.3303 11.4617C55.3731 11.5724 55.4482 11.6676 55.5459 11.7351C55.6435 11.8025 55.7591 11.8391 55.8778 11.84C55.9965 11.8409 56.1127 11.8061 56.2113 11.7402L59.4343 9.59148L62.6573 11.7402C62.7581 11.8071 62.8771 11.8416 62.9981 11.8389C63.119 11.8363 63.2363 11.7966 63.3341 11.7253C63.4319 11.654 63.5055 11.5545 63.5451 11.4401C63.5846 11.3257 63.5882 11.202 63.5553 11.0855L62.4726 7.29719L65.1576 4.88097C65.3334 4.72233 65.3979 4.47491 65.3222 4.25057Z" fill="#FBE367"/>
<path d="M73.8324 10.249C73.8155 10.3214 73.8152 10.3966 73.8315 10.4691C73.8479 10.5416 73.8804 10.6095 73.9267 10.6676C73.9729 10.7257 74.0318 10.7727 74.0987 10.8048C74.1657 10.837 74.2391 10.8536 74.3134 10.8533C74.4109 10.8534 74.5062 10.8245 74.5872 10.7705L77.2734 8.97966L79.9596 10.7705C80.0437 10.8263 80.1428 10.855 80.2436 10.8528C80.3445 10.8506 80.4422 10.8175 80.5237 10.7581C80.6052 10.6987 80.6666 10.6157 80.6995 10.5204C80.7325 10.425 80.7354 10.3219 80.708 10.2248L79.8057 7.0675L82.0435 5.05371C82.1151 4.98918 82.1663 4.90505 82.1907 4.81174C82.2151 4.71842 82.2115 4.62001 82.1806 4.52868C82.1496 4.43734 82.0925 4.35709 82.0164 4.29784C81.9403 4.23859 81.8486 4.20295 81.7524 4.19531L78.9399 3.97134L77.7229 1.27725C77.6841 1.19048 77.6211 1.11678 77.5413 1.06504C77.4616 1.01331 77.3686 0.985755 77.2736 0.985703C77.1786 0.98565 77.0855 1.0131 77.0058 1.06475C76.926 1.11639 76.8629 1.19002 76.824 1.27675L75.607 3.97134L72.7945 4.19482C72.7 4.20231 72.6096 4.23686 72.5343 4.29434C72.4589 4.35182 72.4017 4.4298 72.3695 4.51895C72.3372 4.6081 72.3314 4.70465 72.3526 4.79703C72.3738 4.88942 72.4212 4.97374 72.4891 5.0399L74.568 7.06602L73.8324 10.249ZM77.2734 2.67831L78.2808 4.90867L78.5709 4.93186H78.5714L80.5309 5.08726L78.9172 6.53963L78.9167 6.54062L78.6883 6.74585L78.7727 7.04037V7.04185L79.3908 9.20511L77.2734 7.79369V2.67831Z" fill="#FBE367"/>
</svg>
