<svg width="120" height="126" viewBox="0 0 120 126" fill="none" xmlns="http://www.w3.org/2000/svg">
<path d="M110.719 93.4284C109.957 108.634 98.0512 122.414 83.4564 125.378C68.8616 128.342 52.8885 120.458 45.777 107.084C44.9922 105.608 44.2933 104.06 43.5945 102.512C41.7904 98.5161 39.987 94.5213 36.7074 91.7726C32.9629 88.6341 28.1471 87.7947 23.2828 86.9469C20.1939 86.4085 17.0855 85.8667 14.2194 84.7306C7.31019 81.9919 1.94556 75.5039 0.450105 68.0779C-1.97329 56.0441 5.70286 43.7578 15.9393 37.3359C26.1757 30.9141 38.4762 29.1255 50.4075 27.7474C54.9716 27.2202 58.6791 23.7006 61.327 19.8601C62.3521 18.3733 63.2745 16.811 64.1961 15.2499C65.6551 12.7785 67.1124 10.31 68.9732 8.14855C76.8523 -1.00396 91.5248 -2.54841 101.561 4.03278C111.596 10.614 116.4 24.1468 113.731 36.0345C113.271 38.082 112.619 40.0756 111.966 42.0694C111.342 43.978 110.717 45.887 110.261 47.8432C109.287 52.0244 109.102 56.3512 108.991 60.648C108.859 65.7711 108.827 70.9075 109.296 76.0098C109.459 77.7847 109.683 79.5574 109.906 81.3297C110.414 85.3571 110.922 89.3826 110.719 93.4284Z" fill="white" fill-opacity="0.48"/>
<path d="M50.3909 24.1155C55.848 21.3375 60.1913 16.5129 62.9264 10.9391C63.2851 10.2082 63.6249 9.43175 63.6124 8.61407C63.5998 7.79639 63.1349 6.93029 62.3619 6.72262C61.2542 6.42503 60.3015 7.51185 59.6107 8.44662C54.8654 14.8681 47.9586 19.9092 40.1649 21.0086C37.1716 21.4308 34.1325 21.2723 31.1149 21.1128L26.4015 20.8638C22.6053 20.6633 18.7564 20.4667 15.0404 21.2864C11.3245 22.1061 7.6936 24.0775 5.6527 27.3592C5.00308 28.4037 4.5165 29.6347 4.69624 30.8591C4.88043 32.1138 5.75201 33.1787 6.80187 33.8537C7.85174 34.5288 9.07145 34.8665 10.2802 35.149C11.1652 35.3559 12.0692 35.5392 12.9747 35.4739C14.4553 35.3673 15.7988 34.6139 17.1061 33.8809C17.1932 33.8321 17.2801 33.7833 17.3669 33.7349C19.6517 32.4594 22.0193 31.3266 24.4886 30.4849C28.0896 29.2575 31.876 28.6569 35.6531 28.0577C40.7415 27.2505 45.8129 26.446 50.3909 24.1155Z" fill="white" fill-opacity="0.48"/>
<path d="M22.0122 98.1242L22.0154 98.1243C22.2378 98.1334 22.4601 98.1425 22.6818 98.1543C26.1884 98.341 29.6586 99.2207 32.8448 100.731C34.0597 101.307 35.2901 102.027 35.9724 103.206C36.8166 104.664 37.83 106.02 38.9846 107.236C39.4325 107.707 39.9175 108.169 40.5155 108.41C41.1134 108.65 41.8518 108.628 42.337 108.197C42.9264 107.673 42.9647 106.743 42.783 105.966C42.4853 104.693 41.743 103.583 41.0082 102.511C38.5972 98.9941 36.0588 95.4775 32.7036 92.8951C29.3483 90.3126 25.0182 88.7489 20.9113 89.641C19.4932 89.949 18.0878 90.5769 17.1476 91.706C16.2075 92.8351 15.8359 94.5345 16.5131 95.8461C17.0502 96.8867 18.1392 97.527 19.2542 97.8155C20.1528 98.048 21.0836 98.0861 22.0122 98.1242Z" fill="white" fill-opacity="0.48"/>
<path d="M116.863 45.224C115.926 44.8623 114.864 45.2991 114.071 45.925C112.504 47.1612 111.576 49.0951 111.155 51.0734C110.733 53.0516 110.767 55.098 110.803 57.1225L111.113 74.5172C111.135 75.7881 111.191 77.1577 111.954 78.1601C112.193 78.4738 112.52 78.7491 112.907 78.7895C113.376 78.8385 113.809 78.5356 114.148 78.2003C115.999 76.3664 116.242 73.4777 116.463 70.8447L116.471 70.749C116.797 66.884 117.361 63.04 118.158 59.2475C118.382 58.181 118.629 57.1077 119.098 56.128C120.568 53.0568 120.217 49.1582 118.222 46.4145C117.861 45.9181 117.429 45.4422 116.863 45.224Z" fill="white" fill-opacity="0.48"/>
</svg>
