<svg width="144" height="138" viewBox="0 0 144 138" fill="none" xmlns="http://www.w3.org/2000/svg">
<path fill-rule="evenodd" clip-rule="evenodd" d="M67.6405 0.680207C83.7204 2.15164 97.4648 9.83382 110.407 18.233C123.162 26.511 136.298 35.3891 141.317 48.4954C146.352 61.6431 143.866 76.2045 137.467 88.8989C131.469 100.797 118.764 108.155 107.122 116.328C94.7269 125.031 83.5567 136.978 67.6405 137.924C51.39 138.889 36.2723 130.565 24.0182 121.266C12.5486 112.563 5.35287 100.636 1.62211 87.8267C-1.91487 75.6828 1.06549 63.5411 3.61487 51.2127C6.62174 36.6719 5.16294 19.7031 17.7664 9.75575C30.6402 -0.404938 50.3233 -0.904436 67.6405 0.680207Z" fill="white" fill-opacity="0.32"/>
</svg>
